<?xml version="1.0" encoding="UTF-8" standalone="no"?>
<!DOCTYPE svg PUBLIC "-//W3C//DTD SVG 1.1//EN"
 "http://www.w3.org/Graphics/SVG/1.1/DTD/svg11.dtd">
<!-- Generated by graphviz version 2.44.0 (0)
 -->
<!-- Title: G Pages: 1 -->
<svg width="197pt" height="332pt"
 viewBox="0.00 0.00 196.84 332.00" xmlns="http://www.w3.org/2000/svg" xmlns:xlink="http://www.w3.org/1999/xlink">
<g id="graph0" class="graph" transform="scale(1 1) rotate(0) translate(4 328)">
<title>G</title>
<polygon fill="white" stroke="transparent" points="-4,4 -4,-328 192.84,-328 192.84,4 -4,4"/>
<!-- n5 -->
<g id="node1" class="node">
<title>n5</title>
<ellipse fill="none" stroke="red" cx="124.9" cy="-234" rx="44.39" ry="18"/>
<text text-anchor="middle" x="124.9" y="-230.3" font-family="Times-Roman" font-size="14.00">node_B</text>
</g>
<!-- n4 -->
<g id="node2" class="node">
<title>n4</title>
<ellipse fill="none" stroke="red" cx="66.9" cy="-162" rx="50.09" ry="18"/>
<text text-anchor="middle" x="66.9" y="-158.3" font-family="Times-Roman" font-size="14.00">node_DP</text>
</g>
<!-- n5&#45;&gt;n4 -->
<g id="edge2" class="edge">
<title>n5&#45;&gt;n4</title>
<path fill="none" stroke="black" d="M111.44,-216.76C104.23,-208.06 95.19,-197.15 87.14,-187.43"/>
<polygon fill="black" stroke="black" points="89.75,-185.1 80.68,-179.63 84.36,-189.57 89.75,-185.1"/>
</g>
<!-- n2 -->
<g id="node5" class="node">
<title>n2</title>
<ellipse fill="none" stroke="red" cx="132.9" cy="-18" rx="28.7" ry="18"/>
<text text-anchor="middle" x="132.9" y="-14.3" font-family="Times-Roman" font-size="14.00">root</text>
</g>
<!-- n5&#45;&gt;n2 -->
<g id="edge5" class="edge">
<title>n5&#45;&gt;n2</title>
<path fill="none" stroke="black" d="M125.54,-215.85C126.92,-178.83 130.2,-91.18 131.87,-46.39"/>
<polygon fill="black" stroke="black" points="135.38,-46.36 132.25,-36.23 128.38,-46.09 135.38,-46.36"/>
</g>
<!-- n3 -->
<g id="node4" class="node">
<title>n3</title>
<ellipse fill="none" stroke="red" cx="42.9" cy="-90" rx="42.79" ry="18"/>
<text text-anchor="middle" x="42.9" y="-86.3" font-family="Times-Roman" font-size="14.00">node_P</text>
</g>
<!-- n4&#45;&gt;n3 -->
<g id="edge4" class="edge">
<title>n4&#45;&gt;n3</title>
<path fill="none" stroke="black" d="M61.09,-144.05C58.39,-136.18 55.11,-126.62 52.08,-117.79"/>
<polygon fill="black" stroke="black" points="55.37,-116.6 48.82,-108.28 48.75,-118.87 55.37,-116.6"/>
</g>
<!-- n4&#45;&gt;n2 -->
<g id="edge6" class="edge">
<title>n4&#45;&gt;n2</title>
<path fill="none" stroke="black" d="M76.34,-144C81.95,-133.69 89.08,-120.21 94.9,-108 104.85,-87.11 115.1,-62.94 122.43,-45.06"/>
<polygon fill="black" stroke="black" points="125.76,-46.17 126.29,-35.58 119.28,-43.53 125.76,-46.17"/>
</g>
<!-- n6 -->
<g id="node3" class="node">
<title>n6</title>
<ellipse fill="none" stroke="red" cx="124.9" cy="-306" rx="55.79" ry="18"/>
<text text-anchor="middle" x="124.9" y="-302.3" font-family="Times-Roman" font-size="14.00">node_DP2</text>
</g>
<!-- n6&#45;&gt;n5 -->
<g id="edge1" class="edge">
<title>n6&#45;&gt;n5</title>
<path fill="none" stroke="black" d="M124.9,-287.7C124.9,-279.98 124.9,-270.71 124.9,-262.11"/>
<polygon fill="black" stroke="black" points="128.4,-262.1 124.9,-252.1 121.4,-262.1 128.4,-262.1"/>
</g>
<!-- n6&#45;&gt;n4 -->
<g id="edge3" class="edge">
<title>n6&#45;&gt;n4</title>
<path fill="none" stroke="black" d="M102.68,-289.23C91.33,-279.83 78.54,-266.85 71.9,-252 63.23,-232.63 62.41,-208.49 63.52,-190.23"/>
<polygon fill="black" stroke="black" points="67.01,-190.5 64.35,-180.25 60.04,-189.92 67.01,-190.5"/>
</g>
<!-- n6&#45;&gt;n2 -->
<g id="edge7" class="edge">
<title>n6&#45;&gt;n2</title>
<path fill="none" stroke="black" d="M147.44,-289.37C158.89,-280.02 171.67,-267.03 177.9,-252 207.58,-180.34 169.27,-88.07 146.92,-44.26"/>
<polygon fill="black" stroke="black" points="149.9,-42.41 142.15,-35.18 143.7,-45.66 149.9,-42.41"/>
</g>
<!-- n3&#45;&gt;n2 -->
<g id="edge8" class="edge">
<title>n3&#45;&gt;n2</title>
<path fill="none" stroke="black" d="M62.42,-73.81C75.65,-63.53 93.25,-49.84 107.55,-38.71"/>
<polygon fill="black" stroke="black" points="109.79,-41.41 115.53,-32.5 105.49,-35.88 109.79,-41.41"/>
</g>
</g>
</svg>
