<?xml version="1.0" encoding="UTF-8" standalone="no"?>
<!DOCTYPE svg PUBLIC "-//W3C//DTD SVG 1.1//EN"
 "http://www.w3.org/Graphics/SVG/1.1/DTD/svg11.dtd">
<!-- Generated by graphviz version 2.44.0 (0)
 -->
<!-- Title: G Pages: 1 -->
<svg width="552pt" height="332pt"
 viewBox="0.00 0.00 552.29 332.00" xmlns="http://www.w3.org/2000/svg" xmlns:xlink="http://www.w3.org/1999/xlink">
<g id="graph0" class="graph" transform="scale(1 1) rotate(0) translate(4 328)">
<title>G</title>
<polygon fill="white" stroke="transparent" points="-4,4 -4,-328 548.29,-328 548.29,4 -4,4"/>
<!-- n5 -->
<g id="node1" class="node">
<title>n5</title>
<ellipse fill="none" stroke="red" cx="127.9" cy="-234" rx="44.39" ry="18"/>
<text text-anchor="middle" x="127.9" y="-230.3" font-family="Times-Roman" font-size="14.00">node_B</text>
</g>
<!-- n4 -->
<g id="node2" class="node">
<title>n4</title>
<ellipse fill="none" stroke="red" cx="75.9" cy="-162" rx="50.09" ry="18"/>
<text text-anchor="middle" x="75.9" y="-158.3" font-family="Times-Roman" font-size="14.00">node_DP</text>
</g>
<!-- n5&#45;&gt;n4 -->
<g id="edge2" class="edge">
<title>n5&#45;&gt;n4</title>
<path fill="none" stroke="black" d="M115.57,-216.41C109.23,-207.87 101.36,-197.28 94.31,-187.79"/>
<polygon fill="black" stroke="black" points="96.9,-185.41 88.13,-179.47 91.28,-189.58 96.9,-185.41"/>
</g>
<!-- n2 -->
<g id="node10" class="node">
<title>n2</title>
<ellipse fill="none" stroke="red" cx="203.9" cy="-18" rx="28.7" ry="18"/>
<text text-anchor="middle" x="203.9" y="-14.3" font-family="Times-Roman" font-size="14.00">root</text>
</g>
<!-- n5&#45;&gt;n2 -->
<g id="edge9" class="edge">
<title>n5&#45;&gt;n2</title>
<path fill="none" stroke="black" d="M133.99,-215.85C147.25,-178.49 178.83,-89.56 194.6,-45.16"/>
<polygon fill="black" stroke="black" points="197.94,-46.24 197.99,-35.64 191.34,-43.89 197.94,-46.24"/>
</g>
<!-- n3 -->
<g id="node4" class="node">
<title>n3</title>
<ellipse fill="none" stroke="red" cx="94.9" cy="-90" rx="42.79" ry="18"/>
<text text-anchor="middle" x="94.9" y="-86.3" font-family="Times-Roman" font-size="14.00">node_P</text>
</g>
<!-- n4&#45;&gt;n3 -->
<g id="edge4" class="edge">
<title>n4&#45;&gt;n3</title>
<path fill="none" stroke="black" d="M80.49,-144.05C82.61,-136.26 85.17,-126.82 87.55,-118.08"/>
<polygon fill="black" stroke="black" points="90.96,-118.84 90.21,-108.28 84.21,-117.01 90.96,-118.84"/>
</g>
<!-- n4&#45;&gt;n2 -->
<g id="edge10" class="edge">
<title>n4&#45;&gt;n2</title>
<path fill="none" stroke="black" d="M61.12,-144.63C45.95,-125.75 26.67,-94.43 42.9,-72 70.57,-33.76 126.78,-22.63 164.9,-19.65"/>
<polygon fill="black" stroke="black" points="165.37,-23.13 175.13,-19.01 164.93,-16.15 165.37,-23.13"/>
</g>
<!-- n6 -->
<g id="node3" class="node">
<title>n6</title>
<ellipse fill="none" stroke="red" cx="55.9" cy="-306" rx="55.79" ry="18"/>
<text text-anchor="middle" x="55.9" y="-302.3" font-family="Times-Roman" font-size="14.00">node_DP2</text>
</g>
<!-- n6&#45;&gt;n5 -->
<g id="edge1" class="edge">
<title>n6&#45;&gt;n5</title>
<path fill="none" stroke="black" d="M72.59,-288.76C81.95,-279.66 93.79,-268.16 104.1,-258.13"/>
<polygon fill="black" stroke="black" points="106.56,-260.63 111.29,-251.15 101.68,-255.61 106.56,-260.63"/>
</g>
<!-- n6&#45;&gt;n4 -->
<g id="edge3" class="edge">
<title>n6&#45;&gt;n4</title>
<path fill="none" stroke="black" d="M58.31,-287.87C61.72,-263.67 67.98,-219.21 72.04,-190.39"/>
<polygon fill="black" stroke="black" points="75.55,-190.58 73.47,-180.19 68.61,-189.6 75.55,-190.58"/>
</g>
<!-- n6&#45;&gt;n2 -->
<g id="edge11" class="edge">
<title>n6&#45;&gt;n2</title>
<path fill="none" stroke="black" d="M46.8,-288.24C25.15,-245.83 -23.57,-133.28 32.9,-72 66.77,-35.23 125.6,-23.74 164.64,-20.28"/>
<polygon fill="black" stroke="black" points="165.38,-23.74 175.09,-19.51 164.86,-16.76 165.38,-23.74"/>
</g>
<!-- n3&#45;&gt;n2 -->
<g id="edge12" class="edge">
<title>n3&#45;&gt;n2</title>
<path fill="none" stroke="black" d="M117.48,-74.5C134.52,-63.55 157.99,-48.48 176.17,-36.81"/>
<polygon fill="black" stroke="black" points="178.09,-39.73 184.62,-31.38 174.31,-33.84 178.09,-39.73"/>
</g>
<!-- n7 -->
<g id="node5" class="node">
<title>n7</title>
<ellipse fill="none" stroke="red" cx="343.9" cy="-90" rx="74.19" ry="18"/>
<text text-anchor="middle" x="343.9" y="-86.3" font-family="Times-Roman" font-size="14.00">node_addition</text>
</g>
<!-- n7&#45;&gt;n2 -->
<g id="edge13" class="edge">
<title>n7&#45;&gt;n2</title>
<path fill="none" stroke="black" d="M312.82,-73.46C289.6,-61.85 258,-46.05 234.81,-34.46"/>
<polygon fill="black" stroke="black" points="236.26,-31.27 225.75,-29.93 233.13,-37.53 236.26,-31.27"/>
</g>
<!-- n8 -->
<g id="node6" class="node">
<title>n8</title>
<ellipse fill="none" stroke="red" cx="280.9" cy="-162" rx="49.29" ry="18"/>
<text text-anchor="middle" x="280.9" y="-158.3" font-family="Times-Roman" font-size="14.00">node_n1</text>
</g>
<!-- n8&#45;&gt;n7 -->
<g id="edge5" class="edge">
<title>n8&#45;&gt;n7</title>
<path fill="none" stroke="black" d="M295.51,-144.76C303.42,-135.97 313.36,-124.93 322.17,-115.14"/>
<polygon fill="black" stroke="black" points="324.84,-117.41 328.92,-107.63 319.63,-112.72 324.84,-117.41"/>
</g>
<!-- n8&#45;&gt;n2 -->
<g id="edge14" class="edge">
<title>n8&#45;&gt;n2</title>
<path fill="none" stroke="black" d="M271.76,-144.15C258.37,-119.47 233.33,-73.28 217.69,-44.44"/>
<polygon fill="black" stroke="black" points="220.62,-42.51 212.78,-35.39 214.47,-45.85 220.62,-42.51"/>
</g>
<!-- n11 -->
<g id="node7" class="node">
<title>n11</title>
<ellipse fill="none" stroke="red" cx="337.9" cy="-234" rx="49.29" ry="18"/>
<text text-anchor="middle" x="337.9" y="-230.3" font-family="Times-Roman" font-size="14.00">node_n2</text>
</g>
<!-- n9 -->
<g id="node9" class="node">
<title>n9</title>
<ellipse fill="none" stroke="red" cx="436.9" cy="-162" rx="89.08" ry="18"/>
<text text-anchor="middle" x="436.9" y="-158.3" font-family="Times-Roman" font-size="14.00">node_subtraction</text>
</g>
<!-- n11&#45;&gt;n9 -->
<g id="edge7" class="edge">
<title>n11&#45;&gt;n9</title>
<path fill="none" stroke="black" d="M359.87,-217.46C373.2,-208.04 390.44,-195.85 405.23,-185.39"/>
<polygon fill="black" stroke="black" points="407.46,-188.1 413.61,-179.47 403.42,-182.38 407.46,-188.1"/>
</g>
<!-- n11&#45;&gt;n2 -->
<g id="edge15" class="edge">
<title>n11&#45;&gt;n2</title>
<path fill="none" stroke="black" d="M295.66,-224.44C270.45,-217.04 240.08,-203.66 222.9,-180 194.24,-140.55 195.67,-80.76 199.58,-46.22"/>
<polygon fill="black" stroke="black" points="203.1,-46.32 200.91,-35.96 196.16,-45.43 203.1,-46.32"/>
</g>
<!-- n10 -->
<g id="node8" class="node">
<title>n10</title>
<ellipse fill="none" stroke="red" cx="494.9" cy="-234" rx="49.29" ry="18"/>
<text text-anchor="middle" x="494.9" y="-230.3" font-family="Times-Roman" font-size="14.00">node_n3</text>
</g>
<!-- n10&#45;&gt;n9 -->
<g id="edge8" class="edge">
<title>n10&#45;&gt;n9</title>
<path fill="none" stroke="black" d="M481.15,-216.41C474.1,-207.91 465.38,-197.37 457.54,-187.91"/>
<polygon fill="black" stroke="black" points="460.02,-185.42 450.94,-179.96 454.63,-189.89 460.02,-185.42"/>
</g>
<!-- n10&#45;&gt;n2 -->
<g id="edge16" class="edge">
<title>n10&#45;&gt;n2</title>
<path fill="none" stroke="black" d="M511.38,-216.99C520.21,-207.24 530.21,-193.99 534.9,-180 539.98,-164.83 541.66,-158.5 534.9,-144 513.8,-98.83 493.67,-93.91 448.9,-72 381.02,-38.79 292.5,-26.25 242.57,-21.61"/>
<polygon fill="black" stroke="black" points="242.79,-18.12 232.52,-20.74 242.18,-25.09 242.79,-18.12"/>
</g>
<!-- n9&#45;&gt;n7 -->
<g id="edge6" class="edge">
<title>n9&#45;&gt;n7</title>
<path fill="none" stroke="black" d="M414.86,-144.41C402.49,-135.1 386.9,-123.37 373.48,-113.27"/>
<polygon fill="black" stroke="black" points="375.55,-110.45 365.46,-107.23 371.34,-116.04 375.55,-110.45"/>
</g>
<!-- n9&#45;&gt;n2 -->
<g id="edge17" class="edge">
<title>n9&#45;&gt;n2</title>
<path fill="none" stroke="black" d="M440.25,-143.97C443.09,-124.16 444.31,-91.67 426.9,-72 402.81,-44.79 299.59,-29.43 242.41,-22.86"/>
<polygon fill="black" stroke="black" points="242.62,-19.36 232.3,-21.73 241.85,-26.32 242.62,-19.36"/>
</g>
</g>
</svg>
