<?xml version="1.0" encoding="UTF-8" standalone="no"?>
<!DOCTYPE svg PUBLIC "-//W3C//DTD SVG 1.1//EN"
 "http://www.w3.org/Graphics/SVG/1.1/DTD/svg11.dtd">
<!-- Generated by graphviz version 2.44.0 (0)
 -->
<!-- Title: G Pages: 1 -->
<svg width="181pt" height="332pt"
 viewBox="0.00 0.00 181.33 332.00" xmlns="http://www.w3.org/2000/svg" xmlns:xlink="http://www.w3.org/1999/xlink">
<g id="graph0" class="graph" transform="scale(1 1) rotate(0) translate(4 328)">
<title>G</title>
<polygon fill="white" stroke="transparent" points="-4,4 -4,-328 177.33,-328 177.33,4 -4,4"/>
<!-- n4 -->
<g id="node1" class="node">
<title>n4</title>
<ellipse fill="none" stroke="red" cx="98.9" cy="-306" rx="44.39" ry="18"/>
<text text-anchor="middle" x="98.9" y="-302.3" font-family="Times-Roman" font-size="14.00">node_B</text>
</g>
<!-- n6 -->
<g id="node3" class="node">
<title>n6</title>
<ellipse fill="none" stroke="red" cx="98.9" cy="-234" rx="50.09" ry="18"/>
<text text-anchor="middle" x="98.9" y="-230.3" font-family="Times-Roman" font-size="14.00">node_DP</text>
</g>
<!-- n4&#45;&gt;n6 -->
<g id="edge2" class="edge">
<title>n4&#45;&gt;n6</title>
<path fill="none" stroke="black" d="M98.9,-287.7C98.9,-279.98 98.9,-270.71 98.9,-262.11"/>
<polygon fill="black" stroke="black" points="102.4,-262.1 98.9,-252.1 95.4,-262.1 102.4,-262.1"/>
</g>
<!-- n3 -->
<g id="node4" class="node">
<title>n3</title>
<ellipse fill="none" stroke="red" cx="42.9" cy="-90" rx="42.79" ry="18"/>
<text text-anchor="middle" x="42.9" y="-86.3" font-family="Times-Roman" font-size="14.00">node_P</text>
</g>
<!-- n4&#45;&gt;n3 -->
<g id="edge3" class="edge">
<title>n4&#45;&gt;n3</title>
<path fill="none" stroke="black" d="M76.42,-290.48C63.69,-281.06 48.62,-267.63 39.9,-252 16.35,-209.78 19.83,-191.83 26.9,-144 28.19,-135.21 30.64,-125.86 33.24,-117.5"/>
<polygon fill="black" stroke="black" points="36.6,-118.49 36.41,-107.9 29.95,-116.29 36.6,-118.49"/>
</g>
<!-- n2 -->
<g id="node5" class="node">
<title>n2</title>
<ellipse fill="none" stroke="red" cx="132.9" cy="-18" rx="28.7" ry="18"/>
<text text-anchor="middle" x="132.9" y="-14.3" font-family="Times-Roman" font-size="14.00">root</text>
</g>
<!-- n4&#45;&gt;n2 -->
<g id="edge5" class="edge">
<title>n4&#45;&gt;n2</title>
<path fill="none" stroke="black" d="M122.71,-290.79C135.74,-281.55 150.66,-268.22 157.9,-252 167.21,-231.12 187.81,-228.62 154.9,-72 152.95,-62.75 149.43,-53.08 145.76,-44.56"/>
<polygon fill="black" stroke="black" points="148.82,-42.84 141.48,-35.2 142.45,-45.75 148.82,-42.84"/>
</g>
<!-- n5 -->
<g id="node2" class="node">
<title>n5</title>
<ellipse fill="none" stroke="red" cx="79.9" cy="-162" rx="44.39" ry="18"/>
<text text-anchor="middle" x="79.9" y="-158.3" font-family="Times-Roman" font-size="14.00">node_D</text>
</g>
<!-- n5&#45;&gt;n3 -->
<g id="edge4" class="edge">
<title>n5&#45;&gt;n3</title>
<path fill="none" stroke="black" d="M70.94,-144.05C66.62,-135.89 61.35,-125.91 56.55,-116.82"/>
<polygon fill="black" stroke="black" points="59.54,-114.99 51.77,-107.79 53.35,-118.27 59.54,-114.99"/>
</g>
<!-- n5&#45;&gt;n2 -->
<g id="edge6" class="edge">
<title>n5&#45;&gt;n2</title>
<path fill="none" stroke="black" d="M86.18,-144.15C95.31,-119.71 112.3,-74.17 123.09,-45.29"/>
<polygon fill="black" stroke="black" points="126.4,-46.42 126.62,-35.82 119.84,-43.97 126.4,-46.42"/>
</g>
<!-- n6&#45;&gt;n5 -->
<g id="edge1" class="edge">
<title>n6&#45;&gt;n5</title>
<path fill="none" stroke="black" d="M94.3,-216.05C92.18,-208.26 89.62,-198.82 87.25,-190.08"/>
<polygon fill="black" stroke="black" points="90.58,-189.01 84.59,-180.28 83.83,-190.84 90.58,-189.01"/>
</g>
<!-- n6&#45;&gt;n2 -->
<g id="edge7" class="edge">
<title>n6&#45;&gt;n2</title>
<path fill="none" stroke="black" d="M112.94,-216.57C120.46,-206.68 128.96,-193.43 132.9,-180 146.18,-134.7 141.93,-79.09 137.51,-46.49"/>
<polygon fill="black" stroke="black" points="140.94,-45.76 136.03,-36.37 134.01,-46.77 140.94,-45.76"/>
</g>
<!-- n3&#45;&gt;n2 -->
<g id="edge8" class="edge">
<title>n3&#45;&gt;n2</title>
<path fill="none" stroke="black" d="M62.42,-73.81C75.65,-63.53 93.25,-49.84 107.55,-38.71"/>
<polygon fill="black" stroke="black" points="109.79,-41.41 115.53,-32.5 105.49,-35.88 109.79,-41.41"/>
</g>
</g>
</svg>
