<?xml version="1.0" encoding="UTF-8" standalone="no"?>
<!-- Created with Inkscape (http://www.inkscape.org/) -->

<svg
   xmlns:dc="http://purl.org/dc/elements/1.1/"
   xmlns:cc="http://creativecommons.org/ns#"
   xmlns:rdf="http://www.w3.org/1999/02/22-rdf-syntax-ns#"
   xmlns:svg="http://www.w3.org/2000/svg"
   xmlns="http://www.w3.org/2000/svg"
   xmlns:sodipodi="http://sodipodi.sourceforge.net/DTD/sodipodi-0.dtd"
   xmlns:inkscape="http://www.inkscape.org/namespaces/inkscape"
   width="210mm"
   height="297mm"
   viewBox="0 0 210 297"
   version="1.1"
   id="svg8"
   inkscape:version="0.92.2 (5c3e80d, 2017-08-06)"
   sodipodi:docname="creativ-symbol.svg">
  <defs
     id="defs2" />
  <sodipodi:namedview
     id="base"
     pagecolor="#ffffff"
     bordercolor="#666666"
     borderopacity="1.0"
     inkscape:pageopacity="0.0"
     inkscape:pageshadow="2"
     inkscape:zoom="0.49497475"
     inkscape:cx="313.66072"
     inkscape:cy="515.53051"
     inkscape:document-units="mm"
     inkscape:current-layer="layer1"
     showgrid="true"
     inkscape:window-width="1600"
     inkscape:window-height="836"
     inkscape:window-x="0"
     inkscape:window-y="27"
     inkscape:window-maximized="1"
     showguides="false">
    <inkscape:grid
       type="xygrid"
       id="grid3767" />
  </sodipodi:namedview>
  <metadata
     id="metadata5">
    <rdf:RDF>
      <cc:Work
         rdf:about="">
        <dc:format>image/svg+xml</dc:format>
        <dc:type
           rdf:resource="http://purl.org/dc/dcmitype/StillImage" />
        <dc:title />
      </cc:Work>
    </rdf:RDF>
  </metadata>
  <g
     inkscape:label="Layer 1"
     inkscape:groupmode="layer"
     id="layer1">
    <path
       style="fill:#198c9f;fill-opacity:1;stroke:#000000;stroke-width:2;stroke-linecap:butt;stroke-linejoin:miter;stroke-miterlimit:4;stroke-dasharray:none;stroke-opacity:1"
       d="M -2.6458333,127.66667 C 26.458333,130.4929 39.6875,141.79782 39.6875,141.79782 c 13.229167,22.60985 10.583334,56.04356 21.166667,75.82718 7.9375,14.13115 22.007142,17.37172 47.625003,34.39583 20.1406,-16.07057 45.26326,-19.98906 47.625,-34.39583 6.5594,-18.39401 9.26042,-58.35866 18.52083,-76.72917 13.22917,-12.71804 31.74999,-11.81605 34.39583,-13.22916"
       id="path3699"
       inkscape:connector-curvature="0"
       sodipodi:nodetypes="ccccccc" />
    <path
       style="fill:#1e502a;fill-opacity:1;stroke:#000000;stroke-width:0;stroke-linecap:butt;stroke-linejoin:miter;stroke-miterlimit:4;stroke-dasharray:none;stroke-opacity:1"
       d="m 63.593285,144.8201 c 29.627402,5.20687 57.211155,5.20687 83.857395,0 -1.85828,7.54139 -4.04127,11.37965 -6.27504,14.6388 l -23.43606,5.24943 c -7.0339,26.53881 -6.61459,47.625 -9.19458,70.07011 -3.35535,-22.45374 -6.12971,-53.25328 -15.324313,-70.07011 l -21.454008,-5.6056 c -6.50418,-4.23594 -5.149866,-9.05426 -8.173394,-14.28263 z"
       id="path3703"
       inkscape:connector-curvature="0"
       sodipodi:nodetypes="cccccccc" />
    <path
       style="fill:#72d52f;fill-opacity:1;stroke:#a60000;stroke-width:1.5;stroke-linecap:butt;stroke-linejoin:miter;stroke-miterlimit:4;stroke-dasharray:none;stroke-opacity:1"
       d="m 37.041664,127.66667 c 10.583336,-95.250003 127.000006,-95.250009 142.875006,0"
       id="path3746"
       inkscape:connector-curvature="0"
       sodipodi:nodetypes="cc" />
    <path
       style="fill:#e3da5b;fill-opacity:1;stroke:#a60000;stroke-width:1.29999995;stroke-linecap:butt;stroke-linejoin:miter;stroke-miterlimit:4;stroke-dasharray:none;stroke-opacity:1"
       d="m 47.625004,127.66667 c 21.166663,-71.437503 97.895836,-68.791673 116.416666,0"
       id="path3713"
       inkscape:connector-curvature="0"
       sodipodi:nodetypes="cc" />
    <path
       style="fill:#db5552;fill-opacity:1;stroke:#a60000;stroke-width:2;stroke-linecap:butt;stroke-linejoin:miter;stroke-miterlimit:4;stroke-dasharray:none;stroke-opacity:1"
       d="m 60.854166,127.66667 c 18.520834,-47.625003 74.083334,-47.625012 92.604164,0"
       id="path3709"
       inkscape:connector-curvature="0"
       sodipodi:nodetypes="cc" />
    <path
       style="fill:#29702a;fill-opacity:1;stroke:#a60000;stroke-width:1.79999995;stroke-linecap:butt;stroke-linejoin:miter;stroke-miterlimit:4;stroke-dasharray:none;stroke-opacity:1"
       d="M 74.083336,127.66667 C 95.250003,106.5 116.41667,106.5 137.58333,127.66667"
       id="path3707"
       inkscape:connector-curvature="0"
       sodipodi:nodetypes="cc" />
    <path
       style="fill:#82be2a;fill-opacity:1;stroke:#000000;stroke-width:0;stroke-linecap:butt;stroke-linejoin:miter;stroke-miterlimit:4;stroke-dasharray:none;stroke-opacity:1"
       d="m 58.208333,175.29166 c 11.90625,7.9375 7.9375,15.875 29.104167,21.16667 13.22917,21.16667 11.672174,30.27487 15.875,42.33333 -9.603873,-9.40507 -22.489579,-15.875 -34.395833,-21.16666 -9.260413,-21.16667 -7.9375,-26.45833 -10.583334,-42.33334 z"
       id="path3723"
       inkscape:connector-curvature="0"
       sodipodi:nodetypes="ccccc" />
    <path
       style="fill:#18e2e3;fill-opacity:1;stroke:#000000;stroke-width:0;stroke-linecap:butt;stroke-linejoin:miter;stroke-miterlimit:4;stroke-dasharray:none;stroke-opacity:1"
       d="m 83.343753,127.66667 c 10.583333,-2.64584 12.779734,-7.29483 22.489577,-7.9375 9.05475,0.8097 10.58334,6.61458 22.48959,7.9375 -11.90625,2.64583 -11.90625,9.26041 -22.48959,10.58333 -10.813634,-1.53677 -13.22916,-7.9375 -22.489577,-10.58333 z"
       id="path3701"
       inkscape:connector-curvature="0"
       sodipodi:nodetypes="ccccc" />
    <ellipse
       id="path3715"
       cx="105.35796"
       cy="129.60777"
       rx="5.0252523"
       ry="5.9122963"
       style="stroke:#000000;stroke-width:1.92849898;stroke-miterlimit:4;stroke-dasharray:none;stroke-opacity:1" />
    <circle
       style="fill:#e3dbdb;stroke:#000000;stroke-width:1.79999995;stroke-miterlimit:4;stroke-dasharray:none;stroke-opacity:1"
       id="path4574"
       cx="105.45258"
       cy="129.41621"
       r="2.6458333" />
    <path
       style="fill:#82be2a;fill-opacity:1;stroke:#000000;stroke-width:0;stroke-linecap:butt;stroke-linejoin:miter;stroke-miterlimit:4;stroke-dasharray:none;stroke-opacity:1"
       d="m 158.75,175.29166 c -11.90625,7.9375 -7.9375,15.875 -29.10417,21.16667 -13.22917,21.16667 -11.67217,30.27487 -15.875,42.33333 9.60388,-9.40507 22.48958,-15.875 34.39584,-21.16666 9.26041,-21.16667 7.9375,-26.45833 10.58333,-42.33334 z"
       id="path3723-2"
       inkscape:connector-curvature="0"
       sodipodi:nodetypes="ccccc" />
  </g>
</svg>
