<?xml version="1.0" encoding="UTF-8" standalone="no"?>
<!DOCTYPE svg PUBLIC "-//W3C//DTD SVG 1.1//EN"
 "http://www.w3.org/Graphics/SVG/1.1/DTD/svg11.dtd">
<!-- Generated by graphviz version 2.44.0 (0)
 -->
<!-- Title: G Pages: 1 -->
<svg width="828pt" height="620pt"
 viewBox="0.00 0.00 828.00 620.00" xmlns="http://www.w3.org/2000/svg" xmlns:xlink="http://www.w3.org/1999/xlink">
<g id="graph0" class="graph" transform="scale(1 1) rotate(0) translate(4 616)">
<title>G</title>
<polygon fill="white" stroke="transparent" points="-4,4 -4,-616 824,-616 824,4 -4,4"/>
<!-- n3 -->
<g id="node1" class="node">
<title>n3</title>
<ellipse fill="none" stroke="red" cx="589" cy="-594" rx="69.59" ry="18"/>
<text text-anchor="middle" x="589" y="-590.3" font-family="Times-Roman" font-size="14.00">node_ca_gen</text>
</g>
<!-- n4 -->
<g id="node4" class="node">
<title>n4</title>
<ellipse fill="none" stroke="red" cx="368" cy="-522" rx="110.48" ry="18"/>
<text text-anchor="middle" x="368" y="-518.3" font-family="Times-Roman" font-size="14.00">node_consul_principal</text>
</g>
<!-- n3&#45;&gt;n4 -->
<g id="edge3" class="edge">
<title>n3&#45;&gt;n4</title>
<path fill="none" stroke="black" d="M546.91,-579.67C512.65,-568.82 463.93,-553.38 425.98,-541.36"/>
<polygon fill="black" stroke="black" points="426.67,-537.91 416.08,-538.23 424.56,-544.58 426.67,-537.91"/>
</g>
<!-- n5 -->
<g id="node5" class="node">
<title>n5</title>
<ellipse fill="none" stroke="red" cx="589" cy="-306" rx="106.68" ry="18"/>
<text text-anchor="middle" x="589" y="-302.3" font-family="Times-Roman" font-size="14.00">node_consul_satellite</text>
</g>
<!-- n3&#45;&gt;n5 -->
<g id="edge4" class="edge">
<title>n3&#45;&gt;n5</title>
<path fill="none" stroke="black" d="M589,-575.97C589,-528.29 589,-393.18 589,-334.63"/>
<polygon fill="black" stroke="black" points="592.5,-334.31 589,-324.31 585.5,-334.31 592.5,-334.31"/>
</g>
<!-- n2 -->
<g id="node12" class="node">
<title>n2</title>
<ellipse fill="none" stroke="red" cx="363" cy="-18" rx="28.7" ry="18"/>
<text text-anchor="middle" x="363" y="-14.3" font-family="Times-Roman" font-size="14.00">root</text>
</g>
<!-- n3&#45;&gt;n2 -->
<g id="edge17" class="edge">
<title>n3&#45;&gt;n2</title>
<path fill="none" stroke="black" d="M646.1,-583.58C714.51,-568.66 820,-532.44 820,-451 820,-451 820,-451 820,-161 820,-100.5 771.98,-97.25 717,-72 661.27,-46.4 481.02,-28.77 401.41,-22.04"/>
<polygon fill="black" stroke="black" points="401.57,-18.54 391.31,-21.2 400.99,-25.51 401.57,-18.54"/>
</g>
<!-- n7 -->
<g id="node2" class="node">
<title>n7</title>
<ellipse fill="none" stroke="red" cx="293" cy="-378" rx="126.18" ry="18"/>
<text text-anchor="middle" x="293" y="-374.3" font-family="Times-Roman" font-size="14.00">node_consul_agent_token</text>
</g>
<!-- n7&#45;&gt;n5 -->
<g id="edge5" class="edge">
<title>n7&#45;&gt;n5</title>
<path fill="none" stroke="black" d="M355.05,-362.33C403.29,-350.92 470.16,-335.1 520.06,-323.3"/>
<polygon fill="black" stroke="black" points="520.88,-326.71 529.81,-321 519.27,-319.89 520.88,-326.71"/>
</g>
<!-- n9 -->
<g id="node11" class="node">
<title>n9</title>
<ellipse fill="none" stroke="red" cx="284" cy="-306" rx="180.07" ry="18"/>
<text text-anchor="middle" x="284" y="-302.3" font-family="Times-Roman" font-size="14.00">node_nomad_set_consul_agent_token</text>
</g>
<!-- n7&#45;&gt;n9 -->
<g id="edge16" class="edge">
<title>n7&#45;&gt;n9</title>
<path fill="none" stroke="black" d="M290.78,-359.7C289.78,-351.98 288.59,-342.71 287.49,-334.11"/>
<polygon fill="black" stroke="black" points="290.95,-333.58 286.2,-324.1 284,-334.47 290.95,-333.58"/>
</g>
<!-- n7&#45;&gt;n2 -->
<g id="edge18" class="edge">
<title>n7&#45;&gt;n2</title>
<path fill="none" stroke="black" d="M212.14,-364.14C164.9,-355 111.42,-341.29 95,-324 67.14,-294.68 76,-275.45 76,-235 76,-235 76,-235 76,-161 76,-51.63 245.52,-26.5 323.99,-20.72"/>
<polygon fill="black" stroke="black" points="324.69,-24.18 334.43,-20.03 324.22,-17.2 324.69,-24.18"/>
</g>
<!-- n6 -->
<g id="node3" class="node">
<title>n6</title>
<ellipse fill="none" stroke="red" cx="331" cy="-450" rx="143.77" ry="18"/>
<text text-anchor="middle" x="331" y="-446.3" font-family="Times-Roman" font-size="14.00">node_consul_bootstrap_token</text>
</g>
<!-- n6&#45;&gt;n7 -->
<g id="edge1" class="edge">
<title>n6&#45;&gt;n7</title>
<path fill="none" stroke="black" d="M321.61,-431.7C317.24,-423.64 311.94,-413.89 307.1,-404.98"/>
<polygon fill="black" stroke="black" points="310.13,-403.22 302.29,-396.1 303.98,-406.56 310.13,-403.22"/>
</g>
<!-- n6&#45;&gt;n5 -->
<g id="edge6" class="edge">
<title>n6&#45;&gt;n5</title>
<path fill="none" stroke="black" d="M361.6,-432.33C380.71,-421.91 405.8,-408.2 428,-396 469.96,-372.94 517.98,-346.37 550.58,-328.31"/>
<polygon fill="black" stroke="black" points="552.3,-331.36 559.35,-323.45 548.91,-325.23 552.3,-331.36"/>
</g>
<!-- n6&#45;&gt;n2 -->
<g id="edge19" class="edge">
<title>n6&#45;&gt;n2</title>
<path fill="none" stroke="black" d="M217.3,-438.96C134.94,-424.7 38,-390.24 38,-307 38,-307 38,-307 38,-161 38,-37.46 237.62,-20.34 323.97,-18.72"/>
<polygon fill="black" stroke="black" points="324.2,-22.22 334.16,-18.59 324.11,-15.22 324.2,-22.22"/>
</g>
<!-- n4&#45;&gt;n6 -->
<g id="edge2" class="edge">
<title>n4&#45;&gt;n6</title>
<path fill="none" stroke="black" d="M359.04,-504.05C354.79,-496.01 349.61,-486.2 344.86,-477.23"/>
<polygon fill="black" stroke="black" points="347.9,-475.48 340.13,-468.28 341.71,-478.75 347.9,-475.48"/>
</g>
<!-- n4&#45;&gt;n5 -->
<g id="edge7" class="edge">
<title>n4&#45;&gt;n5</title>
<path fill="none" stroke="black" d="M416.67,-505.82C438.89,-497.21 464.53,-484.76 484,-468 528.2,-429.96 560.98,-368.83 577.34,-333.86"/>
<polygon fill="black" stroke="black" points="580.73,-334.87 581.7,-324.32 574.36,-331.96 580.73,-334.87"/>
</g>
<!-- n4&#45;&gt;n2 -->
<g id="edge20" class="edge">
<title>n4&#45;&gt;n2</title>
<path fill="none" stroke="black" d="M295.73,-508.32C188.56,-487.42 0,-441.75 0,-379 0,-379 0,-379 0,-161 0,-115.19 14.33,-98.07 52,-72 95.62,-41.81 251.32,-26.96 324.48,-21.52"/>
<polygon fill="black" stroke="black" points="324.94,-25 334.66,-20.79 324.43,-18.02 324.94,-25"/>
</g>
<!-- n12 -->
<g id="node6" class="node">
<title>n12</title>
<ellipse fill="none" stroke="red" cx="643" cy="-234" rx="71.49" ry="18"/>
<text text-anchor="middle" x="643" y="-230.3" font-family="Times-Roman" font-size="14.00">node_dns127</text>
</g>
<!-- n5&#45;&gt;n12 -->
<g id="edge8" class="edge">
<title>n5&#45;&gt;n12</title>
<path fill="none" stroke="black" d="M602.07,-288.05C608.57,-279.63 616.56,-269.28 623.74,-259.97"/>
<polygon fill="black" stroke="black" points="626.71,-261.84 630.05,-251.79 621.17,-257.57 626.71,-261.84"/>
</g>
<!-- n8 -->
<g id="node9" class="node">
<title>n8</title>
<ellipse fill="none" stroke="red" cx="441" cy="-234" rx="112.38" ry="18"/>
<text text-anchor="middle" x="441" y="-230.3" font-family="Times-Roman" font-size="14.00">node_nomad_principal</text>
</g>
<!-- n5&#45;&gt;n8 -->
<g id="edge11" class="edge">
<title>n5&#45;&gt;n8</title>
<path fill="none" stroke="black" d="M554.67,-288.76C533.83,-278.9 507.02,-266.22 484.67,-255.65"/>
<polygon fill="black" stroke="black" points="485.93,-252.38 475.4,-251.27 482.94,-258.71 485.93,-252.38"/>
</g>
<!-- n5&#45;&gt;n2 -->
<g id="edge21" class="edge">
<title>n5&#45;&gt;n2</title>
<path fill="none" stroke="black" d="M655.66,-291.94C679.88,-284.09 705.56,-271.64 723,-252 755.36,-215.56 758.59,-189.83 742,-144 727.82,-104.83 718.14,-92.71 682,-72 634.7,-44.9 475.59,-28.41 401.53,-22.04"/>
<polygon fill="black" stroke="black" points="401.5,-18.52 391.24,-21.17 400.91,-25.5 401.5,-18.52"/>
</g>
<!-- n11 -->
<g id="node7" class="node">
<title>n11</title>
<ellipse fill="none" stroke="red" cx="622" cy="-162" rx="94.48" ry="18"/>
<text text-anchor="middle" x="622" y="-158.3" font-family="Times-Roman" font-size="14.00">node_dns_iptables</text>
</g>
<!-- n12&#45;&gt;n11 -->
<g id="edge9" class="edge">
<title>n12&#45;&gt;n11</title>
<path fill="none" stroke="black" d="M637.81,-215.7C635.47,-207.9 632.65,-198.51 630.05,-189.83"/>
<polygon fill="black" stroke="black" points="633.36,-188.68 627.13,-180.1 626.65,-190.69 633.36,-188.68"/>
</g>
<!-- n12&#45;&gt;n2 -->
<g id="edge22" class="edge">
<title>n12&#45;&gt;n2</title>
<path fill="none" stroke="black" d="M680.89,-218.5C697.58,-209.99 715.52,-197.42 725,-180 732.65,-165.95 733.85,-157.33 725,-144 653.08,-35.68 479.81,-19.91 401.99,-18.5"/>
<polygon fill="black" stroke="black" points="401.7,-15 391.66,-18.39 401.62,-22 401.7,-15"/>
</g>
<!-- n10 -->
<g id="node10" class="node">
<title>n10</title>
<ellipse fill="none" stroke="red" cx="363" cy="-90" rx="108.58" ry="18"/>
<text text-anchor="middle" x="363" y="-86.3" font-family="Times-Roman" font-size="14.00">node_nomad_satellite</text>
</g>
<!-- n11&#45;&gt;n10 -->
<g id="edge13" class="edge">
<title>n11&#45;&gt;n10</title>
<path fill="none" stroke="black" d="M569.9,-146.92C528.7,-135.78 470.99,-120.19 426.98,-108.29"/>
<polygon fill="black" stroke="black" points="427.81,-104.89 417.25,-105.66 425.99,-111.65 427.81,-104.89"/>
</g>
<!-- n11&#45;&gt;n2 -->
<g id="edge23" class="edge">
<title>n11&#45;&gt;n2</title>
<path fill="none" stroke="black" d="M605.45,-144.14C585.38,-124.49 549.77,-92.17 514,-72 477.09,-51.19 430.58,-36.37 398.99,-27.78"/>
<polygon fill="black" stroke="black" points="399.86,-24.39 389.29,-25.21 398.06,-31.16 399.86,-24.39"/>
</g>
<!-- n13 -->
<g id="node8" class="node">
<title>n13</title>
<ellipse fill="none" stroke="red" cx="288" cy="-162" rx="145.67" ry="18"/>
<text text-anchor="middle" x="288" y="-158.3" font-family="Times-Roman" font-size="14.00">node_nomad_bootstrap_token</text>
</g>
<!-- n13&#45;&gt;n10 -->
<g id="edge14" class="edge">
<title>n13&#45;&gt;n10</title>
<path fill="none" stroke="black" d="M306.16,-144.05C315.55,-135.28 327.18,-124.43 337.47,-114.83"/>
<polygon fill="black" stroke="black" points="340.09,-117.17 345.01,-107.79 335.31,-112.05 340.09,-117.17"/>
</g>
<!-- n13&#45;&gt;n2 -->
<g id="edge24" class="edge">
<title>n13&#45;&gt;n2</title>
<path fill="none" stroke="black" d="M269.41,-143.93C251.66,-125.51 229.71,-95.63 245,-72 262.58,-44.83 297.75,-31.46 325.15,-24.95"/>
<polygon fill="black" stroke="black" points="326.17,-28.31 335.21,-22.78 324.7,-21.47 326.17,-28.31"/>
</g>
<!-- n8&#45;&gt;n13 -->
<g id="edge10" class="edge">
<title>n8&#45;&gt;n13</title>
<path fill="none" stroke="black" d="M405.51,-216.76C384.02,-206.93 356.4,-194.29 333.33,-183.74"/>
<polygon fill="black" stroke="black" points="334.64,-180.49 324.09,-179.51 331.73,-186.85 334.64,-180.49"/>
</g>
<!-- n8&#45;&gt;n10 -->
<g id="edge15" class="edge">
<title>n8&#45;&gt;n10</title>
<path fill="none" stroke="black" d="M446.15,-215.77C450.75,-196.94 455.07,-166.47 443,-144 435.83,-130.64 423.64,-120.09 410.92,-112.02"/>
<polygon fill="black" stroke="black" points="412.48,-108.88 402.08,-106.84 408.94,-114.92 412.48,-108.88"/>
</g>
<!-- n8&#45;&gt;n2 -->
<g id="edge25" class="edge">
<title>n8&#45;&gt;n2</title>
<path fill="none" stroke="black" d="M453.21,-216.06C473.91,-185.07 510.89,-118.18 481,-72 463.42,-44.83 428.25,-31.46 400.85,-24.95"/>
<polygon fill="black" stroke="black" points="401.3,-21.47 390.79,-22.78 399.83,-28.31 401.3,-21.47"/>
</g>
<!-- n10&#45;&gt;n2 -->
<g id="edge26" class="edge">
<title>n10&#45;&gt;n2</title>
<path fill="none" stroke="black" d="M363,-71.7C363,-63.98 363,-54.71 363,-46.11"/>
<polygon fill="black" stroke="black" points="366.5,-46.1 363,-36.1 359.5,-46.1 366.5,-46.1"/>
</g>
<!-- n9&#45;&gt;n8 -->
<g id="edge12" class="edge">
<title>n9&#45;&gt;n8</title>
<path fill="none" stroke="black" d="M321.61,-288.23C343.77,-278.35 371.97,-265.78 395.4,-255.33"/>
<polygon fill="black" stroke="black" points="397.07,-258.42 404.78,-251.15 394.22,-252.02 397.07,-258.42"/>
</g>
<!-- n9&#45;&gt;n2 -->
<g id="edge27" class="edge">
<title>n9&#45;&gt;n2</title>
<path fill="none" stroke="black" d="M246.26,-288.36C191.68,-261.74 100.59,-206.19 133,-144 171.18,-70.73 271.11,-38.49 325.84,-25.95"/>
<polygon fill="black" stroke="black" points="326.81,-29.32 335.83,-23.77 325.32,-22.49 326.81,-29.32"/>
</g>
</g>
</svg>
