<?xml version="1.0" encoding="UTF-8" standalone="no"?>
<!DOCTYPE svg PUBLIC "-//W3C//DTD SVG 1.1//EN"
 "http://www.w3.org/Graphics/SVG/1.1/DTD/svg11.dtd">
<!-- Generated by graphviz version 2.44.0 (0)
 -->
<!-- Title: G Pages: 1 -->
<svg width="547pt" height="332pt"
 viewBox="0.00 0.00 547.03 332.00" xmlns="http://www.w3.org/2000/svg" xmlns:xlink="http://www.w3.org/1999/xlink">
<g id="graph0" class="graph" transform="scale(1 1) rotate(0) translate(4 328)">
<title>G</title>
<polygon fill="white" stroke="transparent" points="-4,4 -4,-328 543.03,-328 543.03,4 -4,4"/>
<!-- n3 -->
<g id="node1" class="node">
<title>n3</title>
<ellipse fill="none" stroke="red" cx="69.54" cy="-90" rx="69.59" ry="18"/>
<text text-anchor="middle" x="69.54" y="-86.3" font-family="Times-Roman" font-size="14.00">node_ca_gen</text>
</g>
<!-- n2 -->
<g id="node7" class="node">
<title>n2</title>
<ellipse fill="none" stroke="red" cx="372.54" cy="-18" rx="28.7" ry="18"/>
<text text-anchor="middle" x="372.54" y="-14.3" font-family="Times-Roman" font-size="14.00">root</text>
</g>
<!-- n3&#45;&gt;n2 -->
<g id="edge5" class="edge">
<title>n3&#45;&gt;n2</title>
<path fill="none" stroke="black" d="M119.58,-77.44C180.53,-63.36 282.04,-39.91 336.08,-27.42"/>
<polygon fill="black" stroke="black" points="336.96,-30.81 345.91,-25.15 335.38,-23.99 336.96,-30.81"/>
</g>
<!-- n4 -->
<g id="node2" class="node">
<title>n4</title>
<ellipse fill="none" stroke="red" cx="428.54" cy="-306" rx="110.48" ry="18"/>
<text text-anchor="middle" x="428.54" y="-302.3" font-family="Times-Roman" font-size="14.00">node_consul_principal</text>
</g>
<!-- n5 -->
<g id="node3" class="node">
<title>n5</title>
<ellipse fill="none" stroke="red" cx="361.54" cy="-234" rx="106.68" ry="18"/>
<text text-anchor="middle" x="361.54" y="-230.3" font-family="Times-Roman" font-size="14.00">node_consul_satellite</text>
</g>
<!-- n4&#45;&gt;n5 -->
<g id="edge1" class="edge">
<title>n4&#45;&gt;n5</title>
<path fill="none" stroke="black" d="M412.32,-288.05C404.14,-279.5 394.05,-268.96 385.03,-259.54"/>
<polygon fill="black" stroke="black" points="387.52,-257.08 378.08,-252.28 382.46,-261.92 387.52,-257.08"/>
</g>
<!-- n4&#45;&gt;n2 -->
<g id="edge6" class="edge">
<title>n4&#45;&gt;n2</title>
<path fill="none" stroke="black" d="M450.18,-288.34C460.58,-278.94 471.97,-266.24 477.54,-252 495.04,-207.3 483.1,-191.68 477.54,-144 473.74,-111.34 479.92,-98.56 460.54,-72 447.12,-53.6 425.18,-40.36 406.57,-31.72"/>
<polygon fill="black" stroke="black" points="407.77,-28.43 397.2,-27.62 404.96,-34.84 407.77,-28.43"/>
</g>
<!-- n8 -->
<g id="node4" class="node">
<title>n8</title>
<ellipse fill="none" stroke="red" cx="137.54" cy="-162" rx="71.49" ry="18"/>
<text text-anchor="middle" x="137.54" y="-158.3" font-family="Times-Roman" font-size="14.00">node_dns127</text>
</g>
<!-- n5&#45;&gt;n8 -->
<g id="edge2" class="edge">
<title>n5&#45;&gt;n8</title>
<path fill="none" stroke="black" d="M313.21,-217.9C276.97,-206.57 227.4,-191.08 190.16,-179.44"/>
<polygon fill="black" stroke="black" points="191.08,-176.06 180.49,-176.42 188.99,-182.74 191.08,-176.06"/>
</g>
<!-- n6 -->
<g id="node5" class="node">
<title>n6</title>
<ellipse fill="none" stroke="red" cx="339.54" cy="-162" rx="112.38" ry="18"/>
<text text-anchor="middle" x="339.54" y="-158.3" font-family="Times-Roman" font-size="14.00">node_nomad_principal</text>
</g>
<!-- n5&#45;&gt;n6 -->
<g id="edge3" class="edge">
<title>n5&#45;&gt;n6</title>
<path fill="none" stroke="black" d="M356.11,-215.7C353.65,-207.9 350.7,-198.51 347.98,-189.83"/>
<polygon fill="black" stroke="black" points="351.26,-188.59 344.92,-180.1 344.58,-190.69 351.26,-188.59"/>
</g>
<!-- n5&#45;&gt;n2 -->
<g id="edge7" class="edge">
<title>n5&#45;&gt;n2</title>
<path fill="none" stroke="black" d="M412.48,-218.11C430.95,-209.98 449.88,-197.81 460.54,-180 476.72,-152.99 440.77,-73.81 439.54,-72 429.83,-57.57 414.95,-45.24 401.68,-36.11"/>
<polygon fill="black" stroke="black" points="403.54,-33.14 393.26,-30.58 399.7,-38.99 403.54,-33.14"/>
</g>
<!-- n8&#45;&gt;n2 -->
<g id="edge8" class="edge">
<title>n8&#45;&gt;n2</title>
<path fill="none" stroke="black" d="M142.48,-143.94C149.18,-123.8 163.09,-90.68 186.54,-72 229.43,-37.84 293.28,-25.7 333.9,-21.38"/>
<polygon fill="black" stroke="black" points="334.33,-24.85 343.95,-20.42 333.67,-17.89 334.33,-24.85"/>
</g>
<!-- n7 -->
<g id="node6" class="node">
<title>n7</title>
<ellipse fill="none" stroke="red" cx="304.54" cy="-90" rx="108.58" ry="18"/>
<text text-anchor="middle" x="304.54" y="-86.3" font-family="Times-Roman" font-size="14.00">node_nomad_satellite</text>
</g>
<!-- n6&#45;&gt;n7 -->
<g id="edge4" class="edge">
<title>n6&#45;&gt;n7</title>
<path fill="none" stroke="black" d="M330.89,-143.7C326.91,-135.73 322.09,-126.1 317.68,-117.26"/>
<polygon fill="black" stroke="black" points="320.7,-115.48 313.1,-108.1 314.44,-118.61 320.7,-115.48"/>
</g>
<!-- n6&#45;&gt;n2 -->
<g id="edge9" class="edge">
<title>n6&#45;&gt;n2</title>
<path fill="none" stroke="black" d="M380.92,-145.04C396.91,-136.6 413.51,-124.49 422.54,-108 430.23,-93.97 428.45,-86.87 422.54,-72 417.46,-59.2 407.65,-47.7 398.06,-38.71"/>
<polygon fill="black" stroke="black" points="400.33,-36.04 390.51,-32.06 395.7,-41.3 400.33,-36.04"/>
</g>
<!-- n7&#45;&gt;n2 -->
<g id="edge10" class="edge">
<title>n7&#45;&gt;n2</title>
<path fill="none" stroke="black" d="M321,-72.05C330.03,-62.77 341.31,-51.15 351.03,-41.15"/>
<polygon fill="black" stroke="black" points="353.62,-43.5 358.08,-33.89 348.6,-38.62 353.62,-43.5"/>
</g>
</g>
</svg>
