<svg xmlns="http://www.w3.org/2000/svg" xmlns:xlink="http://www.w3.org/1999/xlink" xmlns:lucid="lucid" width="1690.4" height="720"><g transform="translate(-160 -120)" lucid:page-tab-id="0_0"><path d="M0 0h1870.4v1323.2H0z" fill="#fff"/><path d="M380 140h930v680H380z" stroke="#000" stroke-width="2" fill="#ffeca9"/><path d="M600 200h160v560H600z" stroke="#000" stroke-opacity="0" stroke-width="2" fill="#5abaa7"/><path d="M840 200h160v560H840z" stroke="#000" stroke-opacity="0" stroke-width="2" fill="#99d2f2"/><path d="M1080 200h160v560h-160z" stroke="#000" stroke-opacity="0" stroke-width="2" fill="#ffbbb1"/><path d="M612.5 320h130v120h-130z" stroke="#000" stroke-width="2" fill="#d1bcd2"/><use xlink:href="#a" transform="matrix(1,0,0,1,617.5,325) translate(28.574999999999996 48.775)"/><use xlink:href="#b" transform="matrix(1,0,0,1,617.5,325) translate(10 70.375)"/><path d="M860 601.6h130v120H860z" stroke="#000" stroke-width="2" fill="#fcc438"/><use xlink:href="#c" transform="matrix(1,0,0,1,865,606.5999999999999) translate(25.075000000000003 47.8)"/><use xlink:href="#d" transform="matrix(1,0,0,1,865,606.5999999999999) translate(0 69.4)"/><path d="M852.5 320h130v120h-130z" stroke="#000" stroke-width="2" fill="#d1bcd2"/><use xlink:href="#e" transform="matrix(1,0,0,1,857.5,325) translate(28.574999999999996 48.775)"/><use xlink:href="#f" transform="matrix(1,0,0,1,857.5,325) translate(5 70.375)"/><path d="M615 601.6h130v120H615z" stroke="#000" stroke-width="2" fill="#fcc438"/><use xlink:href="#g" transform="matrix(1,0,0,1,620,606.5999999999999) translate(25.075000000000003 48.775)"/><use xlink:href="#h" transform="matrix(1,0,0,1,620,606.5999999999999) translate(5 70.375)"/><path d="M1097.5 320h130v120h-130z" stroke="#000" stroke-width="2" fill="#d1bcd2"/><use xlink:href="#i" transform="matrix(1,0,0,1,1102.5,325) translate(29.074999999999996 48.775)"/><use xlink:href="#j" transform="matrix(1,0,0,1,1102.5,325) translate(5 70.375)"/><path d="M1100 601.6h130v120h-130z" stroke="#000" stroke-width="2" fill="#fcc438"/><use xlink:href="#k" transform="matrix(1,0,0,1,1105,606.5999999999999) translate(25.575000000000003 47.8)"/><use xlink:href="#l" transform="matrix(1,0,0,1,1105,606.5999999999999) translate(0 69.4)"/><path d="M600 200h80v40h-80z" stroke="#000" stroke-opacity="0" stroke-width="2" fill="#fff" fill-opacity="0"/><use xlink:href="#m" transform="matrix(1,0,0,1,605,205) translate(5.549999999999997 18.15)"/><path d="M840 200h80v40h-80z" stroke="#000" stroke-opacity="0" stroke-width="2" fill="#fff" fill-opacity="0"/><use xlink:href="#n" transform="matrix(1,0,0,1,845,205) translate(5.549999999999997 18.15)"/><path d="M1080 200h80v40h-80z" stroke="#000" stroke-opacity="0" stroke-width="2" fill="#fff" fill-opacity="0"/><use xlink:href="#o" transform="matrix(1,0,0,1,1085,205) translate(5.074999999999996 18.15)"/><path d="M380 140h160v40H380z" stroke="#000" stroke-opacity="0" stroke-width="2" fill="#fff" fill-opacity="0"/><use xlink:href="#p" transform="matrix(1,0,0,1,385,145) translate(56.525 18.15)"/><path d="M404 350h100v60H404z" stroke="#000" stroke-width="2" fill="#fff"/><use xlink:href="#q" transform="matrix(1,0,0,1,409,355) translate(9.774999999999999 30.025)"/><path d="M180 350h128v50H180z" stroke="#000" stroke-width="2" fill="#fff"/><use xlink:href="#r" transform="matrix(1,0,0,1,185,355) translate(44.5 24.4)"/><path d="M402 375h-74.5" stroke="#000" stroke-width="2" fill="none"/><path d="M403 376h-1.03v-2H403z"/><path d="M312.24 375l14.26-4.64v9.28z" stroke="#000" stroke-width="2"/><path d="M390 500h128v60H390z" stroke="#000" stroke-width="2" fill="#fff"/><use xlink:href="#s" transform="matrix(1,0,0,1,395,505) translate(12.574999999999996 17.525)"/><use xlink:href="#t" transform="matrix(1,0,0,1,395,505) translate(32.05 39.125)"/><path d="M1420 240h180v60h-180z" stroke="#000" stroke-width="2" fill="#fff"/><use xlink:href="#u" transform="matrix(1,0,0,1,1425,245) translate(42.074999999999996 17.525)"/><use xlink:href="#v" transform="matrix(1,0,0,1,1425,245) translate(61.55 39.125)"/><path d="M677.5 318v-48h723" stroke="#000" stroke-width="2" fill="none"/><path d="M678.5 319h-2v-1.03h2z"/><path d="M1415.76 270l-14.26 4.64v-9.28z" stroke="#000" stroke-width="2"/><path d="M917.5 318v-48h483" stroke="#000" stroke-width="2" fill="none"/><path d="M918.5 319h-2v-1.03h2z"/><path d="M1415.76 270l-14.26 4.64v-9.28z" stroke="#000" stroke-width="2"/><path d="M1162.5 318v-48h238" stroke="#000" stroke-width="2" fill="none"/><path d="M1163.5 319h-2v-1.03h2z"/><path d="M1415.76 270l-14.26 4.64v-9.28z" stroke="#000" stroke-width="2"/><path d="M1165 599.6V530H537.5" stroke="#000" stroke-width="2" fill="none"/><path d="M1166 600.6h-2v-1.03h2z"/><path d="M522.24 530l14.26-4.64v9.28z" stroke="#000" stroke-width="2"/><path d="M925 599.6V530H537.5" stroke="#000" stroke-width="2" fill="none"/><path d="M926 600.6h-2v-1.03h2z"/><path d="M522.24 530l14.26-4.64v9.28z" stroke="#000" stroke-width="2"/><path d="M680 599.6V530H537.5" stroke="#000" stroke-width="2" fill="none"/><path d="M681 600.6h-2v-1.03h2z"/><path d="M522.24 530l14.26-4.64v9.28z" stroke="#000" stroke-width="2"/><path d="M454 498v-68.5" stroke="#000" stroke-width="2" fill="none"/><path d="M455 499h-2v-1.03h2z"/><path d="M454 414.24l4.64 14.26h-9.28z" stroke="#000" stroke-width="2"/><path d="M1320 240h60v40h-60z" stroke="#000" stroke-opacity="0" stroke-width="2" fill="#fff" fill-opacity="0"/><use xlink:href="#w" transform="matrix(1,0,0,1,1325,245) translate(4.524999999999999 18.15)"/><path d="M540 500h60v40h-60z" stroke="#000" stroke-opacity="0" stroke-width="2" fill="#fff" fill-opacity="0"/><use xlink:href="#w" transform="matrix(1,0,0,1,545,505) translate(4.524999999999999 18.15)"/><path d="M1695.2 440h120v40h-120z" stroke="#000" stroke-width="2"/><use xlink:href="#x" transform="matrix(1,0,0,1,1700.1999999999998,445) translate(24.525 18.15)"/><path d="M1602 270h58.5" stroke="#000" stroke-width="2" fill="none"/><path d="M1602.03 271H1601v-2h1.03z"/><path d="M1675.76 270l-14.26 4.64v-9.28z" stroke="#000" stroke-width="2"/><path d="M1680 240h150.4v60H1680z" stroke="#000" stroke-width="2" fill="#fff"/><g><use xlink:href="#y" transform="matrix(1,0,0,1,1685,245) translate(25.574999999999996 30.025)"/></g><path d="M1755.2 302v118.5" stroke="#000" stroke-width="2" fill="none"/><path d="M1756.2 302.03h-2V301h2z"/><path d="M1755.2 435.76l-4.64-14.26h9.28z" stroke="#000" stroke-width="2"/><defs><path d="M115-194c55 1 70 41 70 98S169 2 115 4C84 4 66-9 55-30l1 105H24l-1-265h31l2 30c10-21 28-34 59-34zm-8 174c40 0 45-34 45-75s-6-73-45-74c-42 0-51 32-51 76 0 43 10 73 51 73" id="z"/><path d="M84 4C-5 8 30-112 23-190h32v120c0 31 7 50 39 49 72-2 45-101 50-169h31l1 190h-30c-1-10 1-25-2-33-11 22-28 36-60 37" id="A"/><path d="M115-194c53 0 69 39 70 98 0 66-23 100-70 100C84 3 66-7 56-30L54 0H23l1-261h32v101c10-23 28-34 59-34zm-8 174c40 0 45-34 45-75 0-40-5-75-45-74-42 0-51 32-51 76 0 43 10 73 51 73" id="B"/><path d="M24 0v-261h32V0H24" id="C"/><path d="M24-231v-30h32v30H24zM24 0v-190h32V0H24" id="D"/><path d="M96-169c-40 0-48 33-48 73s9 75 48 75c24 0 41-14 43-38l32 2c-6 37-31 61-74 61-59 0-76-41-82-99-10-93 101-131 147-64 4 7 5 14 7 22l-32 3c-4-21-16-35-41-35" id="E"/><path d="M16-82v-28h88v28H16" id="F"/><path d="M141-36C126-15 110 5 73 4 37 3 15-17 15-53c-1-64 63-63 125-63 3-35-9-54-41-54-24 1-41 7-42 31l-33-3c5-37 33-52 76-52 45 0 72 20 72 64v82c-1 20 7 32 28 27v20c-31 9-61-2-59-35zM48-53c0 20 12 33 32 33 41-3 63-29 60-74-43 2-92-5-92 41" id="G"/><g id="a"><use transform="matrix(0.05,0,0,0.05,0,0)" xlink:href="#z"/><use transform="matrix(0.05,0,0,0.05,10,0)" xlink:href="#A"/><use transform="matrix(0.05,0,0,0.05,20,0)" xlink:href="#B"/><use transform="matrix(0.05,0,0,0.05,30,0)" xlink:href="#C"/><use transform="matrix(0.05,0,0,0.05,33.95,0)" xlink:href="#D"/><use transform="matrix(0.05,0,0,0.05,37.900000000000006,0)" xlink:href="#E"/><use transform="matrix(0.05,0,0,0.05,46.900000000000006,0)" xlink:href="#F"/><use transform="matrix(0.05,0,0,0.05,52.85,0)" xlink:href="#G"/></g><path d="M27 0v-27h64v-190l-56 39v-29l58-41h29v221h61V0H27" id="H"/><path d="M101-251c68 0 85 55 85 127S166 4 100 4C33 4 14-52 14-124c0-73 17-127 87-127zm-1 229c47 0 54-49 54-102s-4-102-53-102c-51 0-55 48-55 102 0 53 5 102 54 102" id="I"/><path d="M33 0v-38h34V0H33" id="J"/><path d="M126-127c33 6 58 20 58 59 0 88-139 92-164 29-3-8-5-16-6-25l32-3c6 27 21 44 54 44 32 0 52-15 52-46 0-38-36-46-79-43v-28c39 1 72-4 72-42 0-27-17-43-46-43-28 0-47 15-49 41l-32-3c6-42 35-63 81-64 48-1 79 21 79 65 0 36-21 52-52 59" id="K"/><path d="M54-142c48-35 137-8 131 61C196 18 31 33 14-55l32-4c7 23 22 37 52 37 35-1 51-22 54-58 4-55-73-65-99-34H22l8-134h141v27H59" id="L"/><path d="M0 4l72-265h28L28 4H0" id="M"/><path d="M101-251c82-7 93 87 43 132L82-64C71-53 59-42 53-27h129V0H18c2-99 128-94 128-182 0-28-16-43-45-43s-46 15-49 41l-32-3c6-41 34-60 81-64" id="N"/><g id="b"><use transform="matrix(0.05,0,0,0.05,0,0)" xlink:href="#H"/><use transform="matrix(0.05,0,0,0.05,10,0)" xlink:href="#I"/><use transform="matrix(0.05,0,0,0.05,20,0)" xlink:href="#J"/><use transform="matrix(0.05,0,0,0.05,25,0)" xlink:href="#K"/><use transform="matrix(0.05,0,0,0.05,35,0)" xlink:href="#L"/><use transform="matrix(0.05,0,0,0.05,45,0)" xlink:href="#J"/><use transform="matrix(0.05,0,0,0.05,50,0)" xlink:href="#I"/><use transform="matrix(0.05,0,0,0.05,60,0)" xlink:href="#J"/><use transform="matrix(0.05,0,0,0.05,65,0)" xlink:href="#I"/><use transform="matrix(0.05,0,0,0.05,75,0)" xlink:href="#M"/><use transform="matrix(0.05,0,0,0.05,80,0)" xlink:href="#N"/><use transform="matrix(0.05,0,0,0.05,90,0)" xlink:href="#I"/></g><path d="M114-163C36-179 61-72 57 0H25l-1-190h30c1 12-1 29 2 39 6-27 23-49 58-41v29" id="O"/><path d="M108 0H70L1-190h34L89-25l56-165h34" id="P"/><path d="M59-47c-2 24 18 29 38 22v24C64 9 27 4 27-40v-127H5v-23h24l9-43h21v43h35v23H59v120" id="Q"/><path d="M100-194c63 0 86 42 84 106H49c0 40 14 67 53 68 26 1 43-12 49-29l28 8c-11 28-37 45-77 45C44 4 14-33 15-96c1-61 26-98 85-98zm52 81c6-60-76-77-97-28-3 7-6 17-6 28h103" id="R"/><g id="c"><use transform="matrix(0.05,0,0,0.05,0,0)" xlink:href="#z"/><use transform="matrix(0.05,0,0,0.05,10,0)" xlink:href="#O"/><use transform="matrix(0.05,0,0,0.05,15.949999999999998,0)" xlink:href="#D"/><use transform="matrix(0.05,0,0,0.05,19.9,0)" xlink:href="#P"/><use transform="matrix(0.05,0,0,0.05,28.899999999999995,0)" xlink:href="#G"/><use transform="matrix(0.05,0,0,0.05,38.9,0)" xlink:href="#Q"/><use transform="matrix(0.05,0,0,0.05,43.9,0)" xlink:href="#R"/><use transform="matrix(0.05,0,0,0.05,53.900000000000006,0)" xlink:href="#F"/><use transform="matrix(0.05,0,0,0.05,59.85,0)" xlink:href="#B"/></g><path d="M134-131c28 9 52 24 51 62-1 50-34 73-85 73S17-19 16-69c0-36 21-54 49-61-75-25-45-126 34-121 46 3 78 18 79 63 0 33-17 51-44 57zm-34-11c31 1 46-15 46-44 0-28-17-43-47-42-29 0-46 13-45 42 1 28 16 44 46 44zm1 122c35 0 51-18 51-52 0-30-18-46-53-46-33 0-51 17-51 47 0 34 19 51 53 51" id="S"/><g id="d"><use transform="matrix(0.05,0,0,0.05,0,0)" xlink:href="#H"/><use transform="matrix(0.05,0,0,0.05,10,0)" xlink:href="#I"/><use transform="matrix(0.05,0,0,0.05,20,0)" xlink:href="#J"/><use transform="matrix(0.05,0,0,0.05,25,0)" xlink:href="#K"/><use transform="matrix(0.05,0,0,0.05,35,0)" xlink:href="#L"/><use transform="matrix(0.05,0,0,0.05,45,0)" xlink:href="#J"/><use transform="matrix(0.05,0,0,0.05,50,0)" xlink:href="#H"/><use transform="matrix(0.05,0,0,0.05,60,0)" xlink:href="#N"/><use transform="matrix(0.05,0,0,0.05,70,0)" xlink:href="#S"/><use transform="matrix(0.05,0,0,0.05,80,0)" xlink:href="#J"/><use transform="matrix(0.05,0,0,0.05,85,0)" xlink:href="#I"/><use transform="matrix(0.05,0,0,0.05,95,0)" xlink:href="#M"/><use transform="matrix(0.05,0,0,0.05,100,0)" xlink:href="#N"/><use transform="matrix(0.05,0,0,0.05,110,0)" xlink:href="#I"/></g><g id="e"><use transform="matrix(0.05,0,0,0.05,0,0)" xlink:href="#z"/><use transform="matrix(0.05,0,0,0.05,10,0)" xlink:href="#A"/><use transform="matrix(0.05,0,0,0.05,20,0)" xlink:href="#B"/><use transform="matrix(0.05,0,0,0.05,30,0)" xlink:href="#C"/><use transform="matrix(0.05,0,0,0.05,33.95,0)" xlink:href="#D"/><use transform="matrix(0.05,0,0,0.05,37.900000000000006,0)" xlink:href="#E"/><use transform="matrix(0.05,0,0,0.05,46.900000000000006,0)" xlink:href="#F"/><use transform="matrix(0.05,0,0,0.05,52.85,0)" xlink:href="#B"/></g><path d="M110-160c48 1 74 30 74 79 0 53-28 85-80 85-65 0-83-55-86-122-5-90 50-162 133-122 14 7 22 21 27 39l-31 6c-5-40-67-38-82-6-9 19-15 44-15 74 11-20 30-34 60-33zm-7 138c34 0 49-23 49-58s-16-56-50-56c-29 0-50 16-49 49 1 36 15 65 50 65" id="T"/><g id="f"><use transform="matrix(0.05,0,0,0.05,0,0)" xlink:href="#H"/><use transform="matrix(0.05,0,0,0.05,10,0)" xlink:href="#I"/><use transform="matrix(0.05,0,0,0.05,20,0)" xlink:href="#J"/><use transform="matrix(0.05,0,0,0.05,25,0)" xlink:href="#K"/><use transform="matrix(0.05,0,0,0.05,35,0)" xlink:href="#L"/><use transform="matrix(0.05,0,0,0.05,45,0)" xlink:href="#J"/><use transform="matrix(0.05,0,0,0.05,50,0)" xlink:href="#H"/><use transform="matrix(0.05,0,0,0.05,60,0)" xlink:href="#T"/><use transform="matrix(0.05,0,0,0.05,70,0)" xlink:href="#J"/><use transform="matrix(0.05,0,0,0.05,75,0)" xlink:href="#I"/><use transform="matrix(0.05,0,0,0.05,85,0)" xlink:href="#M"/><use transform="matrix(0.05,0,0,0.05,90,0)" xlink:href="#N"/><use transform="matrix(0.05,0,0,0.05,100,0)" xlink:href="#I"/></g><g id="g"><use transform="matrix(0.05,0,0,0.05,0,0)" xlink:href="#z"/><use transform="matrix(0.05,0,0,0.05,10,0)" xlink:href="#O"/><use transform="matrix(0.05,0,0,0.05,15.949999999999998,0)" xlink:href="#D"/><use transform="matrix(0.05,0,0,0.05,19.9,0)" xlink:href="#P"/><use transform="matrix(0.05,0,0,0.05,28.899999999999995,0)" xlink:href="#G"/><use transform="matrix(0.05,0,0,0.05,38.9,0)" xlink:href="#Q"/><use transform="matrix(0.05,0,0,0.05,43.9,0)" xlink:href="#R"/><use transform="matrix(0.05,0,0,0.05,53.900000000000006,0)" xlink:href="#F"/><use transform="matrix(0.05,0,0,0.05,59.85,0)" xlink:href="#G"/></g><path d="M155-56V0h-30v-56H8v-25l114-167h33v167h35v25h-35zm-30-156c-27 46-58 90-88 131h88v-131" id="U"/><g id="h"><use transform="matrix(0.05,0,0,0.05,0,0)" xlink:href="#H"/><use transform="matrix(0.05,0,0,0.05,10,0)" xlink:href="#I"/><use transform="matrix(0.05,0,0,0.05,20,0)" xlink:href="#J"/><use transform="matrix(0.05,0,0,0.05,25,0)" xlink:href="#K"/><use transform="matrix(0.05,0,0,0.05,35,0)" xlink:href="#L"/><use transform="matrix(0.05,0,0,0.05,45,0)" xlink:href="#J"/><use transform="matrix(0.05,0,0,0.05,50,0)" xlink:href="#T"/><use transform="matrix(0.05,0,0,0.05,60,0)" xlink:href="#U"/><use transform="matrix(0.05,0,0,0.05,70,0)" xlink:href="#J"/><use transform="matrix(0.05,0,0,0.05,75,0)" xlink:href="#I"/><use transform="matrix(0.05,0,0,0.05,85,0)" xlink:href="#M"/><use transform="matrix(0.05,0,0,0.05,90,0)" xlink:href="#N"/><use transform="matrix(0.05,0,0,0.05,100,0)" xlink:href="#I"/></g><g id="i"><use transform="matrix(0.05,0,0,0.05,0,0)" xlink:href="#z"/><use transform="matrix(0.05,0,0,0.05,10,0)" xlink:href="#A"/><use transform="matrix(0.05,0,0,0.05,20,0)" xlink:href="#B"/><use transform="matrix(0.05,0,0,0.05,30,0)" xlink:href="#C"/><use transform="matrix(0.05,0,0,0.05,33.95,0)" xlink:href="#D"/><use transform="matrix(0.05,0,0,0.05,37.900000000000006,0)" xlink:href="#E"/><use transform="matrix(0.05,0,0,0.05,46.900000000000006,0)" xlink:href="#F"/><use transform="matrix(0.05,0,0,0.05,52.85,0)" xlink:href="#E"/></g><g id="j"><use transform="matrix(0.05,0,0,0.05,0,0)" xlink:href="#H"/><use transform="matrix(0.05,0,0,0.05,10,0)" xlink:href="#I"/><use transform="matrix(0.05,0,0,0.05,20,0)" xlink:href="#J"/><use transform="matrix(0.05,0,0,0.05,25,0)" xlink:href="#K"/><use transform="matrix(0.05,0,0,0.05,35,0)" xlink:href="#L"/><use transform="matrix(0.05,0,0,0.05,45,0)" xlink:href="#J"/><use transform="matrix(0.05,0,0,0.05,50,0)" xlink:href="#K"/><use transform="matrix(0.05,0,0,0.05,60,0)" xlink:href="#N"/><use transform="matrix(0.05,0,0,0.05,70,0)" xlink:href="#J"/><use transform="matrix(0.05,0,0,0.05,75,0)" xlink:href="#I"/><use transform="matrix(0.05,0,0,0.05,85,0)" xlink:href="#M"/><use transform="matrix(0.05,0,0,0.05,90,0)" xlink:href="#N"/><use transform="matrix(0.05,0,0,0.05,100,0)" xlink:href="#I"/></g><g id="k"><use transform="matrix(0.05,0,0,0.05,0,0)" xlink:href="#z"/><use transform="matrix(0.05,0,0,0.05,10,0)" xlink:href="#O"/><use transform="matrix(0.05,0,0,0.05,15.949999999999998,0)" xlink:href="#D"/><use transform="matrix(0.05,0,0,0.05,19.9,0)" xlink:href="#P"/><use transform="matrix(0.05,0,0,0.05,28.899999999999995,0)" xlink:href="#G"/><use transform="matrix(0.05,0,0,0.05,38.9,0)" xlink:href="#Q"/><use transform="matrix(0.05,0,0,0.05,43.9,0)" xlink:href="#R"/><use transform="matrix(0.05,0,0,0.05,53.900000000000006,0)" xlink:href="#F"/><use transform="matrix(0.05,0,0,0.05,59.85,0)" xlink:href="#E"/></g><g id="l"><use transform="matrix(0.05,0,0,0.05,0,0)" xlink:href="#H"/><use transform="matrix(0.05,0,0,0.05,10,0)" xlink:href="#I"/><use transform="matrix(0.05,0,0,0.05,20,0)" xlink:href="#J"/><use transform="matrix(0.05,0,0,0.05,25,0)" xlink:href="#K"/><use transform="matrix(0.05,0,0,0.05,35,0)" xlink:href="#L"/><use transform="matrix(0.05,0,0,0.05,45,0)" xlink:href="#J"/><use transform="matrix(0.05,0,0,0.05,50,0)" xlink:href="#H"/><use transform="matrix(0.05,0,0,0.05,60,0)" xlink:href="#U"/><use transform="matrix(0.05,0,0,0.05,70,0)" xlink:href="#U"/><use transform="matrix(0.05,0,0,0.05,80,0)" xlink:href="#J"/><use transform="matrix(0.05,0,0,0.05,85,0)" xlink:href="#I"/><use transform="matrix(0.05,0,0,0.05,95,0)" xlink:href="#M"/><use transform="matrix(0.05,0,0,0.05,100,0)" xlink:href="#N"/><use transform="matrix(0.05,0,0,0.05,110,0)" xlink:href="#I"/></g><path d="M209 0H11v-25l151-195H24v-28h176v25L50-27h159V0" id="V"/><path d="M100-194c62-1 85 37 85 99 1 63-27 99-86 99S16-35 15-95c0-66 28-99 85-99zM99-20c44 1 53-31 53-75 0-43-8-75-51-75s-53 32-53 75 10 74 51 75" id="W"/><path d="M117-194c89-4 53 116 60 194h-32v-121c0-31-8-49-39-48C34-167 62-67 57 0H25l-1-190h30c1 10-1 24 2 32 11-22 29-35 61-36" id="X"/><path d="M205 0l-28-72H64L36 0H1l101-248h38L239 0h-34zm-38-99l-47-123c-12 45-31 82-46 123h93" id="Y"/><g id="m"><use transform="matrix(0.05,0,0,0.05,0,0)" xlink:href="#V"/><use transform="matrix(0.05,0,0,0.05,10.950000000000001,0)" xlink:href="#W"/><use transform="matrix(0.05,0,0,0.05,20.950000000000003,0)" xlink:href="#X"/><use transform="matrix(0.05,0,0,0.05,30.950000000000003,0)" xlink:href="#R"/><use transform="matrix(0.05,0,0,0.05,40.95,0)" xlink:href="#F"/><use transform="matrix(0.05,0,0,0.05,46.900000000000006,0)" xlink:href="#Y"/></g><path d="M160-131c35 5 61 23 61 61C221 17 115-2 30 0v-248c76 3 177-17 177 60 0 33-19 50-47 57zm-97-11c50-1 110 9 110-42 0-47-63-36-110-37v79zm0 115c55-2 124 14 124-45 0-56-70-42-124-44v89" id="Z"/><g id="n"><use transform="matrix(0.05,0,0,0.05,0,0)" xlink:href="#V"/><use transform="matrix(0.05,0,0,0.05,10.950000000000001,0)" xlink:href="#W"/><use transform="matrix(0.05,0,0,0.05,20.950000000000003,0)" xlink:href="#X"/><use transform="matrix(0.05,0,0,0.05,30.950000000000003,0)" xlink:href="#R"/><use transform="matrix(0.05,0,0,0.05,40.95,0)" xlink:href="#F"/><use transform="matrix(0.05,0,0,0.05,46.900000000000006,0)" xlink:href="#Z"/></g><path d="M212-179c-10-28-35-45-73-45-59 0-87 40-87 99 0 60 29 101 89 101 43 0 62-24 78-52l27 14C228-24 195 4 139 4 59 4 22-46 18-125c-6-104 99-153 187-111 19 9 31 26 39 46" id="aa"/><g id="o"><use transform="matrix(0.05,0,0,0.05,0,0)" xlink:href="#V"/><use transform="matrix(0.05,0,0,0.05,10.950000000000001,0)" xlink:href="#W"/><use transform="matrix(0.05,0,0,0.05,20.950000000000003,0)" xlink:href="#X"/><use transform="matrix(0.05,0,0,0.05,30.950000000000003,0)" xlink:href="#R"/><use transform="matrix(0.05,0,0,0.05,40.95,0)" xlink:href="#F"/><use transform="matrix(0.05,0,0,0.05,46.900000000000006,0)" xlink:href="#aa"/></g><path d="M137 0h-34L2-248h35l83 218 83-218h36" id="ab"/><path d="M30-248c87 1 191-15 191 75 0 78-77 80-158 76V0H30v-248zm33 125c57 0 124 11 124-50 0-59-68-47-124-48v98" id="ac"/><g id="p"><use transform="matrix(0.05,0,0,0.05,0,0)" xlink:href="#ab"/><use transform="matrix(0.05,0,0,0.05,12,0)" xlink:href="#ac"/><use transform="matrix(0.05,0,0,0.05,24,0)" xlink:href="#aa"/></g><path d="M190 0L58-211 59 0H30v-248h39L202-35l-2-213h31V0h-41" id="ad"/><path d="M127-220V0H93v-220H8v-28h204v28h-85" id="ae"/><path d="M143 4C61 4 22-44 18-125c-5-107 100-154 193-111 17 8 29 25 37 43l-32 9c-13-25-37-40-76-40-61 0-88 39-88 99 0 61 29 100 91 101 35 0 62-11 79-27v-45h-74v-28h105v86C228-13 192 4 143 4" id="af"/><path d="M266 0h-40l-56-210L115 0H75L2-248h35L96-30l15-64 43-154h32l59 218 59-218h35" id="ag"/><g id="q"><use transform="matrix(0.05,0,0,0.05,0,0)" xlink:href="#ad"/><use transform="matrix(0.05,0,0,0.05,12.950000000000001,0)" xlink:href="#Y"/><use transform="matrix(0.05,0,0,0.05,23.6,0)" xlink:href="#ae"/><use transform="matrix(0.05,0,0,0.05,33.550000000000004,0)" xlink:href="#F"/><use transform="matrix(0.05,0,0,0.05,39.50000000000001,0)" xlink:href="#af"/><use transform="matrix(0.05,0,0,0.05,53.5,0)" xlink:href="#ag"/></g><path d="M30 0v-248h187v28H63v79h144v27H63v87h162V0H30" id="ah"/><path d="M33 0v-248h34V0H33" id="ai"/><g id="r"><use transform="matrix(0.05,0,0,0.05,0,0)" xlink:href="#ah"/><use transform="matrix(0.05,0,0,0.05,12,0)" xlink:href="#ai"/><use transform="matrix(0.05,0,0,0.05,17,0)" xlink:href="#ac"/></g><path d="M233-177c-1 41-23 64-60 70L243 0h-38l-65-103H63V0H30v-248c88 3 205-21 203 71zM63-129c60-2 137 13 137-47 0-61-80-42-137-45v92" id="aj"/><g id="s"><use transform="matrix(0.05,0,0,0.05,0,0)" xlink:href="#aj"/><use transform="matrix(0.05,0,0,0.05,12.950000000000001,0)" xlink:href="#W"/><use transform="matrix(0.05,0,0,0.05,22.950000000000003,0)" xlink:href="#A"/><use transform="matrix(0.05,0,0,0.05,32.95,0)" xlink:href="#Q"/><use transform="matrix(0.05,0,0,0.05,37.95,0)" xlink:href="#R"/><use transform="matrix(0.05,0,0,0.05,47.95,0)" xlink:href="#F"/><use transform="matrix(0.05,0,0,0.05,53.900000000000006,0)" xlink:href="#Q"/><use transform="matrix(0.05,0,0,0.05,58.900000000000006,0)" xlink:href="#G"/><use transform="matrix(0.05,0,0,0.05,68.9,0)" xlink:href="#B"/><use transform="matrix(0.05,0,0,0.05,78.9,0)" xlink:href="#C"/><use transform="matrix(0.05,0,0,0.05,82.85000000000001,0)" xlink:href="#R"/></g><g id="t"><use transform="matrix(0.05,0,0,0.05,0,0)" xlink:href="#z"/><use transform="matrix(0.05,0,0,0.05,10,0)" xlink:href="#O"/><use transform="matrix(0.05,0,0,0.05,15.949999999999998,0)" xlink:href="#D"/><use transform="matrix(0.05,0,0,0.05,19.9,0)" xlink:href="#P"/><use transform="matrix(0.05,0,0,0.05,28.899999999999995,0)" xlink:href="#G"/><use transform="matrix(0.05,0,0,0.05,38.9,0)" xlink:href="#Q"/><use transform="matrix(0.05,0,0,0.05,43.9,0)" xlink:href="#R"/></g><g id="u"><use transform="matrix(0.05,0,0,0.05,0,0)" xlink:href="#O"/><use transform="matrix(0.05,0,0,0.05,5.95,0)" xlink:href="#W"/><use transform="matrix(0.05,0,0,0.05,15.949999999999998,0)" xlink:href="#A"/><use transform="matrix(0.05,0,0,0.05,25.950000000000003,0)" xlink:href="#Q"/><use transform="matrix(0.05,0,0,0.05,30.950000000000003,0)" xlink:href="#R"/><use transform="matrix(0.05,0,0,0.05,40.95,0)" xlink:href="#F"/><use transform="matrix(0.05,0,0,0.05,46.900000000000006,0)" xlink:href="#Q"/><use transform="matrix(0.05,0,0,0.05,51.900000000000006,0)" xlink:href="#G"/><use transform="matrix(0.05,0,0,0.05,61.900000000000006,0)" xlink:href="#B"/><use transform="matrix(0.05,0,0,0.05,71.9,0)" xlink:href="#C"/><use transform="matrix(0.05,0,0,0.05,75.85000000000001,0)" xlink:href="#R"/></g><g id="v"><use transform="matrix(0.05,0,0,0.05,0,0)" xlink:href="#z"/><use transform="matrix(0.05,0,0,0.05,10,0)" xlink:href="#A"/><use transform="matrix(0.05,0,0,0.05,20,0)" xlink:href="#B"/><use transform="matrix(0.05,0,0,0.05,30,0)" xlink:href="#C"/><use transform="matrix(0.05,0,0,0.05,33.95,0)" xlink:href="#D"/><use transform="matrix(0.05,0,0,0.05,37.900000000000006,0)" xlink:href="#E"/></g><g id="w"><use transform="matrix(0.05,0,0,0.05,0,0)" xlink:href="#O"/><use transform="matrix(0.05,0,0,0.05,5.95,0)" xlink:href="#W"/><use transform="matrix(0.05,0,0,0.05,15.949999999999998,0)" xlink:href="#A"/><use transform="matrix(0.05,0,0,0.05,25.950000000000003,0)" xlink:href="#Q"/><use transform="matrix(0.05,0,0,0.05,30.950000000000003,0)" xlink:href="#R"/></g><path fill="#fff" d="M33 0v-248h34V0H33" id="ak"/><path fill="#fff" d="M117-194c89-4 53 116 60 194h-32v-121c0-31-8-49-39-48C34-167 62-67 57 0H25l-1-190h30c1 10-1 24 2 32 11-22 29-35 61-36" id="al"/><path fill="#fff" d="M59-47c-2 24 18 29 38 22v24C64 9 27 4 27-40v-127H5v-23h24l9-43h21v43h35v23H59v120" id="am"/><path fill="#fff" d="M100-194c63 0 86 42 84 106H49c0 40 14 67 53 68 26 1 43-12 49-29l28 8c-11 28-37 45-77 45C44 4 14-33 15-96c1-61 26-98 85-98zm52 81c6-60-76-77-97-28-3 7-6 17-6 28h103" id="an"/><path fill="#fff" d="M114-163C36-179 61-72 57 0H25l-1-190h30c1 12-1 29 2 39 6-27 23-49 58-41v29" id="ao"/><g id="x"><use transform="matrix(0.05,0,0,0.05,0,0)" xlink:href="#ak"/><use transform="matrix(0.05,0,0,0.05,5,0)" xlink:href="#al"/><use transform="matrix(0.05,0,0,0.05,15,0)" xlink:href="#am"/><use transform="matrix(0.05,0,0,0.05,20,0)" xlink:href="#an"/><use transform="matrix(0.05,0,0,0.05,30,0)" xlink:href="#ao"/><use transform="matrix(0.05,0,0,0.05,35.95,0)" xlink:href="#al"/><use transform="matrix(0.05,0,0,0.05,45.95,0)" xlink:href="#an"/><use transform="matrix(0.05,0,0,0.05,55.95,0)" xlink:href="#am"/></g><path d="M177-190C167-65 218 103 67 71c-23-6-38-20-44-43l32-5c15 47 100 32 89-28v-30C133-14 115 1 83 1 29 1 15-40 15-95c0-56 16-97 71-98 29-1 48 16 59 35 1-10 0-23 2-32h30zM94-22c36 0 50-32 50-73 0-42-14-75-50-75-39 0-46 34-46 75s6 73 46 73" id="ap"/><path d="M206 0h-36l-40-164L89 0H53L-1-190h32L70-26l43-164h34l41 164 42-164h31" id="aq"/><g id="y"><use transform="matrix(0.05,0,0,0.05,0,0)" xlink:href="#ai"/><use transform="matrix(0.05,0,0,0.05,5,0)" xlink:href="#X"/><use transform="matrix(0.05,0,0,0.05,15,0)" xlink:href="#Q"/><use transform="matrix(0.05,0,0,0.05,20,0)" xlink:href="#R"/><use transform="matrix(0.05,0,0,0.05,30,0)" xlink:href="#O"/><use transform="matrix(0.05,0,0,0.05,35.95,0)" xlink:href="#X"/><use transform="matrix(0.05,0,0,0.05,45.95,0)" xlink:href="#R"/><use transform="matrix(0.05,0,0,0.05,55.95,0)" xlink:href="#Q"/><use transform="matrix(0.05,0,0,0.05,60.95,0)" xlink:href="#F"/><use transform="matrix(0.05,0,0,0.05,66.9,0)" xlink:href="#ap"/><use transform="matrix(0.05,0,0,0.05,76.9,0)" xlink:href="#aq"/></g></defs></g></svg>