<svg xmlns="http://www.w3.org/2000/svg" xmlns:xlink="http://www.w3.org/1999/xlink" xmlns:lucid="lucid" width="1870" height="1160"><g transform="translate(120 -120)" lucid:page-tab-id="0_0"><path d="M-1806.4 0h3676.8v1323.2h-3676.8z" fill="#fff"/><path d="M-100 140h1460v1120H-100z" stroke="#000" stroke-opacity="0" stroke-width="2" fill="#c1e4f7"/><path d="M160 200h860v320H160z" stroke="#000" stroke-width="2" fill="#83bbe5"/><path d="M1300 700h160v80h-160z" stroke="#000" stroke-width="2" fill="#ffdf71"/><use xlink:href="#a" transform="matrix(1,0,0,1,1305,705) translate(20.025 27.7125)"/><use xlink:href="#b" transform="matrix(1,0,0,1,1305,705) translate(65.025 27.7125)"/><use xlink:href="#c" transform="matrix(1,0,0,1,1305,705) translate(47.5 49.3125)"/><path d="M1300 1115h160v100h-160z" stroke="#000" stroke-width="2" fill="#fff"/><use xlink:href="#d" transform="matrix(1,0,0,1,1305,1120) translate(54 36.9)"/><use xlink:href="#e" transform="matrix(1,0,0,1,1305,1120) translate(22.525 58.5)"/><use xlink:href="#f" transform="matrix(1,0,0,1,1305,1120) translate(56.525 58.5)"/><path d="M800 410h120v80H800z" stroke="#000" stroke-width="2" fill="#a3d977"/><use xlink:href="#g" transform="matrix(1,0,0,1,805,414.9999999999999) translate(10.549999999999997 27.7125)"/><use xlink:href="#h" transform="matrix(1,0,0,1,805,414.9999999999999) translate(27.5 49.3125)"/><path d="M-100 140H40v60h-140z" stroke="#000" stroke-opacity="0" stroke-width="2" fill="#fff" fill-opacity="0"/><use xlink:href="#i" transform="matrix(1,0,0,1,-95,145) translate(46.525 30.025)"/><path d="M460 280h260v220H460z" stroke="#000" stroke-width="2" fill="#ffbbb1"/><path d="M310 440h60v50h-60z" stroke="#000" stroke-width="2" fill="#fff"/><use xlink:href="#j" transform="matrix(1,0,0,1,315,444.99999999999994) translate(0.5499999999999972 24.4)"/><path d="M480 440h60v50h-60z" stroke="#000" stroke-width="2" fill="#fff"/><use xlink:href="#j" transform="matrix(1,0,0,1,485,444.99999999999994) translate(0.5499999999999972 24.4)"/><path d="M160 200h200v40H160z" stroke="#000" stroke-opacity="0" stroke-width="2" fill="#fff" fill-opacity="0"/><use xlink:href="#k" transform="matrix(1,0,0,1,165,205) translate(7.200000000000003 18.15)"/><path d="M160 562.33h860V880H160zM160 920h860v320H160z" stroke="#000" stroke-width="2" fill="#83bbe5"/><path d="M160 560h200v40H160z" stroke="#000" stroke-opacity="0" stroke-width="2" fill="#fff" fill-opacity="0"/><use xlink:href="#l" transform="matrix(1,0,0,1,165,565) translate(6.7250000000000085 18.15)"/><path d="M160 920h200v40H160z" stroke="#000" stroke-opacity="0" stroke-width="2" fill="#fff" fill-opacity="0"/><use xlink:href="#m" transform="matrix(1,0,0,1,165,925) translate(7.200000000000003 18.15)"/><path d="M800 780h120v80H800z" stroke="#000" stroke-width="2" fill="#a3d977"/><use xlink:href="#g" transform="matrix(1,0,0,1,805,785) translate(10.549999999999997 27.7125)"/><use xlink:href="#h" transform="matrix(1,0,0,1,805,785) translate(27.5 49.3125)"/><path d="M800 1138.4h120v80H800z" stroke="#000" stroke-width="2" fill="#a3d977"/><use xlink:href="#g" transform="matrix(1,0,0,1,805,1143.4) translate(10.549999999999997 27.7125)"/><use xlink:href="#h" transform="matrix(1,0,0,1,805,1143.4) translate(27.5 49.3125)"/><path d="M120 340h80v40h-80z" stroke="#000" stroke-width="2" fill="#fff"/><use xlink:href="#n" transform="matrix(1,0,0,1,125,345) translate(17.5 18.15)"/><path d="M120 1040h80v40h-80z" stroke="#000" stroke-width="2" fill="#fff"/><use xlink:href="#n" transform="matrix(1,0,0,1,125,1045) translate(17.5 18.15)"/><path d="M120 700h80v40h-80z" stroke="#000" stroke-width="2" fill="#fff"/><use xlink:href="#n" transform="matrix(1,0,0,1,125,705) translate(17.5 18.15)"/><path d="M-60 695H40v50H-60z" stroke="#000" stroke-width="2" fill="#fff"/><use xlink:href="#o" transform="matrix(1,0,0,1,-55,700) translate(4.575000000000003 14.4)"/><use xlink:href="#p" transform="matrix(1,0,0,1,-55,700) translate(20.549999999999997 36)"/><path d="M118 360H-10v315.5" stroke="#000" stroke-width="2" fill="none"/><path d="M119 361h-1.03v-2H119z"/><path d="M-10 690.76l-4.64-14.26h9.28z" stroke="#000" stroke-width="2"/><path d="M118 720H59.5" stroke="#000" stroke-width="2" fill="none"/><path d="M119 721h-1.03v-2H119z"/><path d="M44.24 720l14.26-4.64v9.28z" stroke="#000" stroke-width="2"/><path d="M118 1060H-10V764.5" stroke="#000" stroke-width="2" fill="none"/><path d="M119 1061h-1.03v-2H119z"/><path d="M-10 749.24l4.64 14.26h-9.28z" stroke="#000" stroke-width="2"/><path d="M300 333.4h80v53.2h-80z" stroke="#000" stroke-width="2" fill="#fff"/><use xlink:href="#q" transform="matrix(1,0,0,1,305,338.4) translate(4.575000000000003 14.4)"/><use xlink:href="#r" transform="matrix(1,0,0,1,305,338.4) translate(15.524999999999999 36)"/><path d="M580 320h120v53.2H580z" stroke="#000" stroke-width="2" fill="#fff"/><use xlink:href="#s" transform="matrix(1,0,0,1,585,325) translate(40 14.4)"/><use xlink:href="#t" transform="matrix(1,0,0,1,585,325) translate(23.525 36)"/><path d="M460 280h210v33.4H460z" stroke="#000" stroke-opacity="0" stroke-width="2" fill="#fff" fill-opacity="0"/><use xlink:href="#u" transform="matrix(1,0,0,1,465,285) translate(1.2654320987654444 15.444444444444446)"/><use xlink:href="#v" transform="matrix(1,0,0,1,465,285) translate(112.57407407407408 15.444444444444446)"/><path d="M640 375.2v31.4H510v13.9" stroke="#000" stroke-width="2" fill="none"/><path d="M641 375.23h-2v-1.03h2z"/><path d="M510 435.76l-4.64-14.26h9.28z" stroke="#000" stroke-width="2"/><path d="M372 465h106" stroke="#000" stroke-width="2" fill="none"/><path d="M372.03 466H371v-2h1.03zM479 466h-1.03v-2H479z"/><path d="M340 438v-31.9" stroke="#000" stroke-width="2" fill="none"/><path d="M341 439h-2v-1.03h2z"/><path d="M340 390.84l4.64 14.26h-9.28z" stroke="#000" stroke-width="2"/><path d="M202 360h78.5" stroke="#000" stroke-width="2" fill="none"/><path d="M202.03 361H201v-2h1.03z"/><path d="M295.76 360l-14.26 4.64v-9.28z" stroke="#000" stroke-width="2"/><path d="M520 363.4h40v53.2h-40z" stroke="#000" stroke-opacity="0" stroke-width="2" fill="#fff" fill-opacity="0"/><use xlink:href="#w" transform="matrix(1,0,0,1,525,368.4) translate(0.5 25.4)"/><path d="M390 433.2h60v40h-60z" stroke="#000" stroke-opacity="0" stroke-width="2" fill="#fff" fill-opacity="0"/><use xlink:href="#x" transform="matrix(1,0,0,1,395,438.2) translate(7.024999999999999 18.275)"/><path d="M460 640h260v220H460z" stroke="#000" stroke-width="2" fill="#ffbbb1"/><path d="M310 800h60v50h-60z" stroke="#000" stroke-width="2" fill="#fff"/><use xlink:href="#j" transform="matrix(1,0,0,1,315,805) translate(0.5499999999999972 24.4)"/><path d="M480 800h60v50h-60z" stroke="#000" stroke-width="2" fill="#fff"/><use xlink:href="#j" transform="matrix(1,0,0,1,485,805) translate(0.5499999999999972 24.4)"/><path d="M300 693.4h80v53.2h-80z" stroke="#000" stroke-width="2" fill="#fff"/><use xlink:href="#q" transform="matrix(1,0,0,1,305,698.4) translate(4.575000000000003 14.4)"/><use xlink:href="#r" transform="matrix(1,0,0,1,305,698.4) translate(15.524999999999999 36)"/><path d="M580 680h120v53.2H580z" stroke="#000" stroke-width="2" fill="#fff"/><use xlink:href="#s" transform="matrix(1,0,0,1,585,685) translate(40 14.4)"/><use xlink:href="#t" transform="matrix(1,0,0,1,585,685) translate(23.525 36)"/><path d="M640 735.2v31.4H510v13.9" stroke="#000" stroke-width="2" fill="none"/><path d="M641 735.23h-2v-1.03h2z"/><path d="M510 795.76l-4.64-14.26h9.28z" stroke="#000" stroke-width="2"/><path d="M340 798v-31.9" stroke="#000" stroke-width="2" fill="none"/><path d="M341 799h-2v-1.03h2z"/><path d="M340 750.84l4.64 14.26h-9.28z" stroke="#000" stroke-width="2"/><path d="M390 793.2h60v40h-60z" stroke="#000" stroke-opacity="0" stroke-width="2" fill="#fff" fill-opacity="0"/><use xlink:href="#x" transform="matrix(1,0,0,1,395,798.2) translate(7.024999999999999 18.275)"/><path d="M460 980h260v220H460z" stroke="#000" stroke-width="2" fill="#ffbbb1"/><path d="M310 1140h60v50h-60z" stroke="#000" stroke-width="2" fill="#fff"/><use xlink:href="#j" transform="matrix(1,0,0,1,315,1145) translate(0.5499999999999972 24.4)"/><path d="M480 1140h60v50h-60z" stroke="#000" stroke-width="2" fill="#fff"/><use xlink:href="#j" transform="matrix(1,0,0,1,485,1145) translate(0.5499999999999972 24.4)"/><path d="M300 1033.4h80v53.2h-80z" stroke="#000" stroke-width="2" fill="#fff"/><use xlink:href="#q" transform="matrix(1,0,0,1,305,1038.4) translate(4.575000000000003 14.4)"/><use xlink:href="#r" transform="matrix(1,0,0,1,305,1038.4) translate(15.524999999999999 36)"/><path d="M580 1020h120v53.2H580z" stroke="#000" stroke-width="2" fill="#fff"/><use xlink:href="#s" transform="matrix(1,0,0,1,584.9999999999999,1025) translate(40 14.4)"/><use xlink:href="#t" transform="matrix(1,0,0,1,584.9999999999999,1025) translate(23.525 36)"/><path d="M640 1075.2v31.4H510v13.9" stroke="#000" stroke-width="2" fill="none"/><path d="M641 1075.23h-2v-1.03h2z"/><path d="M510 1135.76l-4.64-14.26h9.28z" stroke="#000" stroke-width="2"/><path d="M340 1138v-31.9" stroke="#000" stroke-width="2" fill="none"/><path d="M341 1139h-2v-1.03h2z"/><path d="M340 1090.84l4.64 14.26h-9.28z" stroke="#000" stroke-width="2"/><path d="M390 1133.2h60v40h-60z" stroke="#000" stroke-opacity="0" stroke-width="2" fill="#fff" fill-opacity="0"/><use xlink:href="#x" transform="matrix(1,0,0,1,395,1138.2) translate(7.024999999999999 18.275)"/><path d="M372 825h106" stroke="#000" stroke-width="2" fill="none"/><path d="M372.03 826H371v-2h1.03zM479 826h-1.03v-2H479z"/><path d="M372 1165h106" stroke="#000" stroke-width="2" fill="none"/><path d="M372.03 1166H371v-2h1.03zM479 1166h-1.03v-2H479z"/><path d="M520 723.4h40v53.2h-40z" stroke="#000" stroke-opacity="0" stroke-width="2" fill="#fff" fill-opacity="0"/><use xlink:href="#w" transform="matrix(1,0,0,1,525,728.4) translate(0.5 25.4)"/><path d="M520 1066.8h40v53.2h-40z" stroke="#000" stroke-opacity="0" stroke-width="2" fill="#fff" fill-opacity="0"/><use xlink:href="#w" transform="matrix(1,0,0,1,525,1071.8) translate(0.5 25.4)"/><path d="M202 720h78.5" stroke="#000" stroke-width="2" fill="none"/><path d="M202.03 721H201v-2h1.03z"/><path d="M295.76 720l-14.26 4.64v-9.28z" stroke="#000" stroke-width="2"/><path d="M202 1060h78.5" stroke="#000" stroke-width="2" fill="none"/><path d="M202.03 1061H201v-2h1.03z"/><path d="M295.76 1060l-14.26 4.64v-9.28z" stroke="#000" stroke-width="2"/><path d="M200 720h80v40h-80z" stroke="#000" stroke-opacity="0" stroke-width="2" fill="#fff" fill-opacity="0"/><use xlink:href="#y" transform="matrix(1,0,0,1,205,725) translate(5.074999999999999 18.15)"/><path d="M200 1060h80v40h-80z" stroke="#000" stroke-opacity="0" stroke-width="2" fill="#fff" fill-opacity="0"/><use xlink:href="#y" transform="matrix(1,0,0,1,205,1065) translate(5.074999999999999 18.15)"/><path d="M200 360h80v40h-80z" stroke="#000" stroke-opacity="0" stroke-width="2" fill="#fff" fill-opacity="0"/><use xlink:href="#y" transform="matrix(1,0,0,1,205,365) translate(5.074999999999999 18.15)"/><path d="M460 644.9h210v33.4H460z" stroke="#000" stroke-opacity="0" stroke-width="2" fill="#fff" fill-opacity="0"/><use xlink:href="#u" transform="matrix(1,0,0,1,465,649.8999999999999) translate(1.2654320987654444 15.444444444444446)"/><use xlink:href="#z" transform="matrix(1,0,0,1,465,649.8999999999999) translate(112.57407407407408 15.444444444444446)"/><path d="M460 980h210v33.4H460z" stroke="#000" stroke-opacity="0" stroke-width="2" fill="#fff" fill-opacity="0"/><use xlink:href="#u" transform="matrix(1,0,0,1,465,985) translate(1.2654320987654444 15.444444444444446)"/><use xlink:href="#A" transform="matrix(1,0,0,1,465,985) translate(112.57407407407408 15.444444444444446)"/><path d="M1298 740h-118V380h-100.5" stroke="#000" stroke-width="2" fill="none"/><path d="M1299 741h-1.03v-2h1.03z"/><path d="M1064.24 380l14.26-4.64v9.28z" stroke="#000" stroke-width="2"/><path d="M1298 740h-118v353.4h-100.5" stroke="#000" stroke-width="2" fill="none"/><path d="M1299 741h-1.03v-2h1.03z"/><path d="M1064.24 1093.4l14.26-4.64v9.28z" stroke="#000" stroke-width="2"/><path d="M1298 740h-218.5" stroke="#000" stroke-width="2" fill="none"/><path d="M1299 741h-1.03v-2h1.03z"/><path d="M1064.24 740l14.26-4.64v9.28z" stroke="#000" stroke-width="2"/><path d="M1200 715h80v50h-80z" stroke="#000" stroke-opacity="0" stroke-width="2" fill="#fff" fill-opacity="0"/><use xlink:href="#B" transform="matrix(1,0,0,1,1205,720) translate(3.0249999999999986 14.4)"/><use xlink:href="#C" transform="matrix(1,0,0,1,1205,720) translate(13.225000000000001 36)"/><path d="M1630 1128.4h100v73.2h-100z" stroke="#000" stroke-width="2" fill="#fff"/><use xlink:href="#D" transform="matrix(1,0,0,1,1635,1133.4000000000233) translate(25.5 26.4)"/><use xlink:href="#E" transform="matrix(1,0,0,1,1635,1133.4000000000233) translate(20.549999999999997 48)"/><path d="M1628 1165h-148.5" stroke="#000" stroke-width="2" fill="none"/><path d="M1629 1166h-1.03v-2h1.03z"/><path d="M1464.24 1165l14.26-4.64v9.28z" stroke="#000" stroke-width="2"/><path d="M1495 1133.2h100v40h-100z" stroke="#000" stroke-opacity="0" stroke-width="2" fill="#fff" fill-opacity="0"/><use xlink:href="#F" transform="matrix(1,0,0,1,1500,1138.2) translate(16.525 18.15)"/><path d="M980 356.6h80v46.8h-80z" stroke="#000" stroke-width="2" fill="#fff"/><use xlink:href="#G" transform="matrix(1,0,0,1,985,361.6) translate(4.049999999999997 21.3375)"/><path d="M980 716.6h80v46.8h-80z" stroke="#000" stroke-width="2" fill="#fff"/><use xlink:href="#G" transform="matrix(1,0,0,1,985,721.6) translate(4.049999999999997 21.3375)"/><path d="M980 1070h80v46.8h-80z" stroke="#000" stroke-width="2" fill="#fff"/><use xlink:href="#G" transform="matrix(1,0,0,1,985,1074.9999999999998) translate(4.049999999999997 21.3375)"/><path d="M1080 333.4h120v50h-120z" stroke="#000" stroke-opacity="0" stroke-width="2" fill="#fff" fill-opacity="0"/><use xlink:href="#H" transform="matrix(1,0,0,1,1085,338.4) translate(43 14.4)"/><use xlink:href="#I" transform="matrix(1,0,0,1,1085,338.4) translate(2.5 36)"/><path d="M1060 681.6h120v50h-120z" stroke="#000" stroke-opacity="0" stroke-width="2" fill="#fff" fill-opacity="0"/><use xlink:href="#H" transform="matrix(1,0,0,1,1065,686.6) translate(43 14.4)"/><use xlink:href="#I" transform="matrix(1,0,0,1,1065,686.6) translate(2.5 36)"/><path d="M1060 1088.4h120v50h-120z" stroke="#000" stroke-opacity="0" stroke-width="2" fill="#fff" fill-opacity="0"/><use xlink:href="#H" transform="matrix(1,0,0,1,1065,1093.4) translate(43 14.4)"/><use xlink:href="#I" transform="matrix(1,0,0,1,1065,1093.4) translate(2.5 36)"/><path d="M790 273.4h140V320H790z" stroke="#000" stroke-width="2" fill="#fff"/><use xlink:href="#J" transform="matrix(1,0,0,1,795,278.40000000001163) translate(28.599999999999994 21.3375)"/><path d="M790 620h140v46.6H790z" stroke="#000" stroke-width="2" fill="#fff"/><use xlink:href="#J" transform="matrix(1,0,0,1,795,625) translate(28.599999999999994 21.3375)"/><path d="M790 1000h140v46.6H790z" stroke="#000" stroke-width="2" fill="#fff"/><use xlink:href="#J" transform="matrix(1,0,0,1,795,1005) translate(28.599999999999994 21.3375)"/><path d="M860 998v-39H340v54.9" stroke="#000" stroke-width="2" fill="none"/><path d="M861 999h-2v-1.03h2z"/><path d="M340 1029.16l-4.64-14.26h9.28z" stroke="#000" stroke-width="2"/><path d="M978 380h-28v70h-10.5" stroke="#000" stroke-width="2" fill="none"/><path d="M979 381h-1.03v-2H979z"/><path d="M924.24 450l14.26-4.64v9.28z" stroke="#000" stroke-width="2"/><path d="M860 408v-68.5" stroke="#000" stroke-width="2" fill="none"/><path d="M861 409h-2v-1.03h2z"/><path d="M860 324.24l4.64 14.26h-9.28z" stroke="#000" stroke-width="2"/><path d="M860 778v-91.9" stroke="#000" stroke-width="2" fill="none"/><path d="M861 779h-2v-1.03h2z"/><path d="M860 670.84l4.64 14.26h-9.28z" stroke="#000" stroke-width="2"/><path d="M860 1136.4v-70.3" stroke="#000" stroke-width="2" fill="none"/><path d="M861 1137.4h-2v-1.03h2z"/><path d="M860 1050.84l4.64 14.26h-9.28z" stroke="#000" stroke-width="2"/><path d="M978 1093.4h-28v85h-10.5" stroke="#000" stroke-width="2" fill="none"/><path d="M979 1094.4h-1.03v-2H979z"/><path d="M924.24 1178.4l14.26-4.64v9.28z" stroke="#000" stroke-width="2"/><path d="M860 618v-18H340v73.9" stroke="#000" stroke-width="2" fill="none"/><path d="M861 619h-2v-1.03h2z"/><path d="M340 689.16l-4.64-14.26h9.28z" stroke="#000" stroke-width="2"/><path d="M860 271.4V250H340v63.9" stroke="#000" stroke-width="2" fill="none"/><path d="M861 272.4h-2v-1.03h2z"/><path d="M340 329.16l-4.64-14.26h9.28z" stroke="#000" stroke-width="2"/><path d="M765 1070h90v53.2h-90z" stroke="#000" stroke-opacity="0" stroke-width="2" fill="#fff" fill-opacity="0"/><g><use xlink:href="#K" transform="matrix(1,0,0,1,770,1074.9999999999998) translate(0.5249999999999986 14.4)"/><use xlink:href="#L" transform="matrix(1,0,0,1,770,1074.9999999999998) translate(5.549999999999997 36)"/></g><path d="M760 693.4h100v53.2H760z" stroke="#000" stroke-opacity="0" stroke-width="2" fill="#fff" fill-opacity="0"/><g><use xlink:href="#K" transform="matrix(1,0,0,1,765,698.4) translate(5.524999999999999 14.4)"/><use xlink:href="#L" transform="matrix(1,0,0,1,765,698.4) translate(10.549999999999997 36)"/></g><path d="M770 353.4h90v53.2h-90z" stroke="#000" stroke-opacity="0" stroke-width="2" fill="#fff" fill-opacity="0"/><g><use xlink:href="#K" transform="matrix(1,0,0,1,775,358.4) translate(0.5249999999999986 14.4)"/><use xlink:href="#L" transform="matrix(1,0,0,1,775,358.4) translate(5.549999999999997 36)"/></g><path d="M978 740h-28v80h-10.5" stroke="#000" stroke-width="2" fill="none"/><path d="M979 741h-1.03v-2H979z"/><path d="M924.24 820l14.26-4.64v9.28z" stroke="#000" stroke-width="2"/><path d="M960 800h60v40h-60z" stroke="#000" stroke-opacity="0" stroke-width="2" fill="#fff" fill-opacity="0"/><g><use xlink:href="#M" transform="matrix(1,0,0,1,965,805) translate(-1.7250000000000014 18.6)"/></g><path d="M960 1158.4h60v40h-60z" stroke="#000" stroke-opacity="0" stroke-width="2" fill="#fff" fill-opacity="0"/><g><use xlink:href="#M" transform="matrix(1,0,0,1,965,1163.4) translate(-1.7250000000000014 18.6)"/></g><path d="M960 430h60v40h-60z" stroke="#000" stroke-opacity="0" stroke-width="2" fill="#fff" fill-opacity="0"/><g><use xlink:href="#M" transform="matrix(1,0,0,1,965,434.9999999999999) translate(-1.7250000000000014 18.6)"/></g><path d="M580 562.67h60V600h-60z" stroke="#000" stroke-opacity="0" stroke-width="2" fill="#fff" fill-opacity="0"/><g><use xlink:href="#M" transform="matrix(1,0,0,1,585,567.6666666666666) translate(-1.7250000000000014 17.6)"/></g><path d="M580 217.67h60V255h-60z" stroke="#000" stroke-opacity="0" stroke-width="2" fill="#fff" fill-opacity="0"/><g><use xlink:href="#M" transform="matrix(1,0,0,1,584.9999999999999,222.66666666666674) translate(-1.7250000000000014 17.6)"/></g><path d="M560 922.33h60v37.34h-60z" stroke="#000" stroke-opacity="0" stroke-width="2" fill="#fff" fill-opacity="0"/><g><use xlink:href="#M" transform="matrix(1,0,0,1,565,927.3333333333333) translate(-1.7250000000000014 17.6)"/></g><defs><path d="M30 0v-248h33v221h125V0H30" id="N"/><path d="M100-194c62-1 85 37 85 99 1 63-27 99-86 99S16-35 15-95c0-66 28-99 85-99zM99-20c44 1 53-31 53-75 0-43-8-75-51-75s-53 32-53 75 10 74 51 75" id="O"/><path d="M141-36C126-15 110 5 73 4 37 3 15-17 15-53c-1-64 63-63 125-63 3-35-9-54-41-54-24 1-41 7-42 31l-33-3c5-37 33-52 76-52 45 0 72 20 72 64v82c-1 20 7 32 28 27v20c-31 9-61-2-59-35zM48-53c0 20 12 33 32 33 41-3 63-29 60-74-43 2-92-5-92 41" id="P"/><path d="M85-194c31 0 48 13 60 33l-1-100h32l1 261h-30c-2-10 0-23-3-31C134-8 116 4 85 4 32 4 16-35 15-94c0-66 23-100 70-100zm9 24c-40 0-46 34-46 75 0 40 6 74 45 74 42 0 51-32 51-76 0-42-9-74-50-73" id="Q"/><g id="a"><use transform="matrix(0.05,0,0,0.05,0,0)" xlink:href="#N"/><use transform="matrix(0.05,0,0,0.05,10,0)" xlink:href="#O"/><use transform="matrix(0.05,0,0,0.05,20,0)" xlink:href="#P"/><use transform="matrix(0.05,0,0,0.05,30,0)" xlink:href="#Q"/></g><path d="M160-131c35 5 61 23 61 61C221 17 115-2 30 0v-248c76 3 177-17 177 60 0 33-19 50-47 57zm-97-11c50-1 110 9 110-42 0-47-63-36-110-37v79zm0 115c55-2 124 14 124-45 0-56-70-42-124-44v89" id="R"/><path d="M24 0v-261h32V0H24" id="S"/><path d="M117-194c89-4 53 116 60 194h-32v-121c0-31-8-49-39-48C34-167 62-67 57 0H25l-1-190h30c1 10-1 24 2 32 11-22 29-35 61-36" id="T"/><path d="M96-169c-40 0-48 33-48 73s9 75 48 75c24 0 41-14 43-38l32 2c-6 37-31 61-74 61-59 0-76-41-82-99-10-93 101-131 147-64 4 7 5 14 7 22l-32 3c-4-21-16-35-41-35" id="U"/><path d="M100-194c63 0 86 42 84 106H49c0 40 14 67 53 68 26 1 43-12 49-29l28 8c-11 28-37 45-77 45C44 4 14-33 15-96c1-61 26-98 85-98zm52 81c6-60-76-77-97-28-3 7-6 17-6 28h103" id="V"/><g id="b"><use transform="matrix(0.05,0,0,0.05,0,0)" xlink:href="#R"/><use transform="matrix(0.05,0,0,0.05,12,0)" xlink:href="#P"/><use transform="matrix(0.05,0,0,0.05,22,0)" xlink:href="#S"/><use transform="matrix(0.05,0,0,0.05,25.950000000000003,0)" xlink:href="#P"/><use transform="matrix(0.05,0,0,0.05,35.95,0)" xlink:href="#T"/><use transform="matrix(0.05,0,0,0.05,45.95,0)" xlink:href="#U"/><use transform="matrix(0.05,0,0,0.05,54.95,0)" xlink:href="#V"/></g><path d="M138-131c27 9 52 24 51 61 0 53-36 74-89 74S11-19 11-69c0-35 22-54 51-61-78-25-46-121 38-121 51 0 83 19 83 66 0 30-18 49-45 54zm-38-16c24 0 32-13 32-36 1-23-11-34-32-34-22 0-33 12-32 34 0 22 9 36 32 36zm1 116c27 0 37-17 37-43 0-25-13-39-39-39-24 0-37 15-37 40 0 27 11 42 39 42" id="W"/><path d="M101-251c68 0 84 54 84 127C185-50 166 4 99 4S15-52 14-124c-1-75 17-127 87-127zm-1 216c37-5 36-46 36-89s4-89-36-89c-39 0-36 45-36 89 0 43-3 85 36 89" id="X"/><path d="M4 7l51-268h42L46 7H4" id="Y"/><path fill="#19967d" d="M165-50V0h-47v-50H5v-38l105-160h55v161h33v37h-33zm-47-37l2-116L46-87h72" id="Z"/><path fill="#19967d" d="M128-127c34 4 56 21 59 58 7 91-148 94-172 28-4-9-6-17-7-26l51-5c1 24 16 35 40 36 23 0 39-12 38-36-1-31-31-36-65-34v-40c32 2 59-3 59-33 0-20-13-33-34-33s-33 13-35 32l-50-3c6-44 37-68 86-68 50 0 83 20 83 66 0 35-22 52-53 58" id="aa"/><g id="c"><use transform="matrix(0.05,0,0,0.05,0,0)" xlink:href="#W"/><use transform="matrix(0.05,0,0,0.05,10,0)" xlink:href="#X"/><use transform="matrix(0.05,0,0,0.05,20,0)" xlink:href="#Y"/><use transform="matrix(0.05,0,0,0.05,25,0)" xlink:href="#Z"/><use transform="matrix(0.05,0,0,0.05,35,0)" xlink:href="#Z"/><use transform="matrix(0.05,0,0,0.05,45,0)" xlink:href="#aa"/></g><path d="M194 0L95-120 63-95V0H30v-248h33v124l119-124h40L117-140 236 0h-42" id="ab"/><path d="M84 4C-5 8 30-112 23-190h32v120c0 31 7 50 39 49 72-2 45-101 50-169h31l1 190h-30c-1-10 1-25-2-33-11 22-28 36-60 37" id="ac"/><path d="M115-194c53 0 69 39 70 98 0 66-23 100-70 100C84 3 66-7 56-30L54 0H23l1-261h32v101c10-23 28-34 59-34zm-8 174c40 0 45-34 45-75 0-40-5-75-45-74-42 0-51 32-51 76 0 43 10 73 51 73" id="ad"/><g id="d"><use transform="matrix(0.05,0,0,0.05,0,0)" xlink:href="#ab"/><use transform="matrix(0.05,0,0,0.05,12,0)" xlink:href="#ac"/><use transform="matrix(0.05,0,0,0.05,22,0)" xlink:href="#ad"/><use transform="matrix(0.05,0,0,0.05,32,0)" xlink:href="#V"/></g><path d="M205 0l-28-72H64L36 0H1l101-248h38L239 0h-34zm-38-99l-47-123c-12 45-31 82-46 123h93" id="ae"/><path d="M30-248c87 1 191-15 191 75 0 78-77 80-158 76V0H30v-248zm33 125c57 0 124 11 124-50 0-59-68-47-124-48v98" id="af"/><path d="M33 0v-248h34V0H33" id="ag"/><g id="e"><use transform="matrix(0.05,0,0,0.05,0,0)" xlink:href="#ae"/><use transform="matrix(0.05,0,0,0.05,12,0)" xlink:href="#af"/><use transform="matrix(0.05,0,0,0.05,24,0)" xlink:href="#ag"/></g><path d="M30 0v-248h187v28H63v79h144v27H63v87h162V0H30" id="ah"/><path d="M115-194c55 1 70 41 70 98S169 2 115 4C84 4 66-9 55-30l1 105H24l-1-265h31l2 30c10-21 28-34 59-34zm-8 174c40 0 45-34 45-75s-6-73-45-74c-42 0-51 32-51 76 0 43 10 73 51 73" id="ai"/><path d="M24-231v-30h32v30H24zM24 0v-190h32V0H24" id="aj"/><path d="M59-47c-2 24 18 29 38 22v24C64 9 27 4 27-40v-127H5v-23h24l9-43h21v43h35v23H59v120" id="ak"/><g id="f"><use transform="matrix(0.05,0,0,0.05,0,0)" xlink:href="#ah"/><use transform="matrix(0.05,0,0,0.05,12,0)" xlink:href="#T"/><use transform="matrix(0.05,0,0,0.05,22,0)" xlink:href="#Q"/><use transform="matrix(0.05,0,0,0.05,32,0)" xlink:href="#ai"/><use transform="matrix(0.05,0,0,0.05,42,0)" xlink:href="#O"/><use transform="matrix(0.05,0,0,0.05,52,0)" xlink:href="#aj"/><use transform="matrix(0.05,0,0,0.05,55.95,0)" xlink:href="#T"/><use transform="matrix(0.05,0,0,0.05,65.95,0)" xlink:href="#ak"/></g><path d="M143 0L79-87 56-68V0H24v-261h32v163l83-92h37l-77 82L181 0h-38" id="al"/><path d="M16-82v-28h88v28H16" id="am"/><path d="M114-163C36-179 61-72 57 0H25l-1-190h30c1 12-1 29 2 39 6-27 23-49 58-41v29" id="an"/><path d="M141 0L90-78 38 0H4l68-98-65-92h35l48 74 47-74h35l-64 92 68 98h-35" id="ao"/><path d="M179-190L93 31C79 59 56 82 12 73V49c39 6 53-20 64-50L1-190h34L92-34l54-156h33" id="ap"/><g id="g"><use transform="matrix(0.05,0,0,0.05,0,0)" xlink:href="#al"/><use transform="matrix(0.05,0,0,0.05,9,0)" xlink:href="#ac"/><use transform="matrix(0.05,0,0,0.05,19,0)" xlink:href="#ad"/><use transform="matrix(0.05,0,0,0.05,29,0)" xlink:href="#V"/><use transform="matrix(0.05,0,0,0.05,39,0)" xlink:href="#am"/><use transform="matrix(0.05,0,0,0.05,44.95,0)" xlink:href="#ai"/><use transform="matrix(0.05,0,0,0.05,54.95,0)" xlink:href="#an"/><use transform="matrix(0.05,0,0,0.05,60.900000000000006,0)" xlink:href="#O"/><use transform="matrix(0.05,0,0,0.05,70.9,0)" xlink:href="#ao"/><use transform="matrix(0.05,0,0,0.05,79.9,0)" xlink:href="#ap"/></g><path d="M35-185c2-48 38-66 89-66 44 1 76 17 76 59 0 37-25 55-56 62 24 7 40 24 40 54 0 56-41 80-97 80C37 4 5-16 5-63c0-41 29-59 63-67-20-10-33-26-33-55zm49 6c0 20 9 31 30 31 25 0 36-17 36-39 0-19-11-31-31-30-22 1-36 13-35 38zm50 101c0-21-11-34-35-34-29 0-42 18-43 46 0 23 13 35 35 35 28 0 43-19 43-47" id="aq"/><path d="M15-80c0-86 24-171 112-171 50 0 70 31 70 82C197-84 171 4 84 4 34 4 15-29 15-80zm134-92c6-42-44-55-60-23C72-160 55-94 68-46c4 6 9 12 19 11 56-6 53-82 62-137" id="ar"/><path d="M-13 7L90-261h42L29 7h-42" id="as"/><path fill="#19967d" d="M154-50L144 0H97l10-50H-6l7-37 126-161h65L161-87h33l-7 37h-33zm-40-37l27-125c-29 45-64 83-95 125h68" id="at"/><path fill="#19967d" d="M131-73c0-31-25-35-58-33l8-40c36 2 64-5 65-39 0-17-10-28-28-27-23 1-35 12-41 32l-47-9c11-39 39-63 90-62 44 1 76 17 76 60 0 42-26 59-63 64 28 5 48 20 48 54C181 22 9 32 3-60l49-7c3 21 16 31 40 31s39-13 39-37" id="au"/><g id="h"><use transform="matrix(0.05,0,0,0.05,0,0)" xlink:href="#aq"/><use transform="matrix(0.05,0,0,0.05,10,0)" xlink:href="#ar"/><use transform="matrix(0.05,0,0,0.05,20,0)" xlink:href="#as"/><use transform="matrix(0.05,0,0,0.05,25,0)" xlink:href="#at"/><use transform="matrix(0.05,0,0,0.05,35,0)" xlink:href="#at"/><use transform="matrix(0.05,0,0,0.05,45,0)" xlink:href="#au"/></g><path d="M147 0H94L2-248h55l64 206c17-72 42-137 63-206h54" id="av"/><path d="M24-248c93 1 206-16 204 79-1 75-69 88-152 82V0H24v-248zm52 121c47 0 100 7 100-41 0-47-54-39-100-39v80" id="aw"/><path d="M67-125c0 53 21 87 73 88 37 1 54-22 65-47l45 17C233-25 199 4 140 4 58 4 20-42 15-125 8-235 124-281 211-232c18 10 29 29 36 50l-46 12c-8-25-30-41-62-41-52 0-71 34-72 86" id="ax"/><g id="i"><use transform="matrix(0.05,0,0,0.05,0,0)" xlink:href="#av"/><use transform="matrix(0.05,0,0,0.05,12,0)" xlink:href="#aw"/><use transform="matrix(0.05,0,0,0.05,24,0)" xlink:href="#ax"/></g><path d="M108 0H70L1-190h34L89-25l56-165h34" id="ay"/><path d="M106-169C34-169 62-67 57 0H25v-261h32l-1 103c12-21 28-36 61-36 89 0 53 116 60 194h-32v-121c2-32-8-49-39-48" id="az"/><path d="M101-234c-31-9-42 10-38 44h38v23H63V0H32v-167H5v-23h27c-7-52 17-82 69-68v24" id="aA"/><g id="j"><use transform="matrix(0.05,0,0,0.05,0,0)" xlink:href="#ay"/><use transform="matrix(0.05,0,0,0.05,9,0)" xlink:href="#V"/><use transform="matrix(0.05,0,0,0.05,19,0)" xlink:href="#ak"/><use transform="matrix(0.05,0,0,0.05,24,0)" xlink:href="#az"/><use transform="matrix(0.05,0,0,0.05,34,0)" xlink:href="#am"/><use transform="matrix(0.05,0,0,0.05,39.95,0)" xlink:href="#aj"/><use transform="matrix(0.05,0,0,0.05,43.900000000000006,0)" xlink:href="#aA"/></g><path d="M24 0v-248h195v40H76v63h132v40H76v65h150V0H24" id="aB"/><path d="M182-182c0 78-84 86-111 141h115V0H12c-6-101 99-100 120-180 1-22-12-31-33-32-23 0-32 14-35 34l-49-3c5-45 32-70 84-70 51 0 83 22 83 69" id="aC"/><path d="M14-72v-43h91v43H14" id="aD"/><path d="M24 0v-248h52V0H24" id="aE"/><path d="M135-194c87-1 58 113 63 194h-50c-7-57 23-157-34-157-59 0-34 97-39 157H25l-1-190h47c2 12-1 28 3 38 12-26 28-41 61-42" id="aF"/><path d="M137-138c1-29-70-34-71-4 15 46 118 7 119 86 1 83-164 76-172 9l43-7c4 19 20 25 44 25 33 8 57-30 24-41C81-84 22-81 20-136c-2-80 154-74 161-7" id="aG"/><path d="M115-3C79 11 28 4 28-45v-112H4v-33h27l15-45h31v45h36v33H77v99c-1 23 16 31 38 25v30" id="aH"/><path d="M133-34C117-15 103 5 69 4 32 3 11-16 11-54c-1-60 55-63 116-61 1-26-3-47-28-47-18 1-26 9-28 27l-52-2c7-38 36-58 82-57s74 22 75 68l1 82c-1 14 12 18 25 15v27c-30 8-71 5-69-32zm-48 3c29 0 43-24 42-57-32 0-66-3-65 30 0 17 8 27 23 27" id="aI"/><path d="M190-63c-7 42-38 67-86 67-59 0-84-38-90-98-12-110 154-137 174-36l-49 2c-2-19-15-32-35-32-30 0-35 28-38 64-6 74 65 87 74 30" id="aJ"/><path d="M185-48c-13 30-37 53-82 52C43 2 14-33 14-96s30-98 90-98c62 0 83 45 84 108H66c0 31 8 55 39 56 18 0 30-7 34-22zm-45-69c5-46-57-63-70-21-2 6-4 13-4 21h74" id="aK"/><path d="M12 0v-35l95-120H19v-35h142v35L67-36h103V0H12" id="aL"/><path d="M110-194c64 0 96 36 96 99 0 64-35 99-97 99-61 0-95-36-95-99 0-62 34-99 96-99zm-1 164c35 0 45-28 45-65 0-40-10-65-43-65-34 0-45 26-45 65 0 36 10 65 43 65" id="aM"/><g id="k"><use transform="matrix(0.05,0,0,0.05,0,0)" xlink:href="#aB"/><use transform="matrix(0.05,0,0,0.05,12,0)" xlink:href="#ax"/><use transform="matrix(0.05,0,0,0.05,24.950000000000003,0)" xlink:href="#aC"/><use transform="matrix(0.05,0,0,0.05,34.95,0)" xlink:href="#aD"/><use transform="matrix(0.05,0,0,0.05,40.900000000000006,0)" xlink:href="#aE"/><use transform="matrix(0.05,0,0,0.05,45.900000000000006,0)" xlink:href="#aF"/><use transform="matrix(0.05,0,0,0.05,56.85,0)" xlink:href="#aG"/><use transform="matrix(0.05,0,0,0.05,66.85000000000001,0)" xlink:href="#aH"/><use transform="matrix(0.05,0,0,0.05,72.80000000000001,0)" xlink:href="#aI"/><use transform="matrix(0.05,0,0,0.05,82.80000000000001,0)" xlink:href="#aF"/><use transform="matrix(0.05,0,0,0.05,93.75000000000001,0)" xlink:href="#aJ"/><use transform="matrix(0.05,0,0,0.05,103.75,0)" xlink:href="#aK"/><use transform="matrix(0.05,0,0,0.05,113.75,0)" xlink:href="#Y"/><use transform="matrix(0.05,0,0,0.05,118.75,0)" xlink:href="#aL"/><use transform="matrix(0.05,0,0,0.05,127.75,0)" xlink:href="#aM"/><use transform="matrix(0.05,0,0,0.05,138.70000000000002,0)" xlink:href="#aF"/><use transform="matrix(0.05,0,0,0.05,149.65,0)" xlink:href="#aK"/><use transform="matrix(0.05,0,0,0.05,159.65,0)" xlink:href="#aD"/><use transform="matrix(0.05,0,0,0.05,165.6,0)" xlink:href="#aI"/></g><path d="M135-194c52 0 70 43 70 98 0 56-19 99-73 100-30 1-46-15-58-35L72 0H24l1-261h50v104c11-23 29-37 60-37zM114-30c31 0 40-27 40-66 0-37-7-63-39-63s-41 28-41 65c0 36 8 64 40 64" id="aN"/><g id="l"><use transform="matrix(0.05,0,0,0.05,0,0)" xlink:href="#aB"/><use transform="matrix(0.05,0,0,0.05,12,0)" xlink:href="#ax"/><use transform="matrix(0.05,0,0,0.05,24.950000000000003,0)" xlink:href="#aC"/><use transform="matrix(0.05,0,0,0.05,34.95,0)" xlink:href="#aD"/><use transform="matrix(0.05,0,0,0.05,40.900000000000006,0)" xlink:href="#aE"/><use transform="matrix(0.05,0,0,0.05,45.900000000000006,0)" xlink:href="#aF"/><use transform="matrix(0.05,0,0,0.05,56.85,0)" xlink:href="#aG"/><use transform="matrix(0.05,0,0,0.05,66.85000000000001,0)" xlink:href="#aH"/><use transform="matrix(0.05,0,0,0.05,72.80000000000001,0)" xlink:href="#aI"/><use transform="matrix(0.05,0,0,0.05,82.80000000000001,0)" xlink:href="#aF"/><use transform="matrix(0.05,0,0,0.05,93.75000000000001,0)" xlink:href="#aJ"/><use transform="matrix(0.05,0,0,0.05,103.75,0)" xlink:href="#aK"/><use transform="matrix(0.05,0,0,0.05,113.75,0)" xlink:href="#Y"/><use transform="matrix(0.05,0,0,0.05,118.75,0)" xlink:href="#aL"/><use transform="matrix(0.05,0,0,0.05,127.75,0)" xlink:href="#aM"/><use transform="matrix(0.05,0,0,0.05,138.70000000000002,0)" xlink:href="#aF"/><use transform="matrix(0.05,0,0,0.05,149.65,0)" xlink:href="#aK"/><use transform="matrix(0.05,0,0,0.05,159.65,0)" xlink:href="#aD"/><use transform="matrix(0.05,0,0,0.05,165.6,0)" xlink:href="#aN"/></g><g id="m"><use transform="matrix(0.05,0,0,0.05,0,0)" xlink:href="#aB"/><use transform="matrix(0.05,0,0,0.05,12,0)" xlink:href="#ax"/><use transform="matrix(0.05,0,0,0.05,24.950000000000003,0)" xlink:href="#aC"/><use transform="matrix(0.05,0,0,0.05,34.95,0)" xlink:href="#aD"/><use transform="matrix(0.05,0,0,0.05,40.900000000000006,0)" xlink:href="#aE"/><use transform="matrix(0.05,0,0,0.05,45.900000000000006,0)" xlink:href="#aF"/><use transform="matrix(0.05,0,0,0.05,56.85,0)" xlink:href="#aG"/><use transform="matrix(0.05,0,0,0.05,66.85000000000001,0)" xlink:href="#aH"/><use transform="matrix(0.05,0,0,0.05,72.80000000000001,0)" xlink:href="#aI"/><use transform="matrix(0.05,0,0,0.05,82.80000000000001,0)" xlink:href="#aF"/><use transform="matrix(0.05,0,0,0.05,93.75000000000001,0)" xlink:href="#aJ"/><use transform="matrix(0.05,0,0,0.05,103.75,0)" xlink:href="#aK"/><use transform="matrix(0.05,0,0,0.05,113.75,0)" xlink:href="#Y"/><use transform="matrix(0.05,0,0,0.05,118.75,0)" xlink:href="#aL"/><use transform="matrix(0.05,0,0,0.05,127.75,0)" xlink:href="#aM"/><use transform="matrix(0.05,0,0,0.05,138.70000000000002,0)" xlink:href="#aF"/><use transform="matrix(0.05,0,0,0.05,149.65,0)" xlink:href="#aK"/><use transform="matrix(0.05,0,0,0.05,159.65,0)" xlink:href="#aD"/><use transform="matrix(0.05,0,0,0.05,165.6,0)" xlink:href="#aJ"/></g><path d="M101-251c68 0 85 55 85 127S166 4 100 4C33 4 14-52 14-124c0-73 17-127 87-127zm-1 229c47 0 54-49 54-102s-4-102-53-102c-51 0-55 48-55 102 0 53 5 102 54 102" id="aO"/><g id="n"><use transform="matrix(0.05,0,0,0.05,0,0)" xlink:href="#V"/><use transform="matrix(0.05,0,0,0.05,10,0)" xlink:href="#ak"/><use transform="matrix(0.05,0,0,0.05,15,0)" xlink:href="#az"/><use transform="matrix(0.05,0,0,0.05,25,0)" xlink:href="#aO"/></g><g id="o"><use transform="matrix(0.05,0,0,0.05,0,0)" xlink:href="#aj"/><use transform="matrix(0.05,0,0,0.05,3.95,0)" xlink:href="#T"/><use transform="matrix(0.05,0,0,0.05,13.949999999999998,0)" xlink:href="#ak"/><use transform="matrix(0.05,0,0,0.05,18.95,0)" xlink:href="#V"/><use transform="matrix(0.05,0,0,0.05,28.950000000000003,0)" xlink:href="#an"/><use transform="matrix(0.05,0,0,0.05,34.9,0)" xlink:href="#am"/><use transform="matrix(0.05,0,0,0.05,40.85,0)" xlink:href="#T"/><use transform="matrix(0.05,0,0,0.05,50.85,0)" xlink:href="#O"/><use transform="matrix(0.05,0,0,0.05,60.85,0)" xlink:href="#Q"/><use transform="matrix(0.05,0,0,0.05,70.85,0)" xlink:href="#V"/></g><path d="M210-169c-67 3-38 105-44 169h-31v-121c0-29-5-50-35-48C34-165 62-65 56 0H25l-1-190h30c1 10-1 24 2 32 10-44 99-50 107 0 11-21 27-35 58-36 85-2 47 119 55 194h-31v-121c0-29-5-49-35-48" id="aP"/><g id="p"><use transform="matrix(0.05,0,0,0.05,0,0)" xlink:href="#U"/><use transform="matrix(0.05,0,0,0.05,9,0)" xlink:href="#O"/><use transform="matrix(0.05,0,0,0.05,19,0)" xlink:href="#aP"/><use transform="matrix(0.05,0,0,0.05,33.95,0)" xlink:href="#aP"/></g><g id="q"><use transform="matrix(0.05,0,0,0.05,0,0)" xlink:href="#aj"/><use transform="matrix(0.05,0,0,0.05,3.95,0)" xlink:href="#ai"/><use transform="matrix(0.05,0,0,0.05,13.949999999999998,0)" xlink:href="#am"/><use transform="matrix(0.05,0,0,0.05,19.9,0)" xlink:href="#an"/><use transform="matrix(0.05,0,0,0.05,25.849999999999994,0)" xlink:href="#O"/><use transform="matrix(0.05,0,0,0.05,35.849999999999994,0)" xlink:href="#ac"/><use transform="matrix(0.05,0,0,0.05,45.849999999999994,0)" xlink:href="#ak"/><use transform="matrix(0.05,0,0,0.05,50.849999999999994,0)" xlink:href="#V"/></g><g id="r"><use transform="matrix(0.05,0,0,0.05,0,0)" xlink:href="#ak"/><use transform="matrix(0.05,0,0,0.05,5,0)" xlink:href="#P"/><use transform="matrix(0.05,0,0,0.05,15,0)" xlink:href="#ad"/><use transform="matrix(0.05,0,0,0.05,25,0)" xlink:href="#S"/><use transform="matrix(0.05,0,0,0.05,28.950000000000003,0)" xlink:href="#V"/></g><g id="s"><use transform="matrix(0.05,0,0,0.05,0,0)" xlink:href="#P"/><use transform="matrix(0.05,0,0,0.05,10,0)" xlink:href="#ai"/><use transform="matrix(0.05,0,0,0.05,20,0)" xlink:href="#ai"/></g><path d="M135-143c-3-34-86-38-87 0 15 53 115 12 119 90S17 21 10-45l28-5c4 36 97 45 98 0-10-56-113-15-118-90-4-57 82-63 122-42 12 7 21 19 24 35" id="aQ"/><g id="t"><use transform="matrix(0.05,0,0,0.05,0,0)" xlink:href="#ai"/><use transform="matrix(0.05,0,0,0.05,10,0)" xlink:href="#an"/><use transform="matrix(0.05,0,0,0.05,15.949999999999998,0)" xlink:href="#O"/><use transform="matrix(0.05,0,0,0.05,25.950000000000003,0)" xlink:href="#U"/><use transform="matrix(0.05,0,0,0.05,34.95,0)" xlink:href="#V"/><use transform="matrix(0.05,0,0,0.05,44.95,0)" xlink:href="#aQ"/><use transform="matrix(0.05,0,0,0.05,53.95,0)" xlink:href="#aQ"/></g><path d="M175 0L67-191c6 58 2 128 3 191H24v-248h59L193-55c-6-58-2-129-3-193h46V0h-61" id="aR"/><path d="M220-157c-53 9-28 100-34 157h-49v-107c1-27-5-49-29-50C55-147 81-57 75 0H25l-1-190h47c2 12-1 28 3 38 10-53 101-56 108 0 13-22 24-43 59-42 82 1 51 116 57 194h-49v-107c-1-25-5-48-29-50" id="aS"/><path d="M135-194c53 0 70 44 70 98 0 56-19 98-73 100-31 1-45-17-59-34 3 33 2 69 2 105H25l-1-265h48c2 10 0 23 3 31 11-24 29-35 60-35zM114-30c33 0 39-31 40-66 0-38-9-64-40-64-56 0-55 130 0 130" id="aT"/><path d="M182 0l-62-99L58 0H3l86-130-79-118h55l55 88 55-88h55l-75 118L237 0h-55" id="aU"/><path d="M35-132v-50h50v50H35zM35 0v-49h50V0H35" id="aV"/><g id="u"><use transform="matrix(0.04320987654320988,0,0,0.04320987654320988,0,0)" xlink:href="#aR"/><use transform="matrix(0.04320987654320988,0,0,0.04320987654320988,11.19135802469136,0)" xlink:href="#aI"/><use transform="matrix(0.04320987654320988,0,0,0.04320987654320988,19.833333333333336,0)" xlink:href="#aS"/><use transform="matrix(0.04320987654320988,0,0,0.04320987654320988,33.660493827160494,0)" xlink:href="#aK"/><use transform="matrix(0.04320987654320988,0,0,0.04320987654320988,42.30246913580247,0)" xlink:href="#aG"/><use transform="matrix(0.04320987654320988,0,0,0.04320987654320988,50.94444444444444,0)" xlink:href="#aT"/><use transform="matrix(0.04320987654320988,0,0,0.04320987654320988,60.407407407407405,0)" xlink:href="#aI"/><use transform="matrix(0.04320987654320988,0,0,0.04320987654320988,69.04938271604938,0)" xlink:href="#aJ"/><use transform="matrix(0.04320987654320988,0,0,0.04320987654320988,77.69135802469135,0)" xlink:href="#aK"/><use transform="matrix(0.04320987654320988,0,0,0.04320987654320988,86.33333333333333,0)" xlink:href="#aD"/><use transform="matrix(0.04320987654320988,0,0,0.04320987654320988,91.4753086419753,0)" xlink:href="#aU"/><use transform="matrix(0.04320987654320988,0,0,0.04320987654320988,101.84567901234567,0)" xlink:href="#aV"/></g><path d="M25-224v-37h50v37H25zM25 0v-190h50V0H25" id="aW"/><path d="M135-150c-39-12-60 13-60 57V0H25l-1-190h47c2 13-1 29 3 40 6-28 27-53 61-41v41" id="aX"/><path d="M23 0v-37h61v-169l-59 37v-38l62-41h46v211h57V0H23" id="aY"/><g id="v"><use transform="matrix(0.04320987654320988,0,0,0.04320987654320988,0,0)" xlink:href="#ax"/><use transform="matrix(0.04320987654320988,0,0,0.04320987654320988,11.19135802469136,0)" xlink:href="#aM"/><use transform="matrix(0.04320987654320988,0,0,0.04320987654320988,20.654320987654323,0)" xlink:href="#aF"/><use transform="matrix(0.04320987654320988,0,0,0.04320987654320988,30.11728395061729,0)" xlink:href="#aH"/><use transform="matrix(0.04320987654320988,0,0,0.04320987654320988,35.25925925925926,0)" xlink:href="#aI"/><use transform="matrix(0.04320987654320988,0,0,0.04320987654320988,43.901234567901234,0)" xlink:href="#aW"/><use transform="matrix(0.04320987654320988,0,0,0.04320987654320988,48.222222222222214,0)" xlink:href="#aF"/><use transform="matrix(0.04320987654320988,0,0,0.04320987654320988,57.68518518518518,0)" xlink:href="#aK"/><use transform="matrix(0.04320987654320988,0,0,0.04320987654320988,66.32716049382717,0)" xlink:href="#aX"/><use transform="matrix(0.04320987654320988,0,0,0.04320987654320988,72.37654320987654,0)" xlink:href="#aD"/><use transform="matrix(0.04320987654320988,0,0,0.04320987654320988,77.51851851851852,0)" xlink:href="#aY"/></g><g id="w"><use transform="matrix(0.05,0,0,0.05,0,0)" xlink:href="#aQ"/><use transform="matrix(0.05,0,0,0.05,9,0)" xlink:href="#V"/><use transform="matrix(0.05,0,0,0.05,19,0)" xlink:href="#V"/></g><g id="x"><use transform="matrix(0.05,0,0,0.05,0,0)" xlink:href="#ai"/><use transform="matrix(0.05,0,0,0.05,10,0)" xlink:href="#V"/><use transform="matrix(0.05,0,0,0.05,20,0)" xlink:href="#V"/><use transform="matrix(0.05,0,0,0.05,30,0)" xlink:href="#an"/></g><path d="M206 0h-36l-40-164L89 0H53L-1-190h32L70-26l43-164h34l41 164 42-164h31" id="aZ"/><g id="y"><use transform="matrix(0.05,0,0,0.05,0,0)" xlink:href="#aA"/><use transform="matrix(0.05,0,0,0.05,5,0)" xlink:href="#O"/><use transform="matrix(0.05,0,0,0.05,15,0)" xlink:href="#an"/><use transform="matrix(0.05,0,0,0.05,20.95,0)" xlink:href="#aZ"/><use transform="matrix(0.05,0,0,0.05,33.9,0)" xlink:href="#P"/><use transform="matrix(0.05,0,0,0.05,43.9,0)" xlink:href="#an"/><use transform="matrix(0.05,0,0,0.05,49.85,0)" xlink:href="#Q"/></g><g id="z"><use transform="matrix(0.04320987654320988,0,0,0.04320987654320988,0,0)" xlink:href="#ax"/><use transform="matrix(0.04320987654320988,0,0,0.04320987654320988,11.19135802469136,0)" xlink:href="#aM"/><use transform="matrix(0.04320987654320988,0,0,0.04320987654320988,20.654320987654323,0)" xlink:href="#aF"/><use transform="matrix(0.04320987654320988,0,0,0.04320987654320988,30.11728395061729,0)" xlink:href="#aH"/><use transform="matrix(0.04320987654320988,0,0,0.04320987654320988,35.25925925925926,0)" xlink:href="#aI"/><use transform="matrix(0.04320987654320988,0,0,0.04320987654320988,43.901234567901234,0)" xlink:href="#aW"/><use transform="matrix(0.04320987654320988,0,0,0.04320987654320988,48.222222222222214,0)" xlink:href="#aF"/><use transform="matrix(0.04320987654320988,0,0,0.04320987654320988,57.68518518518518,0)" xlink:href="#aK"/><use transform="matrix(0.04320987654320988,0,0,0.04320987654320988,66.32716049382717,0)" xlink:href="#aX"/><use transform="matrix(0.04320987654320988,0,0,0.04320987654320988,72.37654320987654,0)" xlink:href="#aD"/><use transform="matrix(0.04320987654320988,0,0,0.04320987654320988,77.51851851851852,0)" xlink:href="#aC"/></g><path d="M128-127c34 4 56 21 59 58 7 91-148 94-172 28-4-9-6-17-7-26l51-5c1 24 16 35 40 36 23 0 39-12 38-36-1-31-31-36-65-34v-40c32 2 59-3 59-33 0-20-13-33-34-33s-33 13-35 32l-50-3c6-44 37-68 86-68 50 0 83 20 83 66 0 35-22 52-53 58" id="ba"/><g id="A"><use transform="matrix(0.04320987654320988,0,0,0.04320987654320988,0,0)" xlink:href="#ax"/><use transform="matrix(0.04320987654320988,0,0,0.04320987654320988,11.19135802469136,0)" xlink:href="#aM"/><use transform="matrix(0.04320987654320988,0,0,0.04320987654320988,20.654320987654323,0)" xlink:href="#aF"/><use transform="matrix(0.04320987654320988,0,0,0.04320987654320988,30.11728395061729,0)" xlink:href="#aH"/><use transform="matrix(0.04320987654320988,0,0,0.04320987654320988,35.25925925925926,0)" xlink:href="#aI"/><use transform="matrix(0.04320987654320988,0,0,0.04320987654320988,43.901234567901234,0)" xlink:href="#aW"/><use transform="matrix(0.04320987654320988,0,0,0.04320987654320988,48.222222222222214,0)" xlink:href="#aF"/><use transform="matrix(0.04320987654320988,0,0,0.04320987654320988,57.68518518518518,0)" xlink:href="#aK"/><use transform="matrix(0.04320987654320988,0,0,0.04320987654320988,66.32716049382717,0)" xlink:href="#aX"/><use transform="matrix(0.04320987654320988,0,0,0.04320987654320988,72.37654320987654,0)" xlink:href="#aD"/><use transform="matrix(0.04320987654320988,0,0,0.04320987654320988,77.51851851851852,0)" xlink:href="#ba"/></g><g id="B"><use transform="matrix(0.05,0,0,0.05,0,0)" xlink:href="#aj"/><use transform="matrix(0.05,0,0,0.05,3.95,0)" xlink:href="#T"/><use transform="matrix(0.05,0,0,0.05,13.949999999999998,0)" xlink:href="#ad"/><use transform="matrix(0.05,0,0,0.05,23.95,0)" xlink:href="#O"/><use transform="matrix(0.05,0,0,0.05,33.95,0)" xlink:href="#ac"/><use transform="matrix(0.05,0,0,0.05,43.95,0)" xlink:href="#T"/><use transform="matrix(0.05,0,0,0.05,53.95,0)" xlink:href="#Q"/></g><g id="C"><use transform="matrix(0.05,0,0,0.05,0,0)" xlink:href="#ak"/><use transform="matrix(0.05,0,0,0.05,5,0)" xlink:href="#an"/><use transform="matrix(0.05,0,0,0.05,10.95,0)" xlink:href="#P"/><use transform="matrix(0.05,0,0,0.05,20.95,0)" xlink:href="#aA"/><use transform="matrix(0.05,0,0,0.05,25.599999999999998,0)" xlink:href="#aA"/><use transform="matrix(0.05,0,0,0.05,30.599999999999994,0)" xlink:href="#aj"/><use transform="matrix(0.05,0,0,0.05,34.55,0)" xlink:href="#U"/></g><g id="D"><use transform="matrix(0.05,0,0,0.05,0,0)" xlink:href="#al"/><use transform="matrix(0.05,0,0,0.05,9,0)" xlink:href="#ac"/><use transform="matrix(0.05,0,0,0.05,19,0)" xlink:href="#ad"/><use transform="matrix(0.05,0,0,0.05,29,0)" xlink:href="#V"/></g><g id="E"><use transform="matrix(0.05,0,0,0.05,0,0)" xlink:href="#P"/><use transform="matrix(0.05,0,0,0.05,10,0)" xlink:href="#Q"/><use transform="matrix(0.05,0,0,0.05,20,0)" xlink:href="#aP"/><use transform="matrix(0.05,0,0,0.05,34.95,0)" xlink:href="#aj"/><use transform="matrix(0.05,0,0,0.05,38.900000000000006,0)" xlink:href="#T"/></g><g id="F"><use transform="matrix(0.05,0,0,0.05,0,0)" xlink:href="#al"/><use transform="matrix(0.05,0,0,0.05,9,0)" xlink:href="#ac"/><use transform="matrix(0.05,0,0,0.05,19,0)" xlink:href="#ad"/><use transform="matrix(0.05,0,0,0.05,29,0)" xlink:href="#V"/><use transform="matrix(0.05,0,0,0.05,39,0)" xlink:href="#U"/><use transform="matrix(0.05,0,0,0.05,48,0)" xlink:href="#ak"/><use transform="matrix(0.05,0,0,0.05,53,0)" xlink:href="#S"/></g><g id="G"><use transform="matrix(0.05,0,0,0.05,0,0)" xlink:href="#aj"/><use transform="matrix(0.05,0,0,0.05,3.95,0)" xlink:href="#ai"/><use transform="matrix(0.05,0,0,0.05,13.949999999999998,0)" xlink:href="#ak"/><use transform="matrix(0.05,0,0,0.05,18.95,0)" xlink:href="#P"/><use transform="matrix(0.05,0,0,0.05,28.950000000000003,0)" xlink:href="#ad"/><use transform="matrix(0.05,0,0,0.05,38.95,0)" xlink:href="#S"/><use transform="matrix(0.05,0,0,0.05,42.900000000000006,0)" xlink:href="#V"/><use transform="matrix(0.05,0,0,0.05,52.900000000000006,0)" xlink:href="#aQ"/></g><path d="M51-54c-9 22 5 41 31 30L79-1C43 14 10-4 19-52l22-115H19l5-23h22l19-43h21l-9 43h35l-4 23H73" id="bb"/><path d="M44-68c0 29 11 47 38 47 30 0 42-19 51-41l28 9C148-21 126 4 82 4 31 4 10-29 12-85c3-77 74-140 146-93 12 8 15 23 18 40l-31 5c-1-22-13-36-36-36-52 0-65 49-65 101" id="bc"/><path d="M67-162c32-53 139-36 121 50C175-51 163 2 97 4 68 4 52-11 42-31 38 6 28 39 22 75H-9l50-265h29c-1 10 0 20-3 28zm89 36c0-26-10-43-35-43-54 0-67 50-69 103-1 29 14 45 42 46 53 0 62-58 62-106" id="bd"/><g id="H"><use transform="matrix(0.05,0,0,0.05,0,0)" xlink:href="#bb"/><use transform="matrix(0.05,0,0,0.05,5,0)" xlink:href="#bc"/><use transform="matrix(0.05,0,0,0.05,14,0)" xlink:href="#bd"/></g><path d="M131-73c0-31-25-35-58-33l8-40c36 2 64-5 65-39 0-17-10-28-28-27-23 1-35 12-41 32l-47-9c11-39 39-63 90-62 44 1 76 17 76 60 0 42-26 59-63 64 28 5 48 20 48 54C181 22 9 32 3-60l49-7c3 21 16 31 40 31s39-13 39-37" id="be"/><path d="M154-50L144 0H97l10-50H-6l7-37 126-161h65L161-87h33l-7 37h-33zm-40-37l27-125c-29 45-64 83-95 125h68" id="bf"/><path d="M189-94c-5 59-36 98-95 98-53 0-78-35-77-90 1-95 38-177 138-163 27 4 44 25 47 55l-47 7c-4-34-45-30-62-5-9 14-17 34-22 61 26-45 125-35 118 37zm-81-29c-49-6-61 88-10 88 46 5 60-88 10-88" id="bg"/><path fill="#19967d" d="M15-80c0-86 24-171 112-171 50 0 70 31 70 82C197-84 171 4 84 4 34 4 15-29 15-80zm134-92c6-42-44-55-60-23C72-160 55-94 68-46c4 6 9 12 19 11 56-6 53-82 62-137" id="bh"/><g id="I"><use transform="matrix(0.05,0,0,0.05,0,0)" xlink:href="#be"/><use transform="matrix(0.05,0,0,0.05,10,0)" xlink:href="#ar"/><use transform="matrix(0.05,0,0,0.05,20,0)" xlink:href="#bf"/><use transform="matrix(0.05,0,0,0.05,30,0)" xlink:href="#bg"/><use transform="matrix(0.05,0,0,0.05,40,0)" xlink:href="#aq"/><use transform="matrix(0.05,0,0,0.05,50,0)" xlink:href="#as"/><use transform="matrix(0.05,0,0,0.05,55,0)" xlink:href="#au"/><use transform="matrix(0.05,0,0,0.05,65,0)" xlink:href="#bh"/><use transform="matrix(0.05,0,0,0.05,75,0)" xlink:href="#au"/><use transform="matrix(0.05,0,0,0.05,85,0)" xlink:href="#au"/><use transform="matrix(0.05,0,0,0.05,95,0)" xlink:href="#au"/></g><g id="J"><use transform="matrix(0.05,0,0,0.05,0,0)" xlink:href="#U"/><use transform="matrix(0.05,0,0,0.05,9,0)" xlink:href="#S"/><use transform="matrix(0.05,0,0,0.05,12.949999999999998,0)" xlink:href="#ac"/><use transform="matrix(0.05,0,0,0.05,22.95,0)" xlink:href="#aQ"/><use transform="matrix(0.05,0,0,0.05,31.950000000000003,0)" xlink:href="#ak"/><use transform="matrix(0.05,0,0,0.05,36.95,0)" xlink:href="#V"/><use transform="matrix(0.05,0,0,0.05,46.95,0)" xlink:href="#an"/><use transform="matrix(0.05,0,0,0.05,52.900000000000006,0)" xlink:href="#am"/><use transform="matrix(0.05,0,0,0.05,58.85,0)" xlink:href="#aj"/><use transform="matrix(0.05,0,0,0.05,62.80000000000001,0)" xlink:href="#ai"/></g><g id="K"><use transform="matrix(0.05,0,0,0.05,0,0)" xlink:href="#az"/><use transform="matrix(0.05,0,0,0.05,10,0)" xlink:href="#O"/><use transform="matrix(0.05,0,0,0.05,20,0)" xlink:href="#aQ"/><use transform="matrix(0.05,0,0,0.05,29,0)" xlink:href="#ak"/><use transform="matrix(0.05,0,0,0.05,34,0)" xlink:href="#T"/><use transform="matrix(0.05,0,0,0.05,44,0)" xlink:href="#P"/><use transform="matrix(0.05,0,0,0.05,54,0)" xlink:href="#aP"/><use transform="matrix(0.05,0,0,0.05,68.95,0)" xlink:href="#V"/></g><path d="M177-190C167-65 218 103 67 71c-23-6-38-20-44-43l32-5c15 47 100 32 89-28v-30C133-14 115 1 83 1 29 1 15-40 15-95c0-56 16-97 71-98 29-1 48 16 59 35 1-10 0-23 2-32h30zM94-22c36 0 50-32 50-73 0-42-14-75-50-75-39 0-46 34-46 75s6 73 46 73" id="bi"/><g id="L"><use transform="matrix(0.05,0,0,0.05,0,0)" xlink:href="#aP"/><use transform="matrix(0.05,0,0,0.05,14.950000000000001,0)" xlink:href="#P"/><use transform="matrix(0.05,0,0,0.05,24.950000000000003,0)" xlink:href="#ai"/><use transform="matrix(0.05,0,0,0.05,34.95,0)" xlink:href="#ai"/><use transform="matrix(0.05,0,0,0.05,44.95,0)" xlink:href="#aj"/><use transform="matrix(0.05,0,0,0.05,48.900000000000006,0)" xlink:href="#T"/><use transform="matrix(0.05,0,0,0.05,58.900000000000006,0)" xlink:href="#bi"/></g><path d="M30-248c118-7 216 8 213 122C240-48 200 0 122 0H30v-248zM63-27c89 8 146-16 146-99s-60-101-146-95v194" id="bj"/><path d="M190 0L58-211 59 0H30v-248h39L202-35l-2-213h31V0h-41" id="bk"/><path d="M127-220V0H93v-220H8v-28h204v28h-85" id="bl"/><g id="M"><use transform="matrix(0.05,0,0,0.05,0,0)" xlink:href="#bj"/><use transform="matrix(0.05,0,0,0.05,12.950000000000001,0)" xlink:href="#am"/><use transform="matrix(0.05,0,0,0.05,18.900000000000002,0)" xlink:href="#bk"/><use transform="matrix(0.05,0,0,0.05,31.85,0)" xlink:href="#ae"/><use transform="matrix(0.05,0,0,0.05,42.5,0)" xlink:href="#bl"/></g></defs></g></svg>