<svg xmlns="http://www.w3.org/2000/svg" xmlns:xlink="http://www.w3.org/1999/xlink" xmlns:lucid="lucid" width="1560" height="1520"><g transform="translate(-140 460)" lucid:page-tab-id="0_0"><path d="M0-1259.2h1870.4v2582.4H0z" fill="#fff"/><path d="M755.2 600H1140v440H755.2z" stroke="#000" stroke-opacity="0" stroke-width="2" fill="#c1e4f7"/><path d="M1280 60h400v440h-400z" stroke="#000" stroke-opacity="0" stroke-width="2" fill="#d1bcd2"/><path d="M160 40h400v460H160z" stroke="#000" stroke-opacity="0" stroke-width="2" fill="#e5e5e5"/><path d="M280 100h160v120H280z" stroke="#000" stroke-width="2" fill="#c7e8ac"/><use xlink:href="#a" transform="matrix(1,0,0,1,285,105) translate(59 48.775)"/><use xlink:href="#b" transform="matrix(1,0,0,1,285,105) translate(33.55 70.375)"/><path d="M855.2 660h160v120h-160z" stroke="#000" stroke-width="2" fill="#c7e8ac"/><use xlink:href="#a" transform="matrix(1,0,0,1,860.1999999999999,665) translate(59 48.775)"/><use xlink:href="#c" transform="matrix(1,0,0,1,860.1999999999999,665) translate(33.55 70.375)"/><path d="M1400 120h160v120h-160z" stroke="#000" stroke-width="2" fill="#c7e8ac"/><use xlink:href="#a" transform="matrix(1,0,0,1,1405,125) translate(59 48.775)"/><use xlink:href="#d" transform="matrix(1,0,0,1,1405,125) translate(33.55 70.375)"/><path d="M280 340h160v120H280z" stroke="#000" stroke-opacity="0" stroke-width="2" fill="#5abaa7"/><use xlink:href="#e" transform="matrix(1,0,0,1,285,345) translate(34.55 59.0875)"/><path d="M1400 340h160v120h-160z" stroke="#000" stroke-width="6" fill="#5abaa7"/><use xlink:href="#f" transform="matrix(1,0,0,1,1405,345) translate(34.55 48.775)"/><use xlink:href="#g" transform="matrix(1,0,0,1,1405,345) translate(45.099999999999994 70.375)"/><path d="M855.2 900h160v120h-160z" stroke="#000" stroke-opacity="0" stroke-width="2" fill="#5abaa7"/><use xlink:href="#h" transform="matrix(1,0,0,1,860.1999999999999,905) translate(34.55 59.0875)"/><path d="M360 222v11.06m0 11.05v22.12m0 11.06v22.1m0 11.06v11.06" stroke="#7ab648" stroke-width="2" fill="none"/><path d="M361 222.03h-2V221h2z" fill="#7ab648"/><path d="M360 336.76l-4.64-14.26h9.28z" stroke="#7ab648" stroke-width="2" fill="#7ab648"/><path d="M360 461.5V960h493.7" stroke="#19967d" stroke-width="3" fill="none"/><path d="M361.5 461.54h-3V460h3zM855.2 961.5h-1.54v-3h1.54z" fill="#19967d"/><path d="M1016.7 960H1480V464.5" stroke="#19967d" stroke-width="3" fill="none"/><path d="M1016.74 961.5h-1.54v-3h1.54zM1481.5 464.54h-3V463h3z" fill="#19967d"/><path d="M441.5 400h954" stroke="#19967d" stroke-width="3" fill="none"/><path d="M441.54 401.5H440v-3h1.54zM1397 401.5h-1.54v-3h1.54z" fill="#19967d"/><path d="M780 400h140v40H780z" stroke="#000" stroke-opacity="0" stroke-width="2" fill="#fff" fill-opacity="0"/><use xlink:href="#i" transform="matrix(1,0,0,1,785,405) translate(35.05 18.15)"/><path d="M240 660h120v40H240z" stroke="#000" stroke-opacity="0" stroke-width="2" fill="#fff" fill-opacity="0"/><use xlink:href="#i" transform="matrix(1,0,0,1,245,665) translate(25.549999999999997 18.15)"/><path d="M1460 720h140v40h-140z" stroke="#000" stroke-opacity="0" stroke-width="2" fill="#fff" fill-opacity="0"/><use xlink:href="#i" transform="matrix(1,0,0,1,1465,725) translate(35.05 18.15)"/><path d="M160 40h120v60H160z" stroke="#000" stroke-opacity="0" stroke-width="2" fill="#fff" fill-opacity="0"/><use xlink:href="#j" transform="matrix(1,0,0,1,165,45) translate(20.099999999999994 30.025)"/><path d="M755.2 600h120v60h-120z" stroke="#000" stroke-opacity="0" stroke-width="2" fill="#fff" fill-opacity="0"/><use xlink:href="#k" transform="matrix(1,0,0,1,760.1999999999999,605) translate(20.099999999999994 30.025)"/><path d="M1280 60h120v60h-120z" stroke="#000" stroke-opacity="0" stroke-width="2" fill="#fff" fill-opacity="0"/><use xlink:href="#l" transform="matrix(1,0,0,1,1284.9999999999536,65) translate(20.099999999999994 30.025)"/><path d="M442 190h10m9.97 0h19.98m9.98 0h19.98m10 0h19.96m10 0h19.96m10 0h19.96m10 0h19.96m10 0h19.96m10 0h19.96m10 0h19.96m10 0h19.96m10 0h19.96m10 0h19.96m10 0h19.96m10 0H860v11.42m0 9.98v19.98m0 9.98v19.98m0 9.98v19.98m0 9.98v19.98m0 9.98v19.98m0 9.98v.8h19.17m10 0h19.96m10 0h19.96m9.98 0h19.97m10 0H999m10 0h19.97m10 0h19.96m10 0h19.96m9.98 0h19.97m10 0h19.96m10 0h19.97m10 0h19.96m9.98 0h20m9.97 0h19.98m9.98 0h19.98m10 0h19.97m9.98 0h19.98m9.98 0h10" stroke="#7ab648" stroke-width="2" fill="none"/><path d="M442.03 191H441v-2h1.03z" fill="#7ab648"/><path d="M1393.76 362l-14.26 4.64v-9.28z" stroke="#7ab648" stroke-width="2" fill="#7ab648"/><path d="M1480 242v8.5m0 8.5v17m0 8.5v17m0 8.5v8.5" stroke="#7ab648" stroke-width="2" fill="none"/><path d="M1481 242.03h-2V241h2z" fill="#7ab648"/><path d="M1480 333.76l-4.64-14.26h9.28z" stroke="#7ab648" stroke-width="2" fill="#7ab648"/><path d="M935.2 782v11.06m0 11.05v22.12m0 11.06v22.1m0 11.06v11.06" stroke="#7ab648" stroke-width="2" fill="none"/><path d="M936.2 782.03h-2V781h2z" fill="#7ab648"/><path d="M935.2 896.76l-4.64-14.26h9.28z" stroke="#7ab648" stroke-width="2" fill="#7ab648"/><path d="M1017.2 686h10.24m10.25 0h20.48m10.24 0h20.5m10.23 0h20.5m10.23 0h20.5m10.23 0h20.5m10.25 0h15.25v-5.23m0-10.25v-20.48m0-10.25v-20.5m0-10.24v-20.5m0-10.23v-20.5m0-10.23v-20.5m0-10.23v-20.5m0-10.24v-20.48m0-10.25v-20.5m8-2.23h20.48m10.25 0h20.5m10.23 0h20.5m10.23 0h20.48m10.24 0h20.5m10.23 0h10.25" stroke="#7ab648" stroke-width="2" fill="none"/><path d="M1017.23 687h-1.03v-2h1.03z" fill="#7ab648"/><path d="M1393.76 432.67l-14.26 4.63v-9.27z" stroke="#7ab648" stroke-width="2" fill="#7ab648"/><path d="M940 825.8h109.6v28.4H940z" stroke="#000" stroke-opacity="0" stroke-width="2" fill="#fff" fill-opacity="0"/><use xlink:href="#m" transform="matrix(1,0,0,1,945,830.7999999999884) translate(-7.900000000000006 14.4)"/><path d="M360 265.8h109.6v28.4H360z" stroke="#000" stroke-opacity="0" stroke-width="2" fill="#fff" fill-opacity="0"/><use xlink:href="#m" transform="matrix(1,0,0,1,365.0000000000465,270.79999999998836) translate(-7.900000000000006 14.4)"/><path d="M1520 275.8h109.6v28.4H1520z" stroke="#000" stroke-opacity="0" stroke-width="2" fill="#fff" fill-opacity="0"/><use xlink:href="#n" transform="matrix(1,0,0,1,1525,280.79999999998836) translate(-39.32499999999999 14.4)"/><path d="M720 160h104.8v40H720z" stroke="#000" stroke-opacity="0" stroke-width="2" fill="#fff" fill-opacity="0"/><use xlink:href="#o" transform="matrix(1,0,0,1,725,165) translate(18.575 18.15)"/><path d="M1200 540h104.8v40H1200z" stroke="#000" stroke-opacity="0" stroke-width="2" fill="#fff" fill-opacity="0"/><use xlink:href="#o" transform="matrix(1,0,0,1,1205,545) translate(18.575 18.15)"/><path d="M882.27-107.8L377.2 92.2" stroke="#000" stroke-width="2" fill="none"/><path d="M883.7-107.3l-1.1.43-.73-1.86.8-.32z"/><path d="M363 97.8l11.57-9.55 3.4 8.62z" stroke="#000" stroke-width="2"/><path d="M989.94-110.9l473.3 222.04" stroke="#000" stroke-width="2" fill="none"/><path d="M990.4-111.8l-.86 1.8-.98-.45.2-.35.72-1.43z"/><path d="M1477.07 117.63l-14.88-1.87 3.92-8.4z" stroke="#000" stroke-width="2"/><path d="M935.2-78v718.5" stroke="#000" stroke-width="2" fill="none"/><path d="M935.2-79l1-.03v1.06h-2v-1.07z"/><path d="M935.2 655.76l-4.64-14.26h9.28z" stroke="#000" stroke-width="2"/><path d="M704.8-120h120v40h-120z" stroke="#000" stroke-opacity="0" stroke-width="2" fill="#fff" fill-opacity="0"/><use xlink:href="#p" transform="matrix(1,0,0,1,709.8000000000466,-115) translate(4.049999999999997 18.15)"/><path d="M929.6 0h120v40h-120z" stroke="#000" stroke-opacity="0" stroke-width="2" fill="#fff" fill-opacity="0"/><use xlink:href="#p" transform="matrix(1,0,0,1,934.5999999999767,5) translate(4.049999999999997 18.15)"/><path d="M1100-80h120v40h-120z" stroke="#000" stroke-opacity="0" stroke-width="2" fill="#fff" fill-opacity="0"/><use xlink:href="#p" transform="matrix(1,0,0,1,1105,-75) translate(4.049999999999997 18.15)"/><path d="M995.2-140c0 33.14-26.86 60-60 60s-60-26.86-60-60 26.86-60 60-60 60 26.86 60 60z" stroke="#000" stroke-width="2" fill="#fff"/><use xlink:href="#q" transform="matrix(1,0,0,1,880.2000000000464,-195) translate(7.599999999999994 48.775)"/><use xlink:href="#r" transform="matrix(1,0,0,1,880.2000000000464,-195) translate(64.5 48.775)"/><use xlink:href="#s" transform="matrix(1,0,0,1,880.2000000000464,-195) translate(32.525 70.375)"/><path d="M975.2-400c0 22.1-17.9 40-40 40s-40-17.9-40-40 17.9-40 40-40 40 17.9 40 40z" stroke="#000" stroke-width="2" fill="#fff"/><g><use xlink:href="#t" transform="matrix(1,0,0,1,900.1999999999999,-435) translate(16.049999999999997 38.4625)"/></g><path d="M935.2-358v138.5" stroke="#000" stroke-width="2" fill="none"/><path d="M935.2-359l1-.03v1.06h-2v-1.1z"/><path d="M935.2-204.24l-4.64-14.26h9.28z" stroke="#000" stroke-width="2"/><defs><path d="M205 0l-28-72H64L36 0H1l101-248h38L239 0h-34zm-38-99l-47-123c-12 45-31 82-46 123h93" id="u"/><path d="M115-194c55 1 70 41 70 98S169 2 115 4C84 4 66-9 55-30l1 105H24l-1-265h31l2 30c10-21 28-34 59-34zm-8 174c40 0 45-34 45-75s-6-73-45-74c-42 0-51 32-51 76 0 43 10 73 51 73" id="v"/><g id="a"><use transform="matrix(0.05,0,0,0.05,0,0)" xlink:href="#u"/><use transform="matrix(0.05,0,0,0.05,12,0)" xlink:href="#v"/><use transform="matrix(0.05,0,0,0.05,22,0)" xlink:href="#v"/></g><path d="M24-231v-30h32v30H24zM24 0v-190h32V0H24" id="w"/><path d="M117-194c89-4 53 116 60 194h-32v-121c0-31-8-49-39-48C34-167 62-67 57 0H25l-1-190h30c1 10-1 24 2 32 11-22 29-35 61-36" id="x"/><path d="M135-143c-3-34-86-38-87 0 15 53 115 12 119 90S17 21 10-45l28-5c4 36 97 45 98 0-10-56-113-15-118-90-4-57 82-63 122-42 12 7 21 19 24 35" id="y"/><path d="M59-47c-2 24 18 29 38 22v24C64 9 27 4 27-40v-127H5v-23h24l9-43h21v43h35v23H59v120" id="z"/><path d="M141-36C126-15 110 5 73 4 37 3 15-17 15-53c-1-64 63-63 125-63 3-35-9-54-41-54-24 1-41 7-42 31l-33-3c5-37 33-52 76-52 45 0 72 20 72 64v82c-1 20 7 32 28 27v20c-31 9-61-2-59-35zM48-53c0 20 12 33 32 33 41-3 63-29 60-74-43 2-92-5-92 41" id="A"/><path d="M96-169c-40 0-48 33-48 73s9 75 48 75c24 0 41-14 43-38l32 2c-6 37-31 61-74 61-59 0-76-41-82-99-10-93 101-131 147-64 4 7 5 14 7 22l-32 3c-4-21-16-35-41-35" id="B"/><path d="M100-194c63 0 86 42 84 106H49c0 40 14 67 53 68 26 1 43-12 49-29l28 8c-11 28-37 45-77 45C44 4 14-33 15-96c1-61 26-98 85-98zm52 81c6-60-76-77-97-28-3 7-6 17-6 28h103" id="C"/><path d="M16-82v-28h88v28H16" id="D"/><path d="M101-251c68 0 85 55 85 127S166 4 100 4C33 4 14-52 14-124c0-73 17-127 87-127zm-1 229c47 0 54-49 54-102s-4-102-53-102c-51 0-55 48-55 102 0 53 5 102 54 102" id="E"/><g id="b"><use transform="matrix(0.05,0,0,0.05,0,0)" xlink:href="#w"/><use transform="matrix(0.05,0,0,0.05,3.95,0)" xlink:href="#x"/><use transform="matrix(0.05,0,0,0.05,13.949999999999998,0)" xlink:href="#y"/><use transform="matrix(0.05,0,0,0.05,22.95,0)" xlink:href="#z"/><use transform="matrix(0.05,0,0,0.05,27.950000000000003,0)" xlink:href="#A"/><use transform="matrix(0.05,0,0,0.05,37.95,0)" xlink:href="#x"/><use transform="matrix(0.05,0,0,0.05,47.95,0)" xlink:href="#B"/><use transform="matrix(0.05,0,0,0.05,56.95,0)" xlink:href="#C"/><use transform="matrix(0.05,0,0,0.05,66.95,0)" xlink:href="#D"/><use transform="matrix(0.05,0,0,0.05,72.9,0)" xlink:href="#E"/></g><path d="M101-251c82-7 93 87 43 132L82-64C71-53 59-42 53-27h129V0H18c2-99 128-94 128-182 0-28-16-43-45-43s-46 15-49 41l-32-3c6-41 34-60 81-64" id="F"/><g id="c"><use transform="matrix(0.05,0,0,0.05,0,0)" xlink:href="#w"/><use transform="matrix(0.05,0,0,0.05,3.95,0)" xlink:href="#x"/><use transform="matrix(0.05,0,0,0.05,13.949999999999998,0)" xlink:href="#y"/><use transform="matrix(0.05,0,0,0.05,22.95,0)" xlink:href="#z"/><use transform="matrix(0.05,0,0,0.05,27.950000000000003,0)" xlink:href="#A"/><use transform="matrix(0.05,0,0,0.05,37.95,0)" xlink:href="#x"/><use transform="matrix(0.05,0,0,0.05,47.95,0)" xlink:href="#B"/><use transform="matrix(0.05,0,0,0.05,56.95,0)" xlink:href="#C"/><use transform="matrix(0.05,0,0,0.05,66.95,0)" xlink:href="#D"/><use transform="matrix(0.05,0,0,0.05,72.9,0)" xlink:href="#F"/></g><path d="M27 0v-27h64v-190l-56 39v-29l58-41h29v221h61V0H27" id="G"/><g id="d"><use transform="matrix(0.05,0,0,0.05,0,0)" xlink:href="#w"/><use transform="matrix(0.05,0,0,0.05,3.95,0)" xlink:href="#x"/><use transform="matrix(0.05,0,0,0.05,13.949999999999998,0)" xlink:href="#y"/><use transform="matrix(0.05,0,0,0.05,22.95,0)" xlink:href="#z"/><use transform="matrix(0.05,0,0,0.05,27.950000000000003,0)" xlink:href="#A"/><use transform="matrix(0.05,0,0,0.05,37.95,0)" xlink:href="#x"/><use transform="matrix(0.05,0,0,0.05,47.95,0)" xlink:href="#B"/><use transform="matrix(0.05,0,0,0.05,56.95,0)" xlink:href="#C"/><use transform="matrix(0.05,0,0,0.05,66.95,0)" xlink:href="#D"/><use transform="matrix(0.05,0,0,0.05,72.9,0)" xlink:href="#G"/></g><path d="M210-169c-67 3-38 105-44 169h-31v-121c0-29-5-50-35-48C34-165 62-65 56 0H25l-1-190h30c1 10-1 24 2 32 10-44 99-50 107 0 11-21 27-35 58-36 85-2 47 119 55 194h-31v-121c0-29-5-49-35-48" id="H"/><path d="M100-194c62-1 85 37 85 99 1 63-27 99-86 99S16-35 15-95c0-66 28-99 85-99zM99-20c44 1 53-31 53-75 0-43-8-75-51-75s-53 32-53 75 10 74 51 75" id="I"/><path d="M177-190C167-65 218 103 67 71c-23-6-38-20-44-43l32-5c15 47 100 32 89-28v-30C133-14 115 1 83 1 29 1 15-40 15-95c0-56 16-97 71-98 29-1 48 16 59 35 1-10 0-23 2-32h30zM94-22c36 0 50-32 50-73 0-42-14-75-50-75-39 0-46 34-46 75s6 73 46 73" id="J"/><g id="e"><use transform="matrix(0.05,0,0,0.05,0,0)" xlink:href="#H"/><use transform="matrix(0.05,0,0,0.05,14.950000000000001,0)" xlink:href="#I"/><use transform="matrix(0.05,0,0,0.05,24.950000000000003,0)" xlink:href="#x"/><use transform="matrix(0.05,0,0,0.05,34.95,0)" xlink:href="#J"/><use transform="matrix(0.05,0,0,0.05,44.95,0)" xlink:href="#I"/><use transform="matrix(0.05,0,0,0.05,54.95,0)" xlink:href="#D"/><use transform="matrix(0.05,0,0,0.05,60.900000000000006,0)" xlink:href="#x"/><use transform="matrix(0.05,0,0,0.05,70.9,0)" xlink:href="#E"/></g><g id="f"><use transform="matrix(0.05,0,0,0.05,0,0)" xlink:href="#H"/><use transform="matrix(0.05,0,0,0.05,14.950000000000001,0)" xlink:href="#I"/><use transform="matrix(0.05,0,0,0.05,24.950000000000003,0)" xlink:href="#x"/><use transform="matrix(0.05,0,0,0.05,34.95,0)" xlink:href="#J"/><use transform="matrix(0.05,0,0,0.05,44.95,0)" xlink:href="#I"/><use transform="matrix(0.05,0,0,0.05,54.95,0)" xlink:href="#D"/><use transform="matrix(0.05,0,0,0.05,60.900000000000006,0)" xlink:href="#x"/><use transform="matrix(0.05,0,0,0.05,70.9,0)" xlink:href="#G"/></g><path d="M114-163C36-179 61-72 57 0H25l-1-190h30c1 12-1 29 2 39 6-27 23-49 58-41v29" id="K"/><path d="M179-190L93 31C79 59 56 82 12 73V49c39 6 53-20 64-50L1-190h34L92-34l54-156h33" id="L"/><g id="g"><use transform="matrix(0.05,0,0,0.05,0,0)" xlink:href="#v"/><use transform="matrix(0.05,0,0,0.05,10,0)" xlink:href="#K"/><use transform="matrix(0.05,0,0,0.05,15.949999999999998,0)" xlink:href="#w"/><use transform="matrix(0.05,0,0,0.05,19.9,0)" xlink:href="#H"/><use transform="matrix(0.05,0,0,0.05,34.85,0)" xlink:href="#A"/><use transform="matrix(0.05,0,0,0.05,44.85,0)" xlink:href="#K"/><use transform="matrix(0.05,0,0,0.05,50.800000000000004,0)" xlink:href="#L"/></g><g id="h"><use transform="matrix(0.05,0,0,0.05,0,0)" xlink:href="#H"/><use transform="matrix(0.05,0,0,0.05,14.950000000000001,0)" xlink:href="#I"/><use transform="matrix(0.05,0,0,0.05,24.950000000000003,0)" xlink:href="#x"/><use transform="matrix(0.05,0,0,0.05,34.95,0)" xlink:href="#J"/><use transform="matrix(0.05,0,0,0.05,44.95,0)" xlink:href="#I"/><use transform="matrix(0.05,0,0,0.05,54.95,0)" xlink:href="#D"/><use transform="matrix(0.05,0,0,0.05,60.900000000000006,0)" xlink:href="#x"/><use transform="matrix(0.05,0,0,0.05,70.9,0)" xlink:href="#F"/></g><path fill="#19967d" d="M115-194c55 1 70 41 70 98S169 2 115 4C84 4 66-9 55-30l1 105H24l-1-265h31l2 30c10-21 28-34 59-34zm-8 174c40 0 45-34 45-75s-6-73-45-74c-42 0-51 32-51 76 0 43 10 73 51 73" id="M"/><path fill="#19967d" d="M100-194c63 0 86 42 84 106H49c0 40 14 67 53 68 26 1 43-12 49-29l28 8c-11 28-37 45-77 45C44 4 14-33 15-96c1-61 26-98 85-98zm52 81c6-60-76-77-97-28-3 7-6 17-6 28h103" id="N"/><path fill="#19967d" d="M114-163C36-179 61-72 57 0H25l-1-190h30c1 12-1 29 2 39 6-27 23-49 58-41v29" id="O"/><path fill="#19967d" d="M24-231v-30h32v30H24zM24 0v-190h32V0H24" id="P"/><path fill="#19967d" d="M117-194c89-4 53 116 60 194h-32v-121c0-31-8-49-39-48C34-167 62-67 57 0H25l-1-190h30c1 10-1 24 2 32 11-22 29-35 61-36" id="Q"/><path fill="#19967d" d="M177-190C167-65 218 103 67 71c-23-6-38-20-44-43l32-5c15 47 100 32 89-28v-30C133-14 115 1 83 1 29 1 15-40 15-95c0-56 16-97 71-98 29-1 48 16 59 35 1-10 0-23 2-32h30zM94-22c36 0 50-32 50-73 0-42-14-75-50-75-39 0-46 34-46 75s6 73 46 73" id="R"/><g id="i"><use transform="matrix(0.05,0,0,0.05,0,0)" xlink:href="#M"/><use transform="matrix(0.05,0,0,0.05,10,0)" xlink:href="#N"/><use transform="matrix(0.05,0,0,0.05,20,0)" xlink:href="#N"/><use transform="matrix(0.05,0,0,0.05,30,0)" xlink:href="#O"/><use transform="matrix(0.05,0,0,0.05,35.95,0)" xlink:href="#P"/><use transform="matrix(0.05,0,0,0.05,39.900000000000006,0)" xlink:href="#Q"/><use transform="matrix(0.05,0,0,0.05,49.900000000000006,0)" xlink:href="#R"/></g><path d="M135-150c-39-12-60 13-60 57V0H25l-1-190h47c2 13-1 29 3 40 6-28 27-53 61-41v41" id="S"/><path d="M185-48c-13 30-37 53-82 52C43 2 14-33 14-96s30-98 90-98c62 0 83 45 84 108H66c0 31 8 55 39 56 18 0 30-7 34-22zm-45-69c5-46-57-63-70-21-2 6-4 13-4 21h74" id="T"/><path d="M195-6C206 82 75 100 31 46c-4-6-6-13-8-21l49-6c3 16 16 24 34 25 40 0 42-37 40-79-11 22-30 35-61 35-53 0-70-43-70-97 0-56 18-96 73-97 30 0 46 14 59 34l2-30h47zm-90-29c32 0 41-27 41-63 0-35-9-62-40-62-32 0-39 29-40 63 0 36 9 62 39 62" id="U"/><path d="M25-224v-37h50v37H25zM25 0v-190h50V0H25" id="V"/><path d="M110-194c64 0 96 36 96 99 0 64-35 99-97 99-61 0-95-36-95-99 0-62 34-99 96-99zm-1 164c35 0 45-28 45-65 0-40-10-65-43-65-34 0-45 26-45 65 0 36 10 65 43 65" id="W"/><path d="M135-194c87-1 58 113 63 194h-50c-7-57 23-157-34-157-59 0-34 97-39 157H25l-1-190h47c2 12-1 28 3 38 12-26 28-41 61-42" id="X"/><path d="M14-72v-43h91v43H14" id="Y"/><path d="M101-251c68 0 84 54 84 127C185-50 166 4 99 4S15-52 14-124c-1-75 17-127 87-127zm-1 216c37-5 36-46 36-89s4-89-36-89c-39 0-36 45-36 89 0 43-3 85 36 89" id="Z"/><g id="j"><use transform="matrix(0.05,0,0,0.05,0,0)" xlink:href="#S"/><use transform="matrix(0.05,0,0,0.05,7,0)" xlink:href="#T"/><use transform="matrix(0.05,0,0,0.05,17,0)" xlink:href="#U"/><use transform="matrix(0.05,0,0,0.05,27.950000000000003,0)" xlink:href="#V"/><use transform="matrix(0.05,0,0,0.05,32.95,0)" xlink:href="#W"/><use transform="matrix(0.05,0,0,0.05,43.900000000000006,0)" xlink:href="#X"/><use transform="matrix(0.05,0,0,0.05,54.85,0)" xlink:href="#Y"/><use transform="matrix(0.05,0,0,0.05,60.80000000000001,0)" xlink:href="#Z"/></g><path d="M182-182c0 78-84 86-111 141h115V0H12c-6-101 99-100 120-180 1-22-12-31-33-32-23 0-32 14-35 34l-49-3c5-45 32-70 84-70 51 0 83 22 83 69" id="aa"/><g id="k"><use transform="matrix(0.05,0,0,0.05,0,0)" xlink:href="#S"/><use transform="matrix(0.05,0,0,0.05,7,0)" xlink:href="#T"/><use transform="matrix(0.05,0,0,0.05,17,0)" xlink:href="#U"/><use transform="matrix(0.05,0,0,0.05,27.950000000000003,0)" xlink:href="#V"/><use transform="matrix(0.05,0,0,0.05,32.95,0)" xlink:href="#W"/><use transform="matrix(0.05,0,0,0.05,43.900000000000006,0)" xlink:href="#X"/><use transform="matrix(0.05,0,0,0.05,54.85,0)" xlink:href="#Y"/><use transform="matrix(0.05,0,0,0.05,60.80000000000001,0)" xlink:href="#aa"/></g><path d="M23 0v-37h61v-169l-59 37v-38l62-41h46v211h57V0H23" id="ab"/><g id="l"><use transform="matrix(0.05,0,0,0.05,0,0)" xlink:href="#S"/><use transform="matrix(0.05,0,0,0.05,7,0)" xlink:href="#T"/><use transform="matrix(0.05,0,0,0.05,17,0)" xlink:href="#U"/><use transform="matrix(0.05,0,0,0.05,27.950000000000003,0)" xlink:href="#V"/><use transform="matrix(0.05,0,0,0.05,32.95,0)" xlink:href="#W"/><use transform="matrix(0.05,0,0,0.05,43.900000000000006,0)" xlink:href="#X"/><use transform="matrix(0.05,0,0,0.05,54.85,0)" xlink:href="#Y"/><use transform="matrix(0.05,0,0,0.05,60.80000000000001,0)" xlink:href="#ab"/></g><path d="M233-177c-1 41-23 64-60 70L243 0h-38l-65-103H63V0H30v-248c88 3 205-21 203 71zM63-129c60-2 137 13 137-47 0-61-80-42-137-45v92" id="ac"/><path d="M30 0v-248h187v28H63v79h144v27H63v87h162V0H30" id="ad"/><path d="M30-248c118-7 216 8 213 122C240-48 200 0 122 0H30v-248zM63-27c89 8 146-16 146-99s-60-101-146-95v194" id="ae"/><g id="m"><use transform="matrix(0.05,0,0,0.05,0,0)" xlink:href="#ac"/><use transform="matrix(0.05,0,0,0.05,12.950000000000001,0)" xlink:href="#ad"/><use transform="matrix(0.05,0,0,0.05,24.950000000000003,0)" xlink:href="#u"/><use transform="matrix(0.05,0,0,0.05,36.95,0)" xlink:href="#ae"/><use transform="matrix(0.05,0,0,0.05,49.900000000000006,0)" xlink:href="#D"/><use transform="matrix(0.05,0,0,0.05,55.85,0)" xlink:href="#x"/><use transform="matrix(0.05,0,0,0.05,65.85000000000001,0)" xlink:href="#C"/><use transform="matrix(0.05,0,0,0.05,75.85000000000001,0)" xlink:href="#A"/><use transform="matrix(0.05,0,0,0.05,85.85000000000001,0)" xlink:href="#K"/><use transform="matrix(0.05,0,0,0.05,91.80000000000001,0)" xlink:href="#C"/><use transform="matrix(0.05,0,0,0.05,101.80000000000001,0)" xlink:href="#y"/><use transform="matrix(0.05,0,0,0.05,110.80000000000001,0)" xlink:href="#z"/></g><path d="M0 4l72-265h28L28 4H0" id="af"/><path d="M266 0h-40l-56-210L115 0H75L2-248h35L96-30l15-64 43-154h32l59 218 59-218h35" id="ag"/><path d="M33 0v-248h34V0H33" id="ah"/><path d="M127-220V0H93v-220H8v-28h204v28h-85" id="ai"/><g id="n"><use transform="matrix(0.05,0,0,0.05,0,0)" xlink:href="#ac"/><use transform="matrix(0.05,0,0,0.05,12.950000000000001,0)" xlink:href="#ad"/><use transform="matrix(0.05,0,0,0.05,24.950000000000003,0)" xlink:href="#u"/><use transform="matrix(0.05,0,0,0.05,36.95,0)" xlink:href="#ae"/><use transform="matrix(0.05,0,0,0.05,49.900000000000006,0)" xlink:href="#D"/><use transform="matrix(0.05,0,0,0.05,55.85,0)" xlink:href="#x"/><use transform="matrix(0.05,0,0,0.05,65.85000000000001,0)" xlink:href="#C"/><use transform="matrix(0.05,0,0,0.05,75.85000000000001,0)" xlink:href="#A"/><use transform="matrix(0.05,0,0,0.05,85.85000000000001,0)" xlink:href="#K"/><use transform="matrix(0.05,0,0,0.05,91.80000000000001,0)" xlink:href="#C"/><use transform="matrix(0.05,0,0,0.05,101.80000000000001,0)" xlink:href="#y"/><use transform="matrix(0.05,0,0,0.05,110.80000000000001,0)" xlink:href="#z"/><use transform="matrix(0.05,0,0,0.05,115.80000000000001,0)" xlink:href="#af"/><use transform="matrix(0.05,0,0,0.05,120.80000000000001,0)" xlink:href="#ag"/><use transform="matrix(0.05,0,0,0.05,137.75,0)" xlink:href="#ac"/><use transform="matrix(0.05,0,0,0.05,150.7,0)" xlink:href="#ah"/><use transform="matrix(0.05,0,0,0.05,155.7,0)" xlink:href="#ai"/><use transform="matrix(0.05,0,0,0.05,166.64999999999998,0)" xlink:href="#ad"/></g><g id="o"><use transform="matrix(0.05,0,0,0.05,0,0)" xlink:href="#ag"/><use transform="matrix(0.05,0,0,0.05,16.95,0)" xlink:href="#ac"/><use transform="matrix(0.05,0,0,0.05,29.899999999999995,0)" xlink:href="#ah"/><use transform="matrix(0.05,0,0,0.05,34.9,0)" xlink:href="#ai"/><use transform="matrix(0.05,0,0,0.05,45.85,0)" xlink:href="#ad"/></g><path d="M106-169C34-169 62-67 57 0H25v-261h32l-1 103c12-21 28-36 61-36 89 0 53 116 60 194h-32v-121c2-32-8-49-39-48" id="aj"/><path d="M24 0v-261h32V0H24" id="ak"/><path d="M143 0L79-87 56-68V0H24v-261h32v163l83-92h37l-77 82L181 0h-38" id="al"/><g id="p"><use transform="matrix(0.05,0,0,0.05,0,0)" xlink:href="#aj"/><use transform="matrix(0.05,0,0,0.05,10,0)" xlink:href="#C"/><use transform="matrix(0.05,0,0,0.05,20,0)" xlink:href="#A"/><use transform="matrix(0.05,0,0,0.05,30,0)" xlink:href="#ak"/><use transform="matrix(0.05,0,0,0.05,33.95,0)" xlink:href="#z"/><use transform="matrix(0.05,0,0,0.05,38.95,0)" xlink:href="#aj"/><use transform="matrix(0.05,0,0,0.05,48.95,0)" xlink:href="#D"/><use transform="matrix(0.05,0,0,0.05,54.900000000000006,0)" xlink:href="#B"/><use transform="matrix(0.05,0,0,0.05,63.900000000000006,0)" xlink:href="#aj"/><use transform="matrix(0.05,0,0,0.05,73.9,0)" xlink:href="#C"/><use transform="matrix(0.05,0,0,0.05,83.9,0)" xlink:href="#B"/><use transform="matrix(0.05,0,0,0.05,92.9,0)" xlink:href="#al"/></g><path d="M143 4C61 4 22-44 18-125c-5-107 100-154 193-111 17 8 29 25 37 43l-32 9c-13-25-37-40-76-40-61 0-88 39-88 99 0 61 29 100 91 101 35 0 62-11 79-27v-45h-74v-28h105v86C228-13 192 4 143 4" id="am"/><path d="M115-194c53 0 69 39 70 98 0 66-23 100-70 100C84 3 66-7 56-30L54 0H23l1-261h32v101c10-23 28-34 59-34zm-8 174c40 0 45-34 45-75 0-40-5-75-45-74-42 0-51 32-51 76 0 43 10 73 51 73" id="an"/><g id="q"><use transform="matrix(0.05,0,0,0.05,0,0)" xlink:href="#am"/><use transform="matrix(0.05,0,0,0.05,14,0)" xlink:href="#ak"/><use transform="matrix(0.05,0,0,0.05,17.95,0)" xlink:href="#I"/><use transform="matrix(0.05,0,0,0.05,27.950000000000003,0)" xlink:href="#an"/><use transform="matrix(0.05,0,0,0.05,37.95,0)" xlink:href="#A"/><use transform="matrix(0.05,0,0,0.05,47.95,0)" xlink:href="#ak"/></g><path d="M190 0L58-211 59 0H30v-248h39L202-35l-2-213h31V0h-41" id="ao"/><path d="M185-189c-5-48-123-54-124 2 14 75 158 14 163 119 3 78-121 87-175 55-17-10-28-26-33-46l33-7c5 56 141 63 141-1 0-78-155-14-162-118-5-82 145-84 179-34 5 7 8 16 11 25" id="ap"/><g id="r"><use transform="matrix(0.05,0,0,0.05,0,0)" xlink:href="#ae"/><use transform="matrix(0.05,0,0,0.05,12.950000000000001,0)" xlink:href="#ao"/><use transform="matrix(0.05,0,0,0.05,25.900000000000002,0)" xlink:href="#ap"/></g><g id="s"><use transform="matrix(0.05,0,0,0.05,0,0)" xlink:href="#x"/><use transform="matrix(0.05,0,0,0.05,10,0)" xlink:href="#A"/><use transform="matrix(0.05,0,0,0.05,20,0)" xlink:href="#H"/><use transform="matrix(0.05,0,0,0.05,34.95,0)" xlink:href="#C"/></g><path d="M232-93c-1 65-40 97-104 97C67 4 28-28 28-90v-158h33c8 89-33 224 67 224 102 0 64-133 71-224h33v155" id="aq"/><g id="t"><use transform="matrix(0.05,0,0,0.05,0,0)" xlink:href="#aq"/><use transform="matrix(0.05,0,0,0.05,12.950000000000001,0)" xlink:href="#y"/><use transform="matrix(0.05,0,0,0.05,21.950000000000003,0)" xlink:href="#C"/><use transform="matrix(0.05,0,0,0.05,31.950000000000003,0)" xlink:href="#K"/></g></defs></g></svg>