<svg xmlns="http://www.w3.org/2000/svg" xmlns:xlink="http://www.w3.org/1999/xlink" xmlns:lucid="lucid" width="770" height="820"><g transform="translate(1260 -140)" lucid:page-tab-id="0_0"><path d="M-1806.4 0H64v1323.2h-1870.4z" fill="#fff"/><path d="M-960 340h160v80h-160z" stroke="#000" stroke-width="2" fill="#fcc438"/><use xlink:href="#a" transform="matrix(1,0,0,1,-955,345) translate(41.025 27.525)"/><use xlink:href="#b" transform="matrix(1,0,0,1,-955,345) translate(19.599999999999994 49.125)"/><use xlink:href="#c" transform="matrix(1,0,0,1,-955,345) translate(72.5 49.125)"/><path d="M-840 200c0 22.1-17.9 40-40 40s-40-17.9-40-40 17.9-40 40-40 40 17.9 40 40z" stroke="#000" stroke-width="2" fill="#ff8f80"/><use xlink:href="#d" transform="matrix(1,0,0,1,-915,165) translate(16.055 27.525)"/><use xlink:href="#e" transform="matrix(1,0,0,1,-915,165) translate(10.58 49.125)"/><path d="M-880 338v-78.5" stroke="#000" stroke-width="2" fill="none"/><path d="M-879 339h-2v-1.03h2z"/><path d="M-880 244.24l4.64 14.26h-9.28z" stroke="#000" stroke-width="2"/><path d="M-1240 780h160v160h-160z" stroke="#666" stroke-width="2" fill="#b2b2b2"/><use xlink:href="#f" transform="matrix(1,0,0,1,-1235,785) translate(39.525 65.9625)"/><use xlink:href="#g" transform="matrix(1,0,0,1,-1235,785) translate(42.075 87.5625)"/><path d="M-960 780h160v160h-160z" stroke="#000" stroke-width="2" fill="#ffeca9"/><use xlink:href="#f" transform="matrix(1,0,0,1,-955,785) translate(39.525 65.9625)"/><use xlink:href="#h" transform="matrix(1,0,0,1,-955,785) translate(42.075 87.5625)"/><path d="M-680 780h160v160h-160z" stroke="#000" stroke-width="2" fill="#99d5ca"/><use xlink:href="#f" transform="matrix(1,0,0,1,-675,785) translate(39.525 65.9625)"/><use xlink:href="#i" transform="matrix(1,0,0,1,-675,785) translate(42.075 87.5625)"/><path d="M-960 560h160v120h-160z" stroke="#000" stroke-width="2" fill="#3aa6dd"/><use xlink:href="#j" transform="matrix(1,0,0,1,-955,565) translate(25.125 59.0875)"/><use xlink:href="#k" transform="matrix(1,0,0,1,-955,565) translate(78.975 59.0875)"/><path d="M-880 682v78.5" stroke="#000" stroke-width="2" fill="none"/><path d="M-879 682.03h-2V681h2z"/><path d="M-880 775.76l-4.64-14.26h9.28z" stroke="#000" stroke-width="2"/><path d="M-962 620h-198v140.5" stroke="#000" stroke-width="2" fill="none"/><path d="M-961 621h-1.03v-2h1.03z"/><path d="M-1160 775.76l-4.64-14.26h9.28z" stroke="#000" stroke-width="2"/><path d="M-798 620h198v140.5" stroke="#000" stroke-width="2" fill="none"/><path d="M-797.97 621H-799v-2h1.03z"/><path d="M-600 775.76l-4.64-14.26h9.28z" stroke="#000" stroke-width="2"/><path d="M-1240 560h180v60h-180z" stroke="#000" stroke-opacity="0" stroke-width="2" fill="#fff" fill-opacity="0"/><use xlink:href="#l" transform="matrix(1,0,0,1,-1235,565) translate(6.150000000000006 30.025)"/><path d="M-690 560h180v60h-180z" stroke="#000" stroke-opacity="0" stroke-width="2" fill="#fff" fill-opacity="0"/><use xlink:href="#l" transform="matrix(1,0,0,1,-685,565) translate(6.150000000000006 30.025)"/><path d="M-880 700h180v60h-180z" stroke="#000" stroke-opacity="0" stroke-width="2" fill="#fff" fill-opacity="0"/><use xlink:href="#l" transform="matrix(1,0,0,1,-875,705) translate(6.150000000000006 30.025)"/><path d="M-880 422v118.5" stroke="#000" stroke-width="2" fill="none"/><path d="M-879 422.03h-2V421h2z"/><path d="M-880 555.76l-4.64-14.26h9.28z" stroke="#000" stroke-width="2"/><path d="M-880 470h80v40h-80z" stroke="#000" stroke-opacity="0" stroke-width="2" fill="#fff" fill-opacity="0"/><g><use xlink:href="#m" transform="matrix(1,0,0,1,-875,475) translate(20.5 18.15)"/></g><path d="M-880 259.67h120v60.66h-120z" stroke="#000" stroke-opacity="0" stroke-width="2" fill="#fff" fill-opacity="0"/><g><use xlink:href="#n" transform="matrix(1,0,0,1,-875,264.66666666666663) translate(2.125 30.3375)"/><use xlink:href="#o" transform="matrix(1,0,0,1,-875,264.66666666666663) translate(64.025 30.3375)"/></g><defs><path d="M233-177c-1 41-23 64-60 70L243 0h-38l-65-103H63V0H30v-248c88 3 205-21 203 71zM63-129c60-2 137 13 137-47 0-61-80-42-137-45v92" id="p"/><path d="M100-194c62-1 85 37 85 99 1 63-27 99-86 99S16-35 15-95c0-66 28-99 85-99zM99-20c44 1 53-31 53-75 0-43-8-75-51-75s-53 32-53 75 10 74 51 75" id="q"/><path d="M84 4C-5 8 30-112 23-190h32v120c0 31 7 50 39 49 72-2 45-101 50-169h31l1 190h-30c-1-10 1-25-2-33-11 22-28 36-60 37" id="r"/><path d="M59-47c-2 24 18 29 38 22v24C64 9 27 4 27-40v-127H5v-23h24l9-43h21v43h35v23H59v120" id="s"/><path d="M100-194c63 0 86 42 84 106H49c0 40 14 67 53 68 26 1 43-12 49-29l28 8c-11 28-37 45-77 45C44 4 14-33 15-96c1-61 26-98 85-98zm52 81c6-60-76-77-97-28-3 7-6 17-6 28h103" id="t"/><path d="M54-142c48-35 137-8 131 61C196 18 31 33 14-55l32-4c7 23 22 37 52 37 35-1 51-22 54-58 4-55-73-65-99-34H22l8-134h141v27H59" id="u"/><path d="M126-127c33 6 58 20 58 59 0 88-139 92-164 29-3-8-5-16-6-25l32-3c6 27 21 44 54 44 32 0 52-15 52-46 0-38-36-46-79-43v-28c39 1 72-4 72-42 0-27-17-43-46-43-28 0-47 15-49 41l-32-3c6-42 35-63 81-64 48-1 79 21 79 65 0 36-21 52-52 59" id="v"/><g id="a"><use transform="matrix(0.05,0,0,0.05,0,0)" xlink:href="#p"/><use transform="matrix(0.05,0,0,0.05,12.950000000000001,0)" xlink:href="#q"/><use transform="matrix(0.05,0,0,0.05,22.950000000000003,0)" xlink:href="#r"/><use transform="matrix(0.05,0,0,0.05,32.95,0)" xlink:href="#s"/><use transform="matrix(0.05,0,0,0.05,37.95,0)" xlink:href="#t"/><use transform="matrix(0.05,0,0,0.05,47.95,0)" xlink:href="#u"/><use transform="matrix(0.05,0,0,0.05,57.95,0)" xlink:href="#v"/></g><path d="M30-248c87 1 191-15 191 75 0 78-77 80-158 76V0H30v-248zm33 125c57 0 124 11 124-50 0-59-68-47-124-48v98" id="w"/><path d="M24 0v-261h32V0H24" id="x"/><path d="M24-231v-30h32v30H24zM24 0v-190h32V0H24" id="y"/><path d="M96-169c-40 0-48 33-48 73s9 75 48 75c24 0 41-14 43-38l32 2c-6 37-31 61-74 61-59 0-76-41-82-99-10-93 101-131 147-64 4 7 5 14 7 22l-32 3c-4-21-16-35-41-35" id="z"/><path d="M179-190L93 31C79 59 56 82 12 73V49c39 6 53-20 64-50L1-190h34L92-34l54-156h33" id="A"/><g id="b"><use transform="matrix(0.05,0,0,0.05,0,0)" xlink:href="#w"/><use transform="matrix(0.05,0,0,0.05,12,0)" xlink:href="#q"/><use transform="matrix(0.05,0,0,0.05,22,0)" xlink:href="#x"/><use transform="matrix(0.05,0,0,0.05,25.950000000000003,0)" xlink:href="#y"/><use transform="matrix(0.05,0,0,0.05,29.899999999999995,0)" xlink:href="#z"/><use transform="matrix(0.05,0,0,0.05,38.9,0)" xlink:href="#A"/></g><path d="M114-163C36-179 61-72 57 0H25l-1-190h30c1 12-1 29 2 39 6-27 23-49 58-41v29" id="B"/><path d="M85-194c31 0 48 13 60 33l-1-100h32l1 261h-30c-2-10 0-23-3-31C134-8 116 4 85 4 32 4 16-35 15-94c0-66 23-100 70-100zm9 24c-40 0-46 34-46 75 0 40 6 74 45 74 42 0 51-32 51-76 0-42-9-74-50-73" id="C"/><g id="c"><use transform="matrix(0.05,0,0,0.05,0,0)" xlink:href="#p"/><use transform="matrix(0.05,0,0,0.05,12.950000000000001,0)" xlink:href="#t"/><use transform="matrix(0.05,0,0,0.05,22.950000000000003,0)" xlink:href="#z"/><use transform="matrix(0.05,0,0,0.05,31.950000000000003,0)" xlink:href="#q"/><use transform="matrix(0.05,0,0,0.05,41.95,0)" xlink:href="#B"/><use transform="matrix(0.05,0,0,0.05,47.900000000000006,0)" xlink:href="#C"/></g><path d="M232-93c-1 65-40 97-104 97C67 4 28-28 28-90v-158h33c8 89-33 224 67 224 102 0 64-133 71-224h33v155" id="D"/><path d="M135-143c-3-34-86-38-87 0 15 53 115 12 119 90S17 21 10-45l28-5c4 36 97 45 98 0-10-56-113-15-118-90-4-57 82-63 122-42 12 7 21 19 24 35" id="E"/><g id="d"><use transform="matrix(0.05,0,0,0.05,0,0)" xlink:href="#D"/><use transform="matrix(0.05,0,0,0.05,12.950000000000001,0)" xlink:href="#E"/><use transform="matrix(0.05,0,0,0.05,21.950000000000003,0)" xlink:href="#t"/><use transform="matrix(0.05,0,0,0.05,31.950000000000003,0)" xlink:href="#B"/></g><path d="M127-220V0H93v-220H8v-28h204v28h-85" id="F"/><path d="M141-36C126-15 110 5 73 4 37 3 15-17 15-53c-1-64 63-63 125-63 3-35-9-54-41-54-24 1-41 7-42 31l-33-3c5-37 33-52 76-52 45 0 72 20 72 64v82c-1 20 7 32 28 27v20c-31 9-61-2-59-35zM48-53c0 20 12 33 32 33 41-3 63-29 60-74-43 2-92-5-92 41" id="G"/><path d="M101-234c-31-9-42 10-38 44h38v23H63V0H32v-167H5v-23h27c-7-52 17-82 69-68v24" id="H"/><g id="e"><use transform="matrix(0.05,0,0,0.05,0,0)" xlink:href="#F"/><use transform="matrix(0.05,0,0,0.05,10.3,0)" xlink:href="#B"/><use transform="matrix(0.05,0,0,0.05,16.25,0)" xlink:href="#G"/><use transform="matrix(0.05,0,0,0.05,26.25,0)" xlink:href="#H"/><use transform="matrix(0.05,0,0,0.05,30.899999999999995,0)" xlink:href="#H"/><use transform="matrix(0.05,0,0,0.05,35.9,0)" xlink:href="#y"/><use transform="matrix(0.05,0,0,0.05,39.85,0)" xlink:href="#z"/></g><path d="M30 0v-248h187v28H63v79h144v27H63v87h162V0H30" id="I"/><path d="M117-194c89-4 53 116 60 194h-32v-121c0-31-8-49-39-48C34-167 62-67 57 0H25l-1-190h30c1 10-1 24 2 32 11-22 29-35 61-36" id="J"/><path d="M115-194c55 1 70 41 70 98S169 2 115 4C84 4 66-9 55-30l1 105H24l-1-265h31l2 30c10-21 28-34 59-34zm-8 174c40 0 45-34 45-75s-6-73-45-74c-42 0-51 32-51 76 0 43 10 73 51 73" id="K"/><g id="f"><use transform="matrix(0.05,0,0,0.05,0,0)" xlink:href="#I"/><use transform="matrix(0.05,0,0,0.05,12,0)" xlink:href="#J"/><use transform="matrix(0.05,0,0,0.05,22,0)" xlink:href="#C"/><use transform="matrix(0.05,0,0,0.05,32,0)" xlink:href="#K"/><use transform="matrix(0.05,0,0,0.05,42,0)" xlink:href="#q"/><use transform="matrix(0.05,0,0,0.05,52,0)" xlink:href="#y"/><use transform="matrix(0.05,0,0,0.05,55.95,0)" xlink:href="#J"/><use transform="matrix(0.05,0,0,0.05,65.95,0)" xlink:href="#s"/></g><path d="M177-190C167-65 218 103 67 71c-23-6-38-20-44-43l32-5c15 47 100 32 89-28v-30C133-14 115 1 83 1 29 1 15-40 15-95c0-56 16-97 71-98 29-1 48 16 59 35 1-10 0-23 2-32h30zM94-22c36 0 50-32 50-73 0-42-14-75-50-75-39 0-46 34-46 75s6 73 46 73" id="L"/><path d="M16-82v-28h88v28H16" id="M"/><path d="M101-251c68 0 85 55 85 127S166 4 100 4C33 4 14-52 14-124c0-73 17-127 87-127zm-1 229c47 0 54-49 54-102s-4-102-53-102c-51 0-55 48-55 102 0 53 5 102 54 102" id="N"/><g id="g"><use transform="matrix(0.05,0,0,0.05,0,0)" xlink:href="#B"/><use transform="matrix(0.05,0,0,0.05,5.95,0)" xlink:href="#t"/><use transform="matrix(0.05,0,0,0.05,15.949999999999998,0)" xlink:href="#L"/><use transform="matrix(0.05,0,0,0.05,25.950000000000003,0)" xlink:href="#y"/><use transform="matrix(0.05,0,0,0.05,29.899999999999995,0)" xlink:href="#q"/><use transform="matrix(0.05,0,0,0.05,39.9,0)" xlink:href="#J"/><use transform="matrix(0.05,0,0,0.05,49.9,0)" xlink:href="#M"/><use transform="matrix(0.05,0,0,0.05,55.85,0)" xlink:href="#N"/></g><path d="M27 0v-27h64v-190l-56 39v-29l58-41h29v221h61V0H27" id="O"/><g id="h"><use transform="matrix(0.05,0,0,0.05,0,0)" xlink:href="#B"/><use transform="matrix(0.05,0,0,0.05,5.95,0)" xlink:href="#t"/><use transform="matrix(0.05,0,0,0.05,15.949999999999998,0)" xlink:href="#L"/><use transform="matrix(0.05,0,0,0.05,25.950000000000003,0)" xlink:href="#y"/><use transform="matrix(0.05,0,0,0.05,29.899999999999995,0)" xlink:href="#q"/><use transform="matrix(0.05,0,0,0.05,39.9,0)" xlink:href="#J"/><use transform="matrix(0.05,0,0,0.05,49.9,0)" xlink:href="#M"/><use transform="matrix(0.05,0,0,0.05,55.85,0)" xlink:href="#O"/></g><path d="M101-251c82-7 93 87 43 132L82-64C71-53 59-42 53-27h129V0H18c2-99 128-94 128-182 0-28-16-43-45-43s-46 15-49 41l-32-3c6-41 34-60 81-64" id="P"/><g id="i"><use transform="matrix(0.05,0,0,0.05,0,0)" xlink:href="#B"/><use transform="matrix(0.05,0,0,0.05,5.95,0)" xlink:href="#t"/><use transform="matrix(0.05,0,0,0.05,15.949999999999998,0)" xlink:href="#L"/><use transform="matrix(0.05,0,0,0.05,25.950000000000003,0)" xlink:href="#y"/><use transform="matrix(0.05,0,0,0.05,29.899999999999995,0)" xlink:href="#q"/><use transform="matrix(0.05,0,0,0.05,39.9,0)" xlink:href="#J"/><use transform="matrix(0.05,0,0,0.05,49.9,0)" xlink:href="#M"/><use transform="matrix(0.05,0,0,0.05,55.85,0)" xlink:href="#P"/></g><g id="j"><use transform="matrix(0.05,0,0,0.05,0,0)" xlink:href="#F"/><use transform="matrix(0.05,0,0,0.05,10.3,0)" xlink:href="#B"/><use transform="matrix(0.05,0,0,0.05,16.25,0)" xlink:href="#G"/><use transform="matrix(0.05,0,0,0.05,26.25,0)" xlink:href="#H"/><use transform="matrix(0.05,0,0,0.05,30.899999999999995,0)" xlink:href="#H"/><use transform="matrix(0.05,0,0,0.05,35.9,0)" xlink:href="#y"/><use transform="matrix(0.05,0,0,0.05,39.85,0)" xlink:href="#z"/></g><g id="k"><use transform="matrix(0.05,0,0,0.05,0,0)" xlink:href="#K"/><use transform="matrix(0.05,0,0,0.05,10,0)" xlink:href="#q"/><use transform="matrix(0.05,0,0,0.05,20,0)" xlink:href="#x"/><use transform="matrix(0.05,0,0,0.05,23.95,0)" xlink:href="#y"/><use transform="matrix(0.05,0,0,0.05,27.899999999999995,0)" xlink:href="#z"/><use transform="matrix(0.05,0,0,0.05,36.9,0)" xlink:href="#A"/></g><path d="M206 0h-36l-40-164L89 0H53L-1-190h32L70-26l43-164h34l41 164 42-164h31" id="Q"/><g id="l"><use transform="matrix(0.05,0,0,0.05,0,0)" xlink:href="#L"/><use transform="matrix(0.05,0,0,0.05,10,0)" xlink:href="#t"/><use transform="matrix(0.05,0,0,0.05,20,0)" xlink:href="#q"/><use transform="matrix(0.05,0,0,0.05,30,0)" xlink:href="#x"/><use transform="matrix(0.05,0,0,0.05,33.95,0)" xlink:href="#q"/><use transform="matrix(0.05,0,0,0.05,43.95,0)" xlink:href="#z"/><use transform="matrix(0.05,0,0,0.05,52.95,0)" xlink:href="#G"/><use transform="matrix(0.05,0,0,0.05,62.95,0)" xlink:href="#s"/><use transform="matrix(0.05,0,0,0.05,67.95,0)" xlink:href="#y"/><use transform="matrix(0.05,0,0,0.05,71.9,0)" xlink:href="#q"/><use transform="matrix(0.05,0,0,0.05,81.9,0)" xlink:href="#J"/><use transform="matrix(0.05,0,0,0.05,91.9,0)" xlink:href="#M"/><use transform="matrix(0.05,0,0,0.05,97.85000000000001,0)" xlink:href="#H"/><use transform="matrix(0.05,0,0,0.05,102.85000000000001,0)" xlink:href="#q"/><use transform="matrix(0.05,0,0,0.05,112.85000000000001,0)" xlink:href="#B"/><use transform="matrix(0.05,0,0,0.05,118.80000000000001,0)" xlink:href="#Q"/><use transform="matrix(0.05,0,0,0.05,131.75,0)" xlink:href="#G"/><use transform="matrix(0.05,0,0,0.05,141.75,0)" xlink:href="#B"/><use transform="matrix(0.05,0,0,0.05,147.7,0)" xlink:href="#C"/></g><g id="m"><use transform="matrix(0.05,0,0,0.05,0,0)" xlink:href="#r"/><use transform="matrix(0.05,0,0,0.05,10,0)" xlink:href="#E"/><use transform="matrix(0.05,0,0,0.05,19,0)" xlink:href="#t"/></g><g id="n"><use transform="matrix(0.05,0,0,0.05,0,0)" xlink:href="#y"/><use transform="matrix(0.05,0,0,0.05,3.95,0)" xlink:href="#C"/><use transform="matrix(0.05,0,0,0.05,13.949999999999998,0)" xlink:href="#t"/><use transform="matrix(0.05,0,0,0.05,23.95,0)" xlink:href="#J"/><use transform="matrix(0.05,0,0,0.05,33.95,0)" xlink:href="#s"/><use transform="matrix(0.05,0,0,0.05,38.95,0)" xlink:href="#y"/><use transform="matrix(0.05,0,0,0.05,42.900000000000006,0)" xlink:href="#H"/><use transform="matrix(0.05,0,0,0.05,47.900000000000006,0)" xlink:href="#A"/></g><g id="o"><use transform="matrix(0.05,0,0,0.05,0,0)" xlink:href="#q"/><use transform="matrix(0.05,0,0,0.05,10,0)" xlink:href="#B"/><use transform="matrix(0.05,0,0,0.05,15.949999999999998,0)" xlink:href="#y"/><use transform="matrix(0.05,0,0,0.05,19.9,0)" xlink:href="#L"/><use transform="matrix(0.05,0,0,0.05,29.899999999999995,0)" xlink:href="#y"/><use transform="matrix(0.05,0,0,0.05,33.85,0)" xlink:href="#J"/></g></defs></g></svg>